<svg width="48" height="48" viewBox="0 0 48 48" fill="none" xmlns="http://www.w3.org/2000/svg">
<path d="M9 42C8.2 42 7.5 41.7 6.9 41.1C6.3 40.5 6 39.8 6 39V13.4H9V39H34.6V42H9ZM16.2 34.8C15.4 34.8 14.7 34.5 14.1 33.9C13.5 33.3 13.2 32.6 13.2 31.8H16.2V34.8ZM13.2 27.4V22.6H16.2V27.4H13.2ZM13.2 18.2V13.4H16.2V18.2H13.2ZM13.2 9C13.2 8.2 13.5 7.5 14.1 6.9C14.7 6.3 15.4 6 16.2 6V9H13.2ZM20.6 34.8V31.8H25.4V34.8H20.6ZM20.6 9V6H25.4V9H20.6ZM29.8 34.8V31.8H34.6V34.8H29.8ZM29.8 9V6H34.6V9H29.8ZM39 34.8V31.8H42C42 32.6 41.7 33.3 41.1 33.9C40.5 34.5 39.8 34.8 39 34.8ZM39 27.4V22.6H42V27.4H39ZM39 18.2V13.4H42V18.2H39ZM39 9V6C39.8 6 40.5 6.3 41.1 6.9C41.7 7.5 42 8.2 42 9H39Z" fill="#317B9E"/>
</svg>
