<svg width="18" height="15" viewBox="0 0 18 15" fill="none" xmlns="http://www.w3.org/2000/svg">
<path d="M0.75 14.75L9 0.5L17.25 14.75H0.75ZM2.7 13.625H15.3L9 2.75L2.7 13.625ZM9.07828 12.5563C9.23859 12.5563 9.37188 12.502 9.47813 12.3936C9.58438 12.2851 9.6375 12.1508 9.6375 11.9905C9.6375 11.8302 9.58328 11.6969 9.47484 11.5906C9.36639 11.4844 9.23202 11.4313 9.07172 11.4313C8.91141 11.4313 8.77813 11.4855 8.67188 11.5939C8.56563 11.7024 8.5125 11.8367 8.5125 11.997C8.5125 12.1573 8.56672 12.2906 8.67516 12.3969C8.78361 12.5031 8.91798 12.5563 9.07828 12.5563ZM8.5125 10.475H9.6375V6.275H8.5125V10.475Z" fill="#FE1818"/>
</svg>
