<svg width="62" height="62" viewBox="0 0 48 48" fill="none" xmlns="http://www.w3.org/2000/svg">
<path d="M13.05 21.7L24.05 4L35.05 21.7H13.05ZM35.3 44C32.8333 44 30.7667 43.1667 29.1 41.5C27.4333 39.8333 26.6 37.7667 26.6 35.3C26.6 32.8333 27.4333 30.7667 29.1 29.1C30.7667 27.4333 32.8333 26.6 35.3 26.6C37.7667 26.6 39.8333 27.4333 41.5 29.1C43.1667 30.7667 44 32.8333 44 35.3C44 37.7667 43.1667 39.8333 41.5 41.5C39.8333 43.1667 37.7667 44 35.3 44ZM6 42.75V27.55H21.2V42.75H6ZM35.3043 41C36.9014 41 38.25 40.4486 39.35 39.3457C40.45 38.243 41 36.8929 41 35.2957C41 33.6986 40.4486 32.35 39.3458 31.25C38.243 30.15 36.893 29.6 35.2957 29.6C33.6986 29.6 32.35 30.1514 31.25 31.2542C30.15 32.357 29.6 33.7071 29.6 35.3043C29.6 36.9014 30.1514 38.25 31.2542 39.35C32.357 40.45 33.7071 41 35.3043 41ZM9 39.75H18.2V30.55H9V39.75ZM18.45 18.7H29.65L24.05 9.65L18.45 18.7Z" fill="#BB6565"/>
</svg>
