<svg width="48" height="48" viewBox="0 0 48 48" fill="none" xmlns="http://www.w3.org/2000/svg">
<path d="M24.95 35.05L43.15 16.9L39.1 12.9L20.95 31.05L24.95 35.05ZM10.95 37.45C8.01667 37.25 5.79167 36.575 4.275 35.425C2.75833 34.275 2 32.65 2 30.55C2 28.55 2.85 26.9167 4.55 25.65C6.25 24.3834 8.61667 23.6167 11.65 23.35C13.1167 23.2167 14.2083 22.95 14.925 22.55C15.6417 22.15 16 21.6 16 20.9C16 19.9334 15.5167 19.1917 14.55 18.675C13.5833 18.1584 11.9667 17.7834 9.7 17.55L9.95 14.55C12.9167 14.85 15.1667 15.5334 16.7 16.6C18.2333 17.6667 19 19.1 19 20.9C19 22.4334 18.375 23.6834 17.125 24.65C15.875 25.6167 14.1333 26.1834 11.9 26.35C9.6 26.5167 7.875 26.95 6.725 27.65C5.575 28.35 5 29.3167 5 30.55C5 31.7167 5.50833 32.625 6.525 33.275C7.54167 33.925 9.06667 34.3167 11.1 34.45L10.95 37.45ZM25.9 38.35L17.65 30.1L37.55 10.25C38.0167 9.78335 38.5417 9.55835 39.125 9.57502C39.7083 9.59169 40.2333 9.81669 40.7 10.25L45.8 15.3C46.2667 15.7667 46.5 16.3 46.5 16.9C46.5 17.5 46.2667 18.0334 45.8 18.5L25.9 38.35ZM17.95 40C17.3833 40.1334 16.8833 39.9834 16.45 39.55C16.0167 39.1167 15.8667 38.6167 16 38.05L17.65 30.1L25.9 38.35L17.95 40Z" fill="#7A5CBF"/>
</svg>
