<svg width="264" height="101" viewBox="0 0 264 101" fill="none" xmlns="http://www.w3.org/2000/svg">
<g clip-path="url(#clip0_677_291)">
<path d="M109.791 34.2V67.8H103.926V41.4333H103.848L93.3696 67.8H89.4597L78.7464 41.4333H78.6682V67.8H73.2725V34.2H81.718L91.4146 59.0889H91.571L101.815 34.2H109.791ZM114.64 36.7667C114.64 35.8333 114.953 35.0556 115.656 34.4333C116.36 33.8111 117.142 33.5 118.081 33.5C119.097 33.5 119.957 33.8111 120.583 34.4333C121.208 35.0556 121.599 35.8333 121.599 36.7667C121.599 37.7 121.287 38.4778 120.583 39.1C119.879 39.7222 119.097 40.0333 118.081 40.0333C117.064 40.0333 116.282 39.7222 115.656 39.1C115.031 38.4 114.64 37.6222 114.64 36.7667ZM120.974 43.6889V67.8H115.265V43.6889H120.974ZM138.256 63.6778C139.116 63.6778 140.054 63.5222 141.071 63.0556C142.088 62.6667 143.026 62.1222 143.886 61.5V66.7889C142.948 67.3333 141.931 67.7222 140.758 67.9556C139.585 68.1889 138.334 68.3445 136.926 68.3445C133.329 68.3445 130.436 67.2556 128.246 65C125.979 62.7445 124.884 59.8667 124.884 56.4445C124.884 52.5556 126.057 49.3667 128.325 46.8778C130.592 44.3889 133.799 43.1445 138.021 43.1445C139.116 43.1445 140.211 43.3 141.227 43.5333C142.322 43.7667 143.182 44.1556 143.808 44.4667V49.9111C142.948 49.2889 142.009 48.7445 141.149 48.4333C140.211 48.1222 139.272 47.8889 138.334 47.8889C136.066 47.8889 134.268 48.5889 132.86 50.0667C131.453 51.5445 130.827 53.4889 130.827 55.9778C130.827 58.3889 131.531 60.3333 132.86 61.6556C134.19 62.9778 135.988 63.6778 138.256 63.6778ZM160.073 43.3C160.543 43.3 160.934 43.3 161.325 43.3778C161.716 43.4556 162.028 43.5333 162.263 43.6111V49.3667C161.95 49.1333 161.559 48.9 160.934 48.7445C160.308 48.5889 159.682 48.4333 158.822 48.4333C157.415 48.4333 156.242 49.0556 155.303 50.2222C154.365 51.3889 153.817 53.1778 153.817 55.6667V67.8H148.109V43.6889H153.817V47.5H153.896C154.443 46.1778 155.225 45.1667 156.242 44.3889C157.336 43.6889 158.588 43.3 160.073 43.3ZM162.576 56.1333C162.576 52.1667 163.749 48.9778 165.938 46.6445C168.206 44.3111 171.334 43.1445 175.322 43.1445C179.076 43.1445 182.047 44.2333 184.159 46.4889C186.27 48.7445 187.365 51.7778 187.365 55.5889C187.365 59.4778 186.192 62.5889 184.002 64.9222C181.735 67.2556 178.685 68.4222 174.775 68.4222C171.021 68.4222 168.05 67.3333 165.86 65.1556C163.671 62.9 162.576 59.8667 162.576 56.1333ZM168.519 55.9C168.519 58.3889 169.066 60.3333 170.239 61.6556C171.412 62.9778 173.054 63.6778 175.166 63.6778C177.199 63.6778 178.841 63.0556 179.936 61.6556C181.031 60.3333 181.578 58.3889 181.578 55.7445C181.578 53.1778 181.031 51.2333 179.936 49.8333C178.841 48.5111 177.199 47.8111 175.244 47.8111C173.133 47.8111 171.569 48.5111 170.396 49.9111C169.066 51.3889 168.519 53.3333 168.519 55.9ZM195.889 50.0667C195.889 50.8445 196.123 51.5445 196.671 52.0111C197.218 52.4778 198.313 53.0222 200.111 53.7222C202.379 54.6556 204.021 55.6667 204.881 56.7556C205.82 57.9222 206.289 59.2445 206.289 60.8778C206.289 63.1333 205.429 64.9222 203.63 66.3222C201.91 67.7222 199.486 68.3445 196.514 68.3445C195.498 68.3445 194.403 68.1889 193.152 67.9556C191.9 67.7222 190.884 67.4111 190.024 67.0222V61.4222C191.04 62.1222 192.213 62.7445 193.386 63.1333C194.559 63.5222 195.654 63.7556 196.671 63.7556C197.922 63.7556 198.938 63.6 199.486 63.2111C200.111 62.8222 200.424 62.2778 200.424 61.4222C200.424 60.6445 200.111 60.0222 199.486 59.4C198.86 58.8556 197.609 58.2333 195.889 57.5333C193.777 56.6778 192.291 55.6667 191.431 54.5778C190.571 53.4889 190.102 52.0889 190.102 50.3778C190.102 48.2 190.962 46.4111 192.682 45.0111C194.403 43.6111 196.671 42.9111 199.408 42.9111C200.268 42.9111 201.206 42.9889 202.223 43.2222C203.239 43.4556 204.178 43.6889 204.881 43.9222V49.4445C204.099 48.9778 203.239 48.5111 202.223 48.1222C201.206 47.7333 200.19 47.5778 199.251 47.5778C198.156 47.5778 197.296 47.8111 196.749 48.2C196.201 48.7445 195.889 49.2889 195.889 50.0667ZM208.713 56.1333C208.713 52.1667 209.886 48.9778 212.076 46.6445C214.344 44.3111 217.472 43.1445 221.46 43.1445C225.213 43.1445 228.185 44.2333 230.296 46.4889C232.408 48.7445 233.502 51.7778 233.502 55.5889C233.502 59.4778 232.329 62.5889 230.14 64.9222C227.872 67.2556 224.822 68.4222 220.912 68.4222C217.159 68.4222 214.187 67.3333 211.998 65.1556C209.886 62.9 208.713 59.8667 208.713 56.1333ZM214.656 55.9C214.656 58.3889 215.204 60.3333 216.377 61.6556C217.55 62.9778 219.192 63.6778 221.303 63.6778C223.336 63.6778 224.979 63.0556 226.073 61.6556C227.168 60.3333 227.716 58.3889 227.716 55.7445C227.716 53.1778 227.168 51.2333 226.073 49.8333C224.979 48.5111 223.336 47.8111 221.381 47.8111C219.27 47.8111 217.706 48.5111 216.533 49.9111C215.282 51.3889 214.656 53.3333 214.656 55.9ZM252.505 48.3556H243.981V67.8H238.194V48.3556H234.128V43.6889H238.194V40.3445C238.194 37.8556 239.054 35.7556 240.697 34.1222C242.339 32.4889 244.45 31.7111 247.031 31.7111C247.735 31.7111 248.36 31.7889 248.908 31.7889C249.455 31.7889 249.924 31.9445 250.315 32.1V37C250.159 36.9222 249.768 36.7667 249.299 36.6111C248.829 36.4556 248.282 36.3778 247.656 36.3778C246.483 36.3778 245.545 36.7667 244.919 37.4667C244.294 38.1667 243.981 39.3333 243.981 40.7333V43.6111H252.505V38.1667L258.213 36.4556V43.6111H264V48.2778H258.213V59.5556C258.213 61.0333 258.526 62.0445 258.995 62.6667C259.543 63.2889 260.403 63.6 261.576 63.6C261.889 63.6 262.28 63.5222 262.749 63.3667C263.218 63.2111 263.609 63.0556 263.922 62.8222V67.4889C263.531 67.7222 262.983 67.8778 262.123 68.0333C261.263 68.1889 260.481 68.2667 259.621 68.2667C257.197 68.2667 255.398 67.6445 254.225 66.4C253.052 65.1556 252.426 63.2111 252.426 60.6445L252.505 48.3556Z" fill="white"/>
<path d="M26.7441 23H0V49.6H26.7441V23Z" fill="#F25022"/>
<path d="M56.3034 23H29.5593V49.6H56.3034V23Z" fill="#7FBA00"/>
<path d="M26.7441 52.4H0V79H26.7441V52.4Z" fill="#00A4EF"/>
<path d="M56.3034 52.4H29.5593V79H56.3034V52.4Z" fill="#FFB900"/>
</g>
<defs>
<clipPath id="clip0_677_291">
<rect width="264" height="56" fill="white" transform="translate(0 23)"/>
</clipPath>
</defs>
</svg>
