<svg width="264" height="56" viewBox="0 0 264 56" fill="none" xmlns="http://www.w3.org/2000/svg">
<g clip-path="url(#clip0_677_284)">
<path d="M109.791 11.2V44.8H103.926V18.4333H103.848L93.3696 44.8H89.4597L78.7464 18.4333H78.6682V44.8H73.2725V11.2H81.718L91.4146 36.0889H91.571L101.815 11.2H109.791ZM114.64 13.7667C114.64 12.8333 114.953 12.0556 115.656 11.4333C116.36 10.8111 117.142 10.5 118.081 10.5C119.097 10.5 119.957 10.8111 120.583 11.4333C121.208 12.0556 121.599 12.8333 121.599 13.7667C121.599 14.7 121.287 15.4778 120.583 16.1C119.879 16.7222 119.097 17.0333 118.081 17.0333C117.064 17.0333 116.282 16.7222 115.656 16.1C115.031 15.4 114.64 14.6222 114.64 13.7667ZM120.974 20.6889V44.8H115.265V20.6889H120.974ZM138.256 40.6778C139.116 40.6778 140.054 40.5222 141.071 40.0556C142.088 39.6667 143.026 39.1222 143.886 38.5V43.7889C142.948 44.3333 141.931 44.7222 140.758 44.9556C139.585 45.1889 138.334 45.3445 136.926 45.3445C133.329 45.3445 130.436 44.2556 128.246 42C125.979 39.7445 124.884 36.8667 124.884 33.4445C124.884 29.5556 126.057 26.3667 128.325 23.8778C130.592 21.3889 133.799 20.1445 138.021 20.1445C139.116 20.1445 140.211 20.3 141.227 20.5333C142.322 20.7667 143.182 21.1556 143.808 21.4667V26.9111C142.948 26.2889 142.009 25.7445 141.149 25.4333C140.211 25.1222 139.272 24.8889 138.334 24.8889C136.066 24.8889 134.268 25.5889 132.86 27.0667C131.453 28.5445 130.827 30.4889 130.827 32.9778C130.827 35.3889 131.531 37.3333 132.86 38.6556C134.19 39.9778 135.988 40.6778 138.256 40.6778ZM160.073 20.3C160.543 20.3 160.934 20.3 161.325 20.3778C161.716 20.4556 162.028 20.5333 162.263 20.6111V26.3667C161.95 26.1333 161.559 25.9 160.934 25.7445C160.308 25.5889 159.682 25.4333 158.822 25.4333C157.415 25.4333 156.242 26.0556 155.303 27.2222C154.365 28.3889 153.817 30.1778 153.817 32.6667V44.8H148.109V20.6889H153.817V24.5H153.896C154.443 23.1778 155.225 22.1667 156.242 21.3889C157.336 20.6889 158.588 20.3 160.073 20.3ZM162.576 33.1333C162.576 29.1667 163.749 25.9778 165.938 23.6445C168.206 21.3111 171.334 20.1445 175.322 20.1445C179.076 20.1445 182.047 21.2333 184.159 23.4889C186.27 25.7445 187.365 28.7778 187.365 32.5889C187.365 36.4778 186.192 39.5889 184.002 41.9222C181.735 44.2556 178.685 45.4222 174.775 45.4222C171.021 45.4222 168.05 44.3333 165.86 42.1556C163.671 39.9 162.576 36.8667 162.576 33.1333ZM168.519 32.9C168.519 35.3889 169.066 37.3333 170.239 38.6556C171.412 39.9778 173.054 40.6778 175.166 40.6778C177.199 40.6778 178.841 40.0556 179.936 38.6556C181.031 37.3333 181.578 35.3889 181.578 32.7445C181.578 30.1778 181.031 28.2333 179.936 26.8333C178.841 25.5111 177.199 24.8111 175.244 24.8111C173.133 24.8111 171.569 25.5111 170.396 26.9111C169.066 28.3889 168.519 30.3333 168.519 32.9ZM195.889 27.0667C195.889 27.8445 196.123 28.5445 196.671 29.0111C197.218 29.4778 198.313 30.0222 200.111 30.7222C202.379 31.6556 204.021 32.6667 204.881 33.7556C205.82 34.9222 206.289 36.2445 206.289 37.8778C206.289 40.1333 205.429 41.9222 203.63 43.3222C201.91 44.7222 199.486 45.3445 196.514 45.3445C195.498 45.3445 194.403 45.1889 193.152 44.9556C191.9 44.7222 190.884 44.4111 190.024 44.0222V38.4222C191.04 39.1222 192.213 39.7445 193.386 40.1333C194.559 40.5222 195.654 40.7556 196.671 40.7556C197.922 40.7556 198.938 40.6 199.486 40.2111C200.111 39.8222 200.424 39.2778 200.424 38.4222C200.424 37.6445 200.111 37.0222 199.486 36.4C198.86 35.8556 197.609 35.2333 195.889 34.5333C193.777 33.6778 192.291 32.6667 191.431 31.5778C190.571 30.4889 190.102 29.0889 190.102 27.3778C190.102 25.2 190.962 23.4111 192.682 22.0111C194.403 20.6111 196.671 19.9111 199.408 19.9111C200.268 19.9111 201.206 19.9889 202.223 20.2222C203.239 20.4556 204.178 20.6889 204.881 20.9222V26.4445C204.099 25.9778 203.239 25.5111 202.223 25.1222C201.206 24.7333 200.19 24.5778 199.251 24.5778C198.156 24.5778 197.296 24.8111 196.749 25.2C196.201 25.7445 195.889 26.2889 195.889 27.0667ZM208.713 33.1333C208.713 29.1667 209.886 25.9778 212.076 23.6445C214.344 21.3111 217.472 20.1445 221.46 20.1445C225.213 20.1445 228.185 21.2333 230.296 23.4889C232.408 25.7445 233.502 28.7778 233.502 32.5889C233.502 36.4778 232.329 39.5889 230.14 41.9222C227.872 44.2556 224.822 45.4222 220.912 45.4222C217.159 45.4222 214.187 44.3333 211.998 42.1556C209.886 39.9 208.713 36.8667 208.713 33.1333ZM214.656 32.9C214.656 35.3889 215.204 37.3333 216.377 38.6556C217.55 39.9778 219.192 40.6778 221.303 40.6778C223.336 40.6778 224.979 40.0556 226.073 38.6556C227.168 37.3333 227.716 35.3889 227.716 32.7445C227.716 30.1778 227.168 28.2333 226.073 26.8333C224.979 25.5111 223.336 24.8111 221.381 24.8111C219.27 24.8111 217.706 25.5111 216.533 26.9111C215.282 28.3889 214.656 30.3333 214.656 32.9ZM252.505 25.3556H243.981V44.8H238.194V25.3556H234.128V20.6889H238.194V17.3445C238.194 14.8556 239.054 12.7556 240.697 11.1222C242.339 9.4889 244.45 8.71112 247.031 8.71112C247.735 8.71112 248.36 8.7889 248.908 8.7889C249.455 8.7889 249.924 8.94445 250.315 9.10001V14C250.159 13.9222 249.768 13.7667 249.299 13.6111C248.829 13.4556 248.282 13.3778 247.656 13.3778C246.483 13.3778 245.545 13.7667 244.919 14.4667C244.294 15.1667 243.981 16.3333 243.981 17.7333V20.6111H252.505V15.1667L258.213 13.4556V20.6111H264V25.2778H258.213V36.5556C258.213 38.0333 258.526 39.0445 258.995 39.6667C259.543 40.2889 260.403 40.6 261.576 40.6C261.889 40.6 262.28 40.5222 262.749 40.3667C263.218 40.2111 263.609 40.0556 263.922 39.8222V44.4889C263.531 44.7222 262.983 44.8778 262.123 45.0333C261.263 45.1889 260.481 45.2667 259.621 45.2667C257.197 45.2667 255.398 44.6445 254.225 43.4C253.052 42.1556 252.426 40.2111 252.426 37.6445L252.505 25.3556Z" fill="white"/>
<path d="M26.7441 0H0V26.6H26.7441V0Z" fill="#F25022"/>
<path d="M56.3034 0H29.5593V26.6H56.3034V0Z" fill="#7FBA00"/>
<path d="M26.7441 29.4H0V56H26.7441V29.4Z" fill="#00A4EF"/>
<path d="M56.3034 29.4H29.5593V56H56.3034V29.4Z" fill="#FFB900"/>
</g>
<defs>
<clipPath id="clip0_677_284">
<rect width="264" height="56" fill="white"/>
</clipPath>
</defs>
</svg>
