<svg width="119" height="29" viewBox="0 0 119 29" fill="none" xmlns="http://www.w3.org/2000/svg">
<path d="M118.971 13.2665V11.1576H116.373V7.87909L116.285 7.90623L113.845 8.65884L113.797 8.67357V11.1577H109.945V9.77383C109.945 9.12945 110.088 8.63634 110.37 8.30748C110.649 7.98256 111.05 7.81738 111.56 7.81738C111.927 7.81738 112.307 7.90449 112.689 8.07629L112.785 8.11944V5.8985L112.74 5.8818C112.383 5.75258 111.898 5.6875 111.297 5.6875C110.539 5.6875 109.85 5.85373 109.25 6.18317C108.649 6.51307 108.176 6.98403 107.845 7.58282C107.515 8.18092 107.348 8.8717 107.348 9.63614V11.1576H105.539V13.2665H107.348V22.1508H109.945V13.2665H113.797V18.9123C113.797 21.2375 114.885 22.4159 117.031 22.4159C117.384 22.4159 117.755 22.3742 118.134 22.2927C118.519 22.2089 118.782 22.1253 118.937 22.036L118.971 22.0155V19.8872L118.865 19.9576C118.724 20.0522 118.549 20.1296 118.343 20.1872C118.136 20.2457 117.964 20.2751 117.83 20.2751C117.327 20.2751 116.955 20.1385 116.725 19.8691C116.491 19.5972 116.373 19.1217 116.373 18.4565V13.2665H118.971ZM99.7386 20.2754C98.796 20.2754 98.0527 19.9604 97.529 19.3398C97.002 18.716 96.735 17.8268 96.735 16.6969C96.735 15.5313 97.002 14.6189 97.5292 13.9842C98.0533 13.3536 98.7894 13.0335 99.7175 13.0335C100.618 13.0335 101.335 13.3392 101.848 13.9425C102.364 14.549 102.626 15.454 102.626 16.6333C102.626 17.827 102.38 18.744 101.894 19.3574C101.412 19.9662 100.687 20.2754 99.7386 20.2754ZM99.8541 10.8928C98.0556 10.8928 96.6272 11.4239 95.6086 12.4715C94.5908 13.5192 94.0748 14.9691 94.0748 16.7813C94.0748 18.5025 94.5785 19.8869 95.5721 20.8956C96.5658 21.9045 97.9181 22.4156 99.5911 22.4156C101.334 22.4156 102.734 21.877 103.753 20.8149C104.77 19.754 105.286 18.3178 105.286 16.548C105.286 14.7999 104.802 13.4051 103.847 12.4032C102.892 11.4008 101.548 10.8928 99.8541 10.8928ZM89.8873 10.8928C88.6639 10.8928 87.652 11.2082 86.8789 11.83C86.1012 12.4556 85.7067 13.2761 85.7067 14.2689C85.7067 14.785 85.7918 15.2435 85.9594 15.6323C86.128 16.0224 86.3889 16.3659 86.7355 16.6541C87.0795 16.9401 87.6105 17.2396 88.3142 17.5443C88.9057 17.7897 89.3469 17.9972 89.6271 18.1607C89.901 18.3211 90.0954 18.4822 90.2052 18.6391C90.3119 18.7927 90.366 19.0029 90.366 19.2623C90.366 20.0009 89.8172 20.3602 88.6881 20.3602C88.2693 20.3602 87.7916 20.2721 87.2683 20.0983C86.7487 19.9272 86.2583 19.6765 85.8143 19.3552L85.7064 19.2772V21.7976L85.746 21.8161C86.1135 21.9871 86.5768 22.1313 87.1229 22.2448C87.668 22.3583 88.1632 22.4161 88.5934 22.4161C89.9209 22.4161 90.99 22.0992 91.77 21.4736C92.555 20.8437 92.9529 20.0039 92.9529 18.9767C92.9529 18.2357 92.7387 17.6002 92.3166 17.0877C91.8973 16.5794 91.1696 16.1128 90.1547 15.7003C89.3461 15.3732 88.828 15.1016 88.6143 14.8931C88.4083 14.6918 88.3037 14.407 88.3037 14.0463C88.3037 13.7266 88.4328 13.4705 88.6979 13.2631C88.965 13.0547 89.3368 12.9486 89.8032 12.9486C90.2359 12.9486 90.6786 13.0175 91.119 13.1526C91.5589 13.2876 91.9454 13.4684 92.268 13.6896L92.3741 13.7627V11.372L92.3334 11.3543C92.0358 11.2257 91.6433 11.1156 91.1666 11.0263C90.6921 10.9375 90.2617 10.8928 89.8873 10.8928ZM78.936 20.2754C77.9935 20.2754 77.2501 19.9604 76.7264 19.3398C76.1993 18.716 75.9328 17.827 75.9328 16.6969C75.9328 15.5313 76.1997 14.6189 76.727 13.9842C77.2506 13.3536 77.9866 13.0335 78.9151 13.0335C79.8153 13.0335 80.5322 13.3392 81.0459 13.9425C81.562 14.549 81.8238 15.454 81.8238 16.6333C81.8238 17.827 81.5774 18.744 81.0918 19.3574C80.6095 19.9662 79.8845 20.2754 78.936 20.2754ZM79.0518 10.8928C77.2528 10.8928 75.8242 11.4239 74.8063 12.4715C73.7885 13.5192 73.2721 14.9691 73.2721 16.7813C73.2721 18.5032 73.7762 19.8869 74.7698 20.8956C75.7635 21.9045 77.1156 22.4156 78.7887 22.4156C80.5318 22.4156 81.9321 21.877 82.9502 20.8149C83.9679 19.754 84.4839 18.3178 84.4839 16.548C84.4839 14.7999 83.9998 13.4051 83.0447 12.4032C82.0891 11.4008 80.7456 10.8928 79.0518 10.8928ZM69.3297 13.0614V11.1576H66.7641V22.1506H69.3297V16.5272C69.3297 15.571 69.5448 14.7855 69.9692 14.1922C70.3882 13.6059 70.9466 13.3088 71.6284 13.3088C71.8595 13.3088 72.1189 13.3472 72.3998 13.4232C72.6779 13.4987 72.8793 13.5807 72.9981 13.667L73.1059 13.7458V11.1388L73.0643 11.1208C72.8254 11.0185 72.4874 10.9669 72.0597 10.9669C71.415 10.9669 70.8381 11.1757 70.3439 11.5868C69.9102 11.9481 69.5967 12.4436 69.3569 13.0614H69.3297ZM62.1697 10.8928C60.9927 10.8928 59.9429 11.1472 59.05 11.6486C58.1552 12.1513 57.4631 12.8688 56.9923 13.7813C56.5236 14.6915 56.2856 15.7548 56.2856 16.9405C56.2856 17.9792 56.5163 18.9324 56.9724 19.7725C57.4287 20.6139 58.0746 21.2722 58.8922 21.7288C59.7086 22.1848 60.6522 22.416 61.697 22.416C62.9162 22.416 63.9572 22.1703 64.7918 21.6858L64.8255 21.6663V19.2972L64.7177 19.3765C64.3396 19.6541 63.9171 19.8757 63.4625 20.0353C63.0091 20.1948 62.5957 20.2754 62.2332 20.2754C61.2265 20.2754 60.4183 19.9579 59.8318 19.332C59.2439 18.7053 58.9458 17.8252 58.9458 16.7177C58.9458 15.6033 59.2567 14.7006 59.8693 14.0345C60.48 13.3704 61.2897 13.0335 62.2755 13.0335C63.1188 13.0335 63.9405 13.3213 64.7179 13.8897L64.8255 13.9685V11.4723L64.7907 11.4526C64.4982 11.2875 64.0992 11.1512 63.6038 11.0479C63.1106 10.9447 62.6281 10.8928 62.1697 10.8928ZM54.5186 11.1577H51.9531V22.1506H54.5186V11.1577ZM53.2621 6.47468C52.8399 6.47468 52.4716 6.61956 52.169 6.90666C51.8652 7.19457 51.7111 7.55707 51.7111 7.98488C51.7111 8.40596 51.8634 8.76185 52.1643 9.0421C52.4633 9.32155 52.8327 9.46318 53.2622 9.46318C53.6916 9.46318 54.0624 9.32155 54.365 9.04257C54.6695 8.76185 54.824 8.40608 54.824 7.98488C54.824 7.57204 54.6737 7.21325 54.3775 6.91826C54.0817 6.62385 53.7062 6.47468 53.2621 6.47468ZM46.861 10.3466V22.1506H49.4792V6.81119H45.8555L41.2495 18.2048L36.7796 6.81119H33.0083V22.1505H35.4687V10.3455H35.5532L40.2733 22.1506H42.1301L46.7765 10.3466H46.861Z" fill="#161616"/>
<path d="M12.0689 13.85H0V1.68527H12.0689V13.85Z" fill="#161616"/>
<path d="M25.3944 13.85H13.3257V1.68527H25.3944V13.85Z" fill="#161616"/>
<path d="M12.0686 27.2859H0V15.1213H12.0686V27.2859Z" fill="#161616"/>
<path d="M25.3944 27.2859H13.3257V15.1213H25.3944V27.2859Z" fill="#161616"/>
</svg>
