<svg width="116" height="16" viewBox="0 0 116 16" fill="none" xmlns="http://www.w3.org/2000/svg">
<g clipPath="url(#clip0_757_689)">
<path fillRule="evenodd" clipRule="evenodd" d="M23.6135 6.22353C23.6135 7.10004 23.1411 7.53786 22.0748 7.53786H21.4591V4.97219H22.1158C23.1415 4.97219 23.6135 5.32651 23.6135 6.14004V6.22353ZM6.4827 10.0618L7.67202 5.30615L8.82043 10.0618H6.4827ZM56.9518 0.841858L55.4952 9.1444L53.7931 0.841858H49.1977L47.8232 9.0404L46.4688 0.841858H28.5798V3.98833C27.8835 1.94819 25.8953 0.841858 22.4644 0.841858H16.023V15.6957L11.5485 0.841858H4.51342L0 15.7565H5.08727L5.57973 13.7752H9.7234L10.2159 15.7569H21.4591V11.0218H21.7674L24.0435 15.7569H29.7266L26.7112 9.81131C28.0237 9.08142 28.8647 7.91357 28.8647 5.95269V5.8692C28.8647 5.60171 28.8494 5.34499 28.8215 5.09742H32.1287V15.7569H37.626V5.09742H41.1751V1.64186L44.3974 15.7569H49.9767L51.6595 7.87182L53.3616 15.7569H58.5934L61.9989 0.841858H56.9518Z" fill="#161616"/>
<path fillRule="evenodd" clipRule="evenodd" d="M84.5407 5.97649C84.5407 6.853 84.0691 7.29082 83.002 7.29082H82.3864V4.72515H83.043C84.0687 4.72515 84.5407 5.07947 84.5407 5.893V5.97649ZM89.7933 5.70566V5.62216C89.7933 2.38871 87.7621 0.594818 83.393 0.594818H76.9517L76.9518 15.5099H82.3871V10.7747H82.6953L84.9718 15.5099H90.6544L87.639 9.56427C88.9516 8.83438 89.7933 7.66653 89.7933 5.70566Z" fill="#161616"/>
<path fillRule="evenodd" clipRule="evenodd" d="M96.2364 0.594818H90.7593V15.5099H101.18V11.2543H96.2364V0.594818Z" fill="#161616"/>
<path fillRule="evenodd" clipRule="evenodd" d="M110.186 8.12558C110.186 10.4408 109.489 11.2755 107.642 11.2755H107.212V4.82915H107.602C109.365 4.82915 110.186 5.43467 110.186 7.9586V8.12558ZM107.807 0.594818H101.735L101.735 15.5097H107.828C113.018 15.5097 115.89 12.9235 115.89 8.0002V7.85475C115.89 2.973 113.12 0.594818 107.807 0.594818Z" fill="#161616"/>
<path fillRule="evenodd" clipRule="evenodd" d="M68.7583 10.8886C67.2178 10.8886 65.9691 9.61882 65.9691 8.05227C65.9709 6.4866 67.2187 5.2178 68.7583 5.21591C70.2986 5.21591 71.5474 6.48573 71.5474 8.05227C71.5474 9.61882 70.2986 10.8886 68.7583 10.8886ZM68.7583 0.105072C64.4421 0.10449 60.9428 3.66231 60.9424 8.05155C60.9418 12.4408 64.4404 15.9993 68.7566 15.9998C73.0728 16.0003 76.5721 12.4425 76.5725 8.05329C76.5725 8.053 76.5725 8.05271 76.5725 8.05242C76.5725 3.66347 73.0742 0.105363 68.7583 0.105072Z" fill="#161616"/>
</g>
<defs>
<clipPath id="clip0_757_689">
<rect width="116" height="16" fill="white" transform="translate(0 -0.000244141)"/>
</clipPath>
</defs>
</svg>
