<svg width="70" height="38" viewBox="0 0 70 38" fill="none" xmlns="http://www.w3.org/2000/svg">
<g clip-path="url(#clip0_757_704)">
<path fill-rule="evenodd" clip-rule="evenodd" d="M12.4108 22.8101C11.8704 22.8101 11.4474 23.1713 11.4474 23.6984C11.4474 24.2258 11.8726 24.5849 12.4108 24.5849C12.9486 24.5849 13.3743 24.2233 13.3743 23.6984C13.3743 23.1713 12.9508 22.8101 12.4108 22.8101ZM12.4108 24.3309C12.0255 24.3309 11.7397 24.062 11.7397 23.6984C11.7397 23.3351 12.0233 23.0641 12.4108 23.0641C12.7936 23.0641 13.0816 23.3393 13.0816 23.6984C13.0816 24.0554 12.791 24.3309 12.4108 24.3309ZM21.7856 19.7034H17.0955L17.6286 11.9147L14.5828 19.7034H10.2275L17.138 2.09863H21.7722L21.2373 9.99422L24.3408 2.09863H28.6964L21.7856 19.7034ZM22.3514 19.7034L29.2615 2.09863H33.6168L26.7067 19.7034H22.3514Z" fill="#161616"/>
<path fill-rule="evenodd" clip-rule="evenodd" d="M9.7251 13.6353C3.63901 20.464 -2.10208 29.55 2.969 33.7341C7.88282 37.7887 14.0248 35.3881 18.2127 33.7875C22.4006 32.1869 68.6892 12.9816 68.6892 12.9816C69.1359 12.7682 69.0524 12.5014 68.4939 12.6347C68.2687 12.6884 18.1012 25.6782 18.1012 25.6782C11.7352 27.3856 4.47645 23.6644 9.7251 13.6353Z" fill="#161616"/>
<path fill-rule="evenodd" clip-rule="evenodd" d="M12.5751 23.7608C12.7102 23.7546 12.8159 23.688 12.8159 23.5093C12.8159 23.2789 12.6583 23.221 12.395 23.221H12.0166V24.1762H12.269V23.7695H12.3115L12.5414 24.1762H12.8315L12.5751 23.7608ZM12.4132 23.6061H12.2694V23.3844H12.3906C12.4651 23.3844 12.5504 23.3927 12.5504 23.4853C12.5504 23.5846 12.501 23.6061 12.4132 23.6061ZM56.192 2.04486C55.6517 2.04486 55.2286 2.4064 55.2286 2.9331C55.2286 3.46014 55.6542 3.81925 56.192 3.81925C56.7299 3.81925 57.1555 3.45771 57.1555 2.9331C57.1558 2.4064 56.7328 2.04486 56.192 2.04486ZM56.192 3.56596C55.8067 3.56596 55.5209 3.29707 55.5209 2.93344C55.5209 2.57017 55.8046 2.29919 56.192 2.29919C56.5748 2.29919 56.8631 2.57433 56.8631 2.93344C56.8631 3.29047 56.5726 3.56596 56.192 3.56596Z" fill="#161616"/>
<path fill-rule="evenodd" clip-rule="evenodd" d="M56.3564 2.99554C56.4915 2.9893 56.5975 2.92268 56.5975 2.74399C56.5975 2.51361 56.4395 2.45566 56.1766 2.45566H55.7982V3.41052H56.0502V3.00422H56.0931L56.3226 3.41052H56.6131L56.3564 2.99554ZM56.194 2.8408H56.0502V2.61908H56.1719C56.246 2.61908 56.3317 2.62776 56.3317 2.7204C56.3317 2.81928 56.2819 2.8408 56.194 2.8408ZM53.3222 5.03293L54.4927 2.09863H41.2034L36.6404 7.38017L38.7471 2.09863H34.3358L27.481 19.7034H31.8363L34.7629 12.3415L34.9634 19.7034L48.3271 19.6756L49.5992 16.2892H44.5183L46.1877 12.0215H50.3752L51.6637 8.74062H47.4762L48.9117 5.03293H53.3222ZM39.2842 18.5296L39.0049 9.35406L45.59 2.44629L39.2842 18.5296Z" fill="#161616"/>
</g>
<defs>
<clipPath id="clip0_757_704">
<rect width="70" height="38" fill="white" transform="translate(0 -0.000244141)"/>
</clipPath>
</defs>
</svg>
