<svg width="264" height="101" viewBox="0 0 264 101" fill="none" xmlns="http://www.w3.org/2000/svg">
<g clip-path="url(#clip0_677_310)">
<path d="M82.9209 51.7394C82.4446 56.6493 82.5144 59.8139 82.5144 63.0484C82.5144 63.4905 82.5027 64.305 82.5027 64.305H48.1401C48.1401 64.305 48.1401 64.1421 48.1401 63.8047C48.1401 63.4673 48.1401 63.3044 48.1401 63.3044C50.0453 63.3044 51.4393 63.1648 52.3106 62.8855C53.1818 62.6063 53.7859 62.0595 54.0996 61.2567C54.4132 60.4422 54.5759 59.2089 54.5759 57.5335V56.8005C57.2477 57.1263 58.5372 57.103 60.9419 56.8703C60.9419 57.231 60.9303 58.2432 60.9303 58.2432C60.9303 59.8023 61.0813 59.8954 61.3717 60.5935C61.6621 61.2916 62.2081 61.7686 62.9981 62.0129C63.788 62.2572 65.0426 62.3852 66.7387 62.3852H69.6429C72.9769 62.3852 75.4397 62.2456 77.6469 60.1513C79.8541 58.0571 81.2946 55.3113 82.0381 51.7394" fill="white"/>
<path d="M65.7862 10.3311C65.7862 10.3311 65.7862 10.494 65.7862 10.8314C65.7862 11.1688 65.7862 11.3317 65.7862 11.3317C63.9275 11.3317 63.5441 11.3899 62.6613 11.7389C61.9526 12.0182 61.2789 12.7628 60.9536 13.5656C60.6283 14.3684 60.5354 16.2765 60.5818 17.5331C60.6283 18.7896 60.9304 20.9304 60.9304 20.9304C58.3398 20.0578 54.9244 19.7553 54.5876 17.8821V17.1142C54.7734 15.1014 54.7037 14.1706 54.4017 13.3213C54.1113 12.5301 53.7279 11.9367 52.8567 11.6342C51.9854 11.3317 51.3348 11.3317 49.4297 11.3317C49.4297 11.3317 49.4297 11.1688 49.4297 10.8314C49.4297 10.494 49.4297 10.3311 49.4297 10.3311H65.7862Z" fill="white"/>
<path d="M57.9912 52.1699C56.8528 52.1699 54.5991 52.0419 54.5991 51.3787C54.5991 51.0064 54.6107 31.6345 54.6107 31.6345C57.2013 32.5769 60.6166 32.9143 60.9535 34.9387V51.7278C59.9893 52.0303 58.9903 52.1699 57.9912 52.1699Z" fill="white"/>
<path d="M40.2174 38.4175H41.019C41.5534 41.0354 42.2388 43.2344 43.0868 45.0261C43.9348 46.8179 44.8642 48.2955 45.8748 49.459C46.8855 50.6225 47.9542 51.5183 49.0695 52.1466C50.1266 52.7516 51.2534 53.217 52.4383 53.5312C53.5071 53.8104 54.5991 53.9849 55.7027 54.0431C56.7366 54.0896 57.724 54.1129 58.6417 54.1129C61.209 54.1129 63.3117 53.729 64.9497 52.9494C66.5993 52.1699 67.9003 51.1926 68.8645 50.0058C69.8055 48.8772 70.4909 47.5625 70.8975 46.1547C71.2692 44.9214 71.4551 43.6299 71.4783 42.3385C71.4783 40.6398 71.1647 39.1971 70.5374 37.9754C69.9449 36.8003 69.1317 35.7532 68.1443 34.8922C67.1917 34.0545 66.1346 33.3564 64.9845 32.8212C63.939 32.3209 62.8586 31.9137 61.755 31.5879L53.4142 29.0399C49.4993 27.8299 46.537 26.2359 44.5273 24.2463C42.5176 22.2568 41.5185 19.5924 41.5185 16.2532C41.4953 14.1706 41.8903 12.1112 42.6802 10.1915C43.4237 8.37647 44.5389 6.72433 45.9445 5.36305C47.3966 3.97851 49.1043 2.88484 50.9862 2.16348C52.9495 1.38395 55.087 1 57.4103 1C59.1064 1 60.512 1.13962 61.6505 1.43049C62.6495 1.67482 63.637 2.00059 64.5895 2.40781L66.8084 3.38514C67.4357 3.67601 68.1094 3.81562 68.8065 3.82726C69.4338 3.82726 69.852 3.74582 70.0727 3.57129C70.2934 3.39677 70.5955 2.97792 70.9788 2.3031H71.9895V15.4504H71.1182C70.8278 13.7168 70.3283 12.0182 69.6313 10.4009C68.9575 8.84186 68.0397 7.38751 66.9129 6.11932C65.7861 4.87439 64.4153 3.86216 62.8819 3.14081C61.3136 2.39618 59.4898 2.01223 57.3987 2.01223C56.1093 2.02386 54.8198 2.18675 53.5536 2.48926C52.1595 2.8034 50.8352 3.35023 49.6387 4.11813C48.4305 4.89766 47.3966 5.94479 46.6299 7.16645C45.8284 8.43464 45.4334 10.0286 45.4218 11.9716C45.4218 13.5191 45.7354 14.8454 46.3627 15.9275C46.9784 16.9979 47.8032 17.9403 48.7907 18.6849C49.8129 19.4528 50.9398 20.0927 52.1247 20.5697C53.3561 21.0817 54.5991 21.5238 55.8653 21.9078L64.6476 24.6652C65.5654 24.9561 66.727 25.34 68.1327 25.8287C69.5964 26.3522 70.9788 27.0852 72.2334 28.0044C73.5577 28.9701 74.6962 30.2615 75.6372 31.8555C76.5781 33.4495 77.0544 35.4856 77.0544 37.9638C77.066 40.1977 76.6362 42.4083 75.7882 44.4676C74.9518 46.5154 73.7088 48.3653 72.1289 49.9127C70.5374 51.4834 68.5974 52.7516 66.3205 53.694C64.0436 54.6365 61.4762 55.1135 58.6301 55.1135C57.6194 55.1135 56.725 55.1019 55.9466 55.0786C55.2148 55.0553 54.4945 54.9972 53.7743 54.8924C53.1005 54.7994 52.4151 54.683 51.7413 54.5667C50.9862 54.427 50.2311 54.2409 49.4993 54.0198C48.5351 53.729 47.4896 53.3915 46.3744 53.0076C45.2591 52.6236 44.2949 52.4259 43.4701 52.4259C42.7499 52.4259 42.2504 52.5655 41.9832 52.8563C41.6811 53.2054 41.4488 53.5893 41.2978 54.0198H40.2058L40.2174 38.4175Z" fill="white"/>
<path d="M0.952581 84.5146C1.3127 84.9916 1.85869 85.2243 2.60217 85.2243C2.85774 85.2243 3.11331 85.1778 3.34565 85.0731C3.57799 84.9684 3.77547 84.8055 3.91487 84.6077C4.06589 84.375 4.14721 84.0958 4.13559 83.8165C4.13559 83.5489 4.05428 83.293 3.89164 83.0835C3.71739 82.8625 3.49667 82.6647 3.25271 82.5134C2.98553 82.3389 2.61379 82.1411 2.1375 81.8968C1.75414 81.699 1.3824 81.4779 1.0339 81.2336C0.743477 81.0358 0.499524 80.7798 0.313655 80.489C0.127785 80.1865 0.0348505 79.8374 0.0348505 79.4767C0.0232337 79.0928 0.139402 78.7205 0.360122 78.4063C0.580842 78.1038 0.871263 77.8828 1.21977 77.7432C1.59151 77.5919 1.98648 77.5221 2.39307 77.5221C2.61379 77.5221 2.83451 77.5454 3.05523 77.5803C3.21786 77.6152 3.36888 77.6733 3.5199 77.7432C3.6593 77.813 3.78709 77.8944 3.91487 77.9875C4.04266 78.0806 4.19368 78.1387 4.3447 78.162C4.42601 78.162 4.49572 78.1038 4.51895 78.0224C4.56542 77.8828 4.60027 77.7432 4.61188 77.6035H4.9023C4.85584 78.0457 4.84422 78.8136 4.84422 79.9072H4.5538C4.53057 79.5349 4.43763 79.1859 4.28661 78.8485C4.13559 78.5343 3.90326 78.2551 3.61284 78.0573C3.28756 77.8479 2.90421 77.7432 2.50924 77.7548C2.24205 77.7548 1.97486 77.8013 1.71929 77.9177C1.49857 78.0108 1.3127 78.162 1.1733 78.3598C1.04552 78.546 0.975814 78.767 0.975814 78.9997C0.964197 79.3371 1.09198 79.6629 1.34755 79.8956C1.61474 80.1399 1.91678 80.3377 2.23043 80.5122C2.57894 80.6984 2.81127 80.8264 2.95068 80.9078C3.3805 81.1289 3.79871 81.3732 4.20529 81.6525C4.50733 81.8502 4.7629 82.1062 4.96039 82.3971C5.14626 82.6879 5.25081 83.0254 5.23919 83.3628C5.25081 83.7816 5.13464 84.1888 4.9023 84.5263C4.66997 84.852 4.3447 85.0964 3.97296 85.2476C3.56637 85.4105 3.12493 85.4919 2.67187 85.4919C2.33498 85.5036 2.00971 85.457 1.68444 85.364C1.42887 85.2825 1.18492 85.1662 0.964197 85.0265C0.836412 84.9335 0.69701 84.8753 0.534374 84.852C0.453057 84.852 0.383356 84.9102 0.360122 84.98C0.302038 85.1196 0.278804 85.2592 0.267187 85.3989H0C0.0348505 84.9916 0.0464673 84.0725 0.0464673 82.6414H0.336888C0.394972 83.4093 0.604075 84.0376 0.952581 84.5146Z" fill="white"/>
<path d="M7.03981 79.1627C7.03981 78.674 7.00496 78.1737 6.9585 77.6851C7.65551 77.7083 8.82881 77.72 10.4784 77.72C12.1396 77.72 13.3013 77.7083 13.9983 77.6851C13.9402 78.1737 13.9054 78.6624 13.9054 79.1627C13.9054 79.5932 13.917 79.9422 13.9402 80.1865H13.6498C13.6266 79.7328 13.5452 79.2907 13.4175 78.8485C13.3361 78.5693 13.1387 78.325 12.8947 78.1737C12.6507 78.0341 12.3022 77.9643 11.8492 77.9643H11.0476V83.8399C11.036 84.0958 11.0709 84.3518 11.1406 84.5961C11.1986 84.759 11.3264 84.8754 11.4891 84.9336C11.7562 85.015 12.0234 85.0499 12.3022 85.0499V85.3059C11.8724 85.2826 11.2567 85.271 10.4668 85.271C9.64198 85.271 9.02629 85.2826 8.6197 85.3059V85.0499C8.89851 85.0499 9.16569 85.015 9.43288 84.9336C9.59552 84.8754 9.7233 84.759 9.78139 84.5961C9.8627 84.3518 9.89756 84.0958 9.87432 83.8399V77.9759H9.08438C8.63132 77.9759 8.28282 78.0457 8.05048 78.1854C7.79491 78.3366 7.60904 78.5809 7.52772 78.8602C7.39994 79.2907 7.31862 79.7444 7.29538 80.1982H7.00496C7.0282 79.9189 7.03981 79.5815 7.03981 79.1627Z" fill="white"/>
<path d="M22.3159 78.0574C22.1765 78.1272 22.072 78.2552 22.0255 78.4064C21.9674 78.6391 21.9325 78.8834 21.9442 79.1278V81.8969C21.9558 82.3855 21.9093 82.8858 21.828 83.3629C21.7583 83.7352 21.6305 84.0958 21.433 84.4216C21.2239 84.7474 20.9219 85.015 20.5618 85.1779C20.1552 85.3757 19.7137 85.4688 19.2723 85.4571C18.4243 85.4571 17.7621 85.271 17.2974 84.9103C17.0651 84.7125 16.8676 84.4682 16.7282 84.2006C16.5888 83.9213 16.4959 83.6072 16.4494 83.293C16.3913 82.8393 16.3681 82.3855 16.3681 81.9201V78.9998C16.3797 78.7671 16.3565 78.5344 16.2868 78.3133C16.2403 78.1737 16.1358 78.069 16.008 78.0225C15.7989 77.9527 15.5781 77.9294 15.3574 77.9294V77.6851C15.7059 77.7083 16.2403 77.72 16.9605 77.72C17.6343 77.72 18.1571 77.7083 18.5521 77.6851V77.941C18.3313 77.941 18.1106 77.9759 17.9015 78.0341C17.7737 78.0806 17.6692 78.197 17.6227 78.325C17.5646 78.546 17.5414 78.7787 17.5414 79.0114V82.1528C17.5298 82.6648 17.5762 83.1767 17.6692 83.6886C17.7389 84.0609 17.9247 84.41 18.2035 84.6659C18.4707 84.9103 18.8773 85.0383 19.4001 85.0383C20.2365 85.0383 20.829 84.7707 21.1658 84.2471C21.5027 83.7235 21.677 82.9905 21.677 82.0481V79.1394C21.6886 78.8951 21.6537 78.6624 21.5724 78.4297C21.5027 78.2668 21.3866 78.1388 21.2239 78.069C21.0032 77.9876 20.7709 77.941 20.5385 77.941V77.6851C20.8406 77.7083 21.2588 77.72 21.8164 77.72C22.3159 77.72 22.6993 77.7083 22.9781 77.6851V77.941C22.7341 77.941 22.5134 77.9759 22.3159 78.0574Z" fill="white"/>
<path d="M31.2957 85.0498V85.3058C30.9588 85.2825 30.5058 85.2709 29.9598 85.2709C29.2396 85.2709 28.7052 85.2825 28.3567 85.3058V85.0498C28.589 85.0498 28.8213 85.0149 29.0421 84.9335C29.1815 84.8753 29.2628 84.7357 29.2512 84.596C29.2396 84.3866 29.1815 84.1888 29.0769 84.0027L28.4496 82.5832H25.3944L24.9762 83.514C24.86 83.77 24.7903 84.0376 24.7671 84.3168C24.7671 84.7589 25.0923 85.0033 25.7429 85.0614V85.3174C25.4989 85.2941 25.1156 85.2825 24.6044 85.2825C24.0933 85.2825 23.7332 85.2941 23.5125 85.3174V85.0614C23.7448 85.0033 23.9423 84.8636 24.0817 84.6775C24.2675 84.4448 24.4186 84.1772 24.5347 83.898L27.2995 77.6384H27.497L30.4245 84.2586C30.6568 84.7706 30.9472 85.0265 31.2957 85.0498ZM26.9278 79.1393L25.5105 82.3273H28.3451L26.9278 79.1393Z" fill="white"/>
<path d="M39.2416 85.2941C39.0209 85.4221 38.7653 85.4803 38.5098 85.4687C37.8128 85.4687 37.3829 85.1545 37.2203 84.5146L36.8369 82.9439C36.7789 82.6763 36.6743 82.432 36.5233 82.2109C36.3955 82.048 36.2329 81.9317 36.0354 81.8619C35.7914 81.7921 35.5475 81.7572 35.2919 81.7688H34.5833V83.9561C34.5717 84.1888 34.5949 84.4215 34.6646 84.6426C34.7111 84.7822 34.8156 84.8869 34.9434 84.9335C35.1525 85.0033 35.3732 85.0265 35.5939 85.0265V85.2825C35.2106 85.2592 34.6762 85.2476 34.0024 85.2476C33.2822 85.2476 32.7478 85.2592 32.3993 85.2825V85.0265C32.62 85.0265 32.8408 84.9916 33.0499 84.9335C33.1893 84.8869 33.2822 84.7706 33.3287 84.6426C33.3867 84.4215 33.41 84.1888 33.41 83.9561V78.9997C33.4216 78.767 33.3984 78.5343 33.3287 78.3133C33.2822 78.1736 33.1776 78.0689 33.0499 78.0224C32.8408 77.9642 32.6084 77.9293 32.3877 77.9293V77.6733C32.7362 77.6966 33.2473 77.7082 33.9095 77.7082C34.2115 77.7082 34.5484 77.7082 34.9202 77.6966C35.2919 77.685 35.5359 77.685 35.6753 77.685C36.2096 77.6733 36.7556 77.7548 37.2552 77.9293C37.6385 78.0573 37.9754 78.29 38.231 78.6041C38.4517 78.8834 38.5562 79.2208 38.5562 79.5815C38.5562 79.8956 38.4749 80.1981 38.3239 80.4773C38.138 80.8031 37.8592 81.0591 37.534 81.2336C37.0809 81.4779 36.5814 81.6292 36.0702 81.6757C36.2213 81.6874 36.3607 81.699 36.5001 81.7223C36.8834 81.7688 37.2435 81.9084 37.5572 82.1295C37.8128 82.3273 37.9986 82.653 38.1032 83.0952L38.382 84.2354C38.4285 84.4564 38.4982 84.6659 38.6027 84.852C38.6608 84.9684 38.777 85.0382 38.9047 85.0382C39.1138 85.0382 39.3462 84.8986 39.5901 84.6077L39.7644 84.7706C39.6482 84.98 39.4507 85.1662 39.2416 85.2941ZM36.593 81.3034C36.8602 81.1754 37.0577 80.9544 37.1738 80.6751C37.29 80.3726 37.3365 80.0468 37.3365 79.7211C37.3365 79.1161 37.1854 78.6623 36.8834 78.3714C36.5814 78.0806 36.0819 77.9293 35.3848 77.9293C35.2106 77.9177 35.0363 77.9526 34.8853 78.0224C34.7691 78.0922 34.6878 78.2085 34.653 78.3365C34.6065 78.5576 34.5833 78.7786 34.5833 79.0113V81.5361H35.4313C35.9192 81.5361 36.3142 81.4547 36.593 81.3034Z" fill="white"/>
<path d="M40.7519 79.1627C40.7519 78.674 40.717 78.1737 40.6589 77.6851C41.3559 77.7083 42.5292 77.72 44.1788 77.72C45.84 77.72 47.0017 77.7083 47.6987 77.6851C47.6407 78.1737 47.6058 78.6624 47.6058 79.1627C47.6058 79.5932 47.6174 79.9422 47.6407 80.1865H47.3502C47.327 79.7328 47.2457 79.2907 47.1179 78.8485C47.0366 78.5693 46.8391 78.325 46.5951 78.1737C46.3512 78.0341 46.0027 77.9643 45.5496 77.9643H44.7597V83.8399C44.7481 84.0958 44.7829 84.3518 44.8526 84.5961C44.9107 84.759 45.0501 84.8754 45.2011 84.9336C45.4683 85.015 45.7355 85.0499 46.0143 85.0499V85.3059C45.5845 85.2826 44.9688 85.271 44.1788 85.271C43.3424 85.271 42.7267 85.2826 42.3318 85.3059V85.0499C42.6106 85.0499 42.8778 85.015 43.1449 84.9336C43.3076 84.887 43.4354 84.759 43.4934 84.5961C43.5748 84.3518 43.6096 84.0958 43.5864 83.8399V77.9759H42.7848C42.3318 77.9759 41.9833 78.0457 41.7509 78.1854C41.4953 78.3366 41.3095 78.5809 41.2282 78.8602C41.1004 79.2907 41.0191 79.7444 40.9842 80.1865H40.6938C40.7403 79.9189 40.7519 79.5815 40.7519 79.1627Z" fill="white"/>
<path d="M55.2729 78.0341C55.1335 78.0806 55.0406 78.197 54.9941 78.325C54.9361 78.546 54.9128 78.7787 54.9128 79.0114V83.9679C54.9012 84.2006 54.9244 84.4333 54.9941 84.6543C55.0406 84.7823 55.1452 84.8986 55.2729 84.9336C55.4821 84.9917 55.7028 85.015 55.9235 85.0034H56.7134C57.2943 85.0034 57.7357 84.8288 58.061 84.4914C58.3746 84.154 58.5721 83.5839 58.6418 82.7811H58.9323C58.909 83.0371 58.8974 83.3861 58.8974 83.805C58.8974 84.2936 58.9323 84.7939 58.9787 85.2826C58.4327 85.2593 57.5266 85.2477 56.2371 85.2477C54.7037 85.2477 53.5304 85.2593 52.7405 85.2826V85.0266C52.9612 85.0266 53.1819 84.9917 53.391 84.9336C53.5304 84.887 53.6234 84.7707 53.6698 84.6427C53.7279 84.4216 53.7511 84.1889 53.7511 83.9562V78.9998C53.7628 78.7671 53.7395 78.5344 53.6698 78.3133C53.6234 78.1737 53.5188 78.069 53.391 78.0225C53.1819 77.9527 52.9612 77.9294 52.7405 77.9294V77.6851C53.089 77.7083 53.6234 77.72 54.3436 77.72C55.0174 77.72 55.5518 77.7083 55.9351 77.6851V77.941C55.7028 77.941 55.4937 77.9759 55.2729 78.0341Z" fill="white"/>
<path d="M66.2972 77.9759C66.8664 78.2784 67.3427 78.7438 67.6447 79.3139C67.9584 79.8956 68.121 80.6054 68.121 81.4198C68.1326 82.1528 67.9584 82.8858 67.6215 83.5373C67.3078 84.1307 66.8315 84.631 66.2507 84.9684C65.6466 85.3175 64.9612 85.492 64.2526 85.4804C63.5556 85.492 62.8586 85.3407 62.2313 85.015C61.662 84.7125 61.1974 84.2471 60.8953 83.677C60.5817 83.0836 60.419 82.3855 60.419 81.5711C60.4074 80.8381 60.5701 80.1051 60.9069 79.4535C61.2206 78.8601 61.6853 78.3599 62.2661 78.0224C62.8702 77.6734 63.5556 77.4989 64.2526 77.5105C64.9728 77.4989 65.6699 77.6501 66.2972 77.9759ZM62.8818 78.2086C62.4752 78.5693 62.1616 79.0347 61.9873 79.5466C61.7666 80.1749 61.662 80.8497 61.6737 81.5129C61.662 82.1877 61.7782 82.8509 62.0222 83.4792C62.2197 83.9911 62.5449 84.4449 62.9747 84.7823C63.3581 85.0848 63.8228 85.2477 64.3107 85.236C64.7986 85.2477 65.2749 85.0731 65.6582 84.759C66.0764 84.3983 66.3785 83.9329 66.5527 83.421C66.7735 82.7927 66.878 82.1295 66.8664 81.4663C66.878 80.7915 66.7618 80.1283 66.5179 79.5001C66.3204 78.9881 65.9951 78.5344 65.5653 78.197C65.1819 77.8945 64.7173 77.7316 64.2294 77.7432C63.7415 77.7316 63.2652 77.8945 62.8818 78.2086Z" fill="white"/>
<path d="M76.0786 84.538C75.9857 84.5496 75.8927 84.5962 75.823 84.6543C75.5442 84.8987 75.2306 85.0965 74.8937 85.2593C74.5452 85.4106 74.1734 85.4804 73.8017 85.4688C73.1163 85.4804 72.4542 85.3175 71.8501 85.0034C71.2925 84.7009 70.8394 84.2355 70.549 83.677C70.2353 83.0836 70.0843 82.3855 70.0843 81.5711C70.0727 80.8381 70.2353 80.1051 70.5606 79.4536C70.851 78.8602 71.3157 78.3599 71.8849 78.0225C72.4658 77.6734 73.1396 77.4989 73.8133 77.5106C74.0689 77.5106 74.3245 77.5455 74.5684 77.6153C74.7775 77.6851 74.9866 77.7782 75.1725 77.8945C75.37 78.0225 75.5559 78.1737 75.7417 78.325C75.8114 78.3832 75.8927 78.4297 75.9857 78.4413C76.1599 78.4413 76.2645 78.1854 76.2993 77.6851H76.5897C76.5549 78.1621 76.5317 79.0464 76.5317 80.3145H76.2412C76.1832 79.9888 76.1018 79.663 75.9973 79.3489C75.9044 79.1162 75.7766 78.9067 75.6256 78.7089C75.4048 78.4064 75.1144 78.1737 74.7891 77.9992C74.4755 77.8363 74.127 77.7549 73.7669 77.7549C73.3022 77.7433 72.8491 77.9061 72.489 78.2086C72.094 78.5577 71.8036 79.0114 71.641 79.5117C71.4319 80.1633 71.3273 80.8381 71.3389 81.5129C71.3273 82.1994 71.4319 82.8742 71.6758 83.5258C71.8501 84.0261 72.1637 84.4565 72.5819 84.794C72.9537 85.0732 73.3951 85.2244 73.8598 85.2244C74.2315 85.2244 74.5917 85.143 74.9169 84.9801C75.2538 84.8172 75.5442 84.5729 75.7533 84.2704C75.916 84.061 76.0321 83.8283 76.1135 83.5839C76.218 83.2465 76.2877 82.8858 76.3342 82.5368H76.6246C76.6246 83.8515 76.6362 84.7707 76.6711 85.2942H76.3806C76.3458 84.7939 76.2412 84.538 76.0786 84.538Z" fill="white"/>
<path d="M86.1039 78.0341C85.9762 78.0806 85.8716 78.1969 85.8251 78.3249C85.7671 78.546 85.7438 78.7787 85.7438 79.0114V83.9678C85.7322 84.2005 85.7554 84.4332 85.8251 84.6543C85.8716 84.7939 85.9762 84.8986 86.1039 84.9451C86.313 85.0149 86.5338 85.0382 86.7661 85.0382V85.2942C86.4176 85.2709 85.8832 85.2593 85.163 85.2593C84.5008 85.2593 83.9664 85.2709 83.5715 85.2942V85.0382C83.7922 85.0382 84.0129 85.0033 84.2336 84.9451C84.3614 84.8986 84.466 84.7823 84.5124 84.6543C84.5705 84.4332 84.5938 84.2005 84.5938 83.9678V81.478H80.7834V83.9678C80.7718 84.2005 80.795 84.4332 80.8647 84.6543C80.9112 84.7939 81.0158 84.8986 81.1436 84.9451C81.3527 85.0149 81.5734 85.0382 81.8057 85.0382V85.2942C81.4224 85.2709 80.8996 85.2593 80.2142 85.2593C79.494 85.2593 78.9596 85.2709 78.6111 85.2942V85.0382C78.8318 85.0382 79.0525 85.0033 79.2732 84.9451C79.401 84.8986 79.5056 84.7823 79.552 84.6543C79.6101 84.4332 79.6334 84.2005 79.6334 83.9678V79.0114C79.645 78.7787 79.6217 78.546 79.552 78.3249C79.5056 78.1853 79.401 78.0806 79.2732 78.0341C79.0641 77.9643 78.8434 77.941 78.6111 77.941V77.6967C78.9596 77.7199 79.494 77.7316 80.2142 77.7316C80.888 77.7316 81.4224 77.7199 81.8057 77.6967V77.9526C81.585 77.9526 81.3643 77.9875 81.1436 78.0457C81.0158 78.0922 80.9112 78.2086 80.8647 78.3366C80.8067 78.5576 80.7834 78.7903 80.7834 79.023V81.2336H84.5938V79.023C84.6054 78.7903 84.5821 78.5576 84.5124 78.3366C84.466 78.197 84.3614 78.0922 84.2336 78.0457C84.0245 77.9759 83.8038 77.9526 83.5715 77.9526V77.6967C83.9548 77.7199 84.4892 77.7316 85.163 77.7316C85.8832 77.7316 86.4176 77.7199 86.7661 77.6967V77.9526C86.5338 77.941 86.313 77.9643 86.1039 78.0341Z" fill="white"/>
<path d="M95.9434 78.0341C95.804 78.0806 95.7111 78.1969 95.6646 78.3249C95.6066 78.546 95.5833 78.7787 95.5833 79.0114V83.9678C95.5717 84.2005 95.5949 84.4332 95.6646 84.6543C95.7111 84.7939 95.8157 84.8986 95.9434 84.9451C96.1525 85.0149 96.3733 85.0382 96.6056 85.0382V85.2942C96.2571 85.2709 95.7227 85.2593 95.0025 85.2593C94.3403 85.2593 93.8059 85.2709 93.411 85.2942V85.0382C93.6317 85.0382 93.8524 85.0033 94.0731 84.9451C94.2125 84.8986 94.3055 84.7823 94.3519 84.6543C94.41 84.4332 94.4333 84.2005 94.4333 83.9678V81.478H90.6113V83.9678C90.5997 84.2005 90.6229 84.4332 90.6926 84.6543C90.7391 84.7939 90.8436 84.8986 90.9714 84.9451C91.1805 85.0149 91.4013 85.0382 91.6336 85.0382V85.2942C91.2502 85.2709 90.7159 85.2593 90.0421 85.2593C89.3218 85.2593 88.7875 85.2709 88.439 85.2942V85.0382C88.6597 85.0382 88.8804 85.0033 89.1011 84.9451C89.2289 84.8986 89.3335 84.7823 89.3799 84.6543C89.438 84.4332 89.4612 84.2005 89.4612 83.9678V79.0114C89.4729 78.7787 89.4496 78.546 89.3799 78.3249C89.3335 78.1853 89.2289 78.0806 89.1011 78.0341C88.892 77.9643 88.6713 77.941 88.439 77.941V77.6967C88.7875 77.7199 89.3218 77.7316 90.0421 77.7316C90.7159 77.7316 91.2502 77.7199 91.6336 77.6967V77.9526C91.4129 77.9526 91.1922 77.9875 90.9714 78.0457C90.832 78.0922 90.7391 78.2086 90.6926 78.3366C90.6345 78.5576 90.6113 78.7903 90.6113 79.023V81.2336H94.4216V79.023C94.4333 78.7903 94.41 78.5576 94.3403 78.3366C94.2938 78.197 94.1893 78.0922 94.0615 78.0457C93.8524 77.9759 93.6317 77.9526 93.3994 77.9526V77.6967C93.7943 77.7199 94.3171 77.7316 94.9909 77.7316C95.7111 77.7316 96.2455 77.7199 96.594 77.6967V77.9526C96.3733 77.941 96.1525 77.9643 95.9434 78.0341Z" fill="white"/>
<path d="M104.424 83.8166C104.424 84.3052 104.459 84.8055 104.505 85.2942C103.959 85.2709 103.053 85.2593 101.764 85.2593C100.23 85.2593 99.0568 85.2709 98.2668 85.2942V85.0382C98.4876 85.0382 98.7083 85.0033 98.929 84.9451C99.0568 84.8986 99.1613 84.7823 99.2078 84.6543C99.2659 84.4332 99.2891 84.2005 99.2891 83.9678V79.0114C99.3007 78.7787 99.2775 78.546 99.2078 78.3249C99.1613 78.1853 99.0568 78.0806 98.929 78.0341C98.7199 77.9643 98.4992 77.941 98.2668 77.941V77.6967C99.0568 77.7199 100.23 77.7316 101.764 77.7316C102.937 77.7316 103.762 77.7199 104.25 77.6967C104.191 78.1504 104.168 78.5925 104.168 79.0463C104.168 79.3023 104.18 79.5699 104.203 79.8258H103.913C103.889 79.4535 103.808 79.0812 103.68 78.7321C103.587 78.4878 103.425 78.29 103.192 78.162C102.937 78.0341 102.646 77.9759 102.356 77.9875H101.438C101.218 77.9759 100.997 77.9992 100.776 78.0573C100.648 78.1039 100.544 78.2086 100.497 78.3366C100.439 78.5576 100.416 78.7903 100.416 79.023V81.35H101.45C101.671 81.3616 101.891 81.2918 102.066 81.1406C102.205 81.0242 102.298 80.8613 102.356 80.6868C102.414 80.4774 102.461 80.2796 102.495 80.0702H102.786C102.763 80.3959 102.739 80.7101 102.739 81.0009V81.4663C102.739 81.8037 102.763 82.2691 102.821 82.8741H102.53C102.507 82.6531 102.461 82.432 102.391 82.2226C102.333 82.0481 102.228 81.8852 102.077 81.7805C101.891 81.6525 101.671 81.5943 101.45 81.6059H100.416V83.9795C100.404 84.2121 100.428 84.4448 100.497 84.6659C100.544 84.7939 100.648 84.9102 100.776 84.9451C100.985 85.0033 101.206 85.0266 101.438 85.0149H102.356C102.693 85.0266 103.03 84.9568 103.343 84.8172C103.599 84.6775 103.796 84.4448 103.901 84.1656C104.052 83.77 104.133 83.3512 104.168 82.9207H104.459C104.435 83.2116 104.424 83.5141 104.424 83.8166Z" fill="white"/>
<path d="M113.566 85.0499V85.3058C113.229 85.2826 112.776 85.2709 112.23 85.2709C111.51 85.2709 110.976 85.2826 110.627 85.3058V85.0499C110.859 85.0499 111.092 85.015 111.312 84.9335C111.452 84.8754 111.533 84.7357 111.522 84.5961C111.51 84.3867 111.452 84.1889 111.347 84.0028L110.72 82.5833H107.665L107.247 83.5141C107.13 83.7701 107.061 84.0377 107.037 84.3169C107.037 84.759 107.363 85.0033 108.013 85.0615V85.3175C107.769 85.2942 107.386 85.2826 106.875 85.2826C106.364 85.2826 106.004 85.2942 105.794 85.3175V85.0615C106.027 85.0033 106.224 84.8637 106.364 84.6776C106.55 84.4449 106.701 84.1773 106.817 83.898L109.582 77.6501H109.779L112.706 84.2704C112.927 84.7707 113.218 85.0266 113.566 85.0499ZM109.198 79.1394L107.769 82.3273H110.604L109.198 79.1394Z" fill="white"/>
<path d="M115.89 77.7316H116.192C117.342 77.7083 117.969 77.6967 118.074 77.6967C119.375 77.6967 120.35 78.0108 121.001 78.6391C121.652 79.2674 121.977 80.1865 121.977 81.3966C121.988 82.1179 121.826 82.816 121.501 83.4559C121.187 84.0377 120.711 84.5147 120.13 84.8172C119.526 85.143 118.805 85.3059 117.957 85.3059C117.841 85.3059 117.574 85.3059 117.144 85.2826C116.714 85.2593 116.401 85.2593 116.203 85.2593C115.518 85.2593 115.007 85.271 114.658 85.2942V85.0383C114.879 85.0383 115.1 85.0034 115.32 84.9452C115.46 84.8986 115.553 84.7823 115.599 84.6543C115.657 84.4333 115.68 84.2006 115.68 83.9679V79.0114C115.692 78.7787 115.669 78.546 115.599 78.325C115.553 78.1854 115.448 78.0806 115.32 78.0341C115.111 77.9759 114.879 77.941 114.658 77.941V77.6851C115.123 77.72 115.529 77.7316 115.89 77.7316ZM116.912 84.6776C116.958 84.8172 117.051 84.9336 117.179 84.9917C117.365 85.0615 117.574 85.0848 117.772 85.0848C118.527 85.0848 119.119 84.9452 119.561 84.6776C120.002 84.3983 120.316 83.9795 120.478 83.4792C120.652 82.9556 120.745 82.2808 120.745 81.4547C120.745 80.6403 120.652 79.9771 120.467 79.4652C120.304 78.9765 119.967 78.5693 119.526 78.3133C119.096 78.0574 118.503 77.9294 117.772 77.9294C117.574 77.9178 117.377 77.9527 117.191 78.0225C117.063 78.0806 116.958 78.197 116.923 78.3366C116.865 78.5577 116.842 78.7904 116.854 79.0114V84.0144C116.831 84.2238 116.854 84.4449 116.912 84.6776Z" fill="white"/>
<path d="M29.3673 98.1274C29.6926 98.5579 30.1921 98.7673 30.8543 98.7673C31.0866 98.7673 31.3189 98.7208 31.528 98.6277C31.7371 98.5347 31.9114 98.395 32.0392 98.1972C32.1786 97.9878 32.2483 97.7319 32.2367 97.4759C32.2367 97.2316 32.167 96.9989 32.016 96.8127C31.8533 96.6033 31.6558 96.4288 31.4351 96.3008C31.2028 96.1495 30.8659 95.9634 30.4361 95.7423C30.0876 95.5678 29.7623 95.37 29.437 95.1489C29.1814 94.9628 28.9607 94.7417 28.7865 94.4741C28.6238 94.2065 28.5309 93.8807 28.5425 93.5666C28.5309 93.2175 28.6355 92.8801 28.8329 92.6009C29.0304 92.3333 29.2976 92.1239 29.6113 91.9959C30.134 91.7865 30.7033 91.7399 31.2609 91.8563C31.4003 91.8912 31.5397 91.9377 31.6791 91.9959C31.8069 92.0657 31.923 92.1355 32.0392 92.217C32.1554 92.2984 32.2831 92.3566 32.4225 92.3798C32.4922 92.3798 32.5619 92.3333 32.5852 92.2635C32.6316 92.1471 32.6665 92.0192 32.6781 91.8795H32.9337C32.8988 92.2751 32.8756 92.9616 32.8756 93.9505H32.62C32.5968 93.6248 32.5155 93.299 32.3645 92.9965C32.2367 92.7056 32.0276 92.4613 31.7604 92.2868C31.47 92.1006 31.1215 92.0075 30.773 92.0192C30.529 92.0192 30.285 92.0657 30.0643 92.1704C29.8668 92.2519 29.7042 92.3915 29.5764 92.566C29.4603 92.7289 29.4022 92.9383 29.4022 93.1361C29.3906 93.4386 29.5067 93.7295 29.7391 93.9389C29.983 94.16 30.2502 94.3461 30.5406 94.4974C30.8543 94.6603 31.0634 94.7882 31.1912 94.8581C31.5745 95.0558 31.9579 95.2769 32.318 95.5212C32.5852 95.7074 32.8175 95.9285 33.0034 96.1961C33.1776 96.452 33.2706 96.7545 33.259 97.0687C33.2706 97.441 33.166 97.8133 32.9569 98.1158C32.7478 98.4067 32.4574 98.6277 32.1205 98.7673C31.7488 98.9186 31.3538 98.9884 30.9472 98.9884C30.6452 99 30.3547 98.9535 30.0643 98.8721C29.832 98.8023 29.6229 98.6975 29.4138 98.5696C29.2976 98.4881 29.1698 98.4299 29.0304 98.4067C28.9607 98.4067 28.891 98.4532 28.8678 98.523C28.8213 98.6394 28.7865 98.7674 28.7749 98.8953H28.5193C28.5541 98.523 28.5658 97.6969 28.5658 96.4171H28.8213C28.8562 97.1385 29.0537 97.6969 29.3673 98.1274Z" fill="white"/>
<path d="M40.4033 98.1622C40.322 98.1739 40.2407 98.2088 40.1826 98.2786C39.927 98.4996 39.6482 98.6742 39.3462 98.8254C39.0325 98.9534 38.6957 99.0232 38.3588 99.0116C37.7431 99.0232 37.139 98.8836 36.6046 98.5927C36.1051 98.3135 35.6985 97.8946 35.4313 97.3827C35.1409 96.7893 35.0015 96.1378 35.0131 95.4862C35.0015 94.823 35.1525 94.1715 35.4429 93.5781C35.7101 93.0429 36.1283 92.6008 36.6279 92.2867C37.1506 91.9725 37.7547 91.8213 38.3588 91.8329C38.5911 91.8329 38.8234 91.8678 39.0442 91.926C39.23 91.9841 39.4159 92.0656 39.5785 92.1819C39.7528 92.2983 39.927 92.4263 40.0897 92.5659C40.1478 92.6241 40.2291 92.6706 40.3104 92.6822C40.4614 92.6822 40.566 92.4495 40.6008 91.9958H40.868C40.8332 92.4263 40.8215 93.2174 40.8215 94.3693H40.5544C40.5079 94.0784 40.4382 93.7875 40.3336 93.4967C40.2523 93.2872 40.1361 93.0895 39.9967 92.9149C39.7993 92.6473 39.5437 92.4263 39.2416 92.275C38.9512 92.1354 38.6376 92.054 38.3239 92.054C37.9057 92.0423 37.4875 92.1936 37.1622 92.4612C36.8021 92.7753 36.5349 93.1825 36.3955 93.6363C36.2097 94.218 36.1167 94.8347 36.1283 95.4397C36.1167 96.0563 36.2097 96.673 36.4304 97.2547C36.593 97.7085 36.8718 98.0924 37.2436 98.3949C37.5688 98.6509 37.9754 98.7905 38.3936 98.7789C38.7305 98.7789 39.0558 98.7091 39.3462 98.5578C39.6482 98.4066 39.9154 98.1971 40.1129 97.9179C40.2523 97.7317 40.3685 97.5223 40.4382 97.3013C40.5311 96.9988 40.5892 96.6846 40.6357 96.3588H40.9029C40.9029 97.5456 40.9145 98.3717 40.9493 98.8487H40.6938C40.6473 98.3833 40.5544 98.1622 40.4033 98.1622Z" fill="white"/>
<path d="M48.756 92.3217C48.6282 92.3915 48.5352 92.4962 48.5004 92.6358C48.4423 92.8452 48.4191 93.0663 48.4307 93.2874V95.7772C48.4307 96.2193 48.3958 96.6614 48.3261 97.1036C48.2681 97.441 48.1519 97.7668 47.9776 98.0576C47.7801 98.3601 47.513 98.5928 47.1877 98.7441C46.8276 98.9186 46.4326 99 46.026 99C45.2593 99 44.6668 98.8372 44.2486 98.4997C44.0395 98.3136 43.8653 98.1042 43.7375 97.8598C43.6097 97.6039 43.5284 97.3246 43.4935 97.0454C43.4355 96.6382 43.4122 96.231 43.4238 95.8121V93.171C43.4354 92.9616 43.4122 92.7522 43.3541 92.5544C43.3193 92.438 43.2263 92.3333 43.0986 92.2868C42.9127 92.2286 42.7036 92.1937 42.5061 92.1937V91.9843C42.8314 92.0075 43.3077 92.0192 43.9466 92.0192C44.5507 92.0192 45.027 92.0075 45.3755 91.9843V92.2053C45.178 92.2053 44.9805 92.2286 44.783 92.2984C44.6668 92.3449 44.5739 92.438 44.5274 92.566C44.4693 92.7638 44.4461 92.9732 44.4577 93.1826V96.0215C44.4461 96.4869 44.4926 96.9523 44.5739 97.4061C44.632 97.7435 44.8062 98.046 45.0502 98.2787C45.2941 98.4997 45.6543 98.6161 46.1306 98.6161C46.8857 98.6161 47.42 98.3834 47.7221 97.9064C48.0241 97.4293 48.1751 96.7662 48.1751 95.9168V93.2874C48.1867 93.0663 48.1519 92.8569 48.0822 92.6474C48.0241 92.5078 47.9079 92.3798 47.7685 92.3217C47.571 92.2402 47.3619 92.2053 47.1528 92.2053V91.9843C47.42 92.0075 47.8034 92.0192 48.3029 92.0192C48.756 92.0192 49.1045 92.0075 49.3484 91.9843V92.2053C49.1393 92.2053 48.9418 92.2402 48.756 92.3217Z" fill="white"/>
<path d="M52.9379 92.2984C52.8218 92.3449 52.7288 92.438 52.6824 92.566C52.6243 92.7638 52.601 92.9732 52.6127 93.1826V97.6504C52.601 97.8598 52.6243 98.0693 52.6824 98.2671C52.7172 98.3834 52.8101 98.4881 52.9379 98.523C53.1354 98.5812 53.3329 98.5928 53.5304 98.5928H54.239C54.7618 98.5928 55.1684 98.4416 55.4472 98.1274C55.7376 97.8249 55.9118 97.313 55.9699 96.5916H56.2255C56.2023 96.8243 56.1906 97.1385 56.1906 97.5224C56.1906 97.9645 56.2139 98.4183 56.272 98.8604C55.7841 98.8372 54.9593 98.8255 53.7976 98.8255C52.4152 98.8255 51.358 98.8372 50.6494 98.8604V98.6161C50.8469 98.6161 51.0444 98.5928 51.2419 98.523C51.358 98.4765 51.451 98.3834 51.4974 98.2554C51.5555 98.0576 51.5788 97.8482 51.5671 97.6388V93.171C51.5788 92.9616 51.5555 92.7522 51.4974 92.5544C51.4626 92.438 51.3697 92.3333 51.2419 92.2868C51.056 92.2286 50.8469 92.1937 50.6494 92.1937V91.9843C50.9631 92.0075 51.4394 92.0192 52.0899 92.0192C52.694 92.0192 53.1703 92.0075 53.5188 91.9843V92.2053C53.3329 92.2053 53.1238 92.2402 52.9379 92.2984Z" fill="white"/>
<path d="M59.6408 97.6504C59.6292 97.8598 59.6525 98.0693 59.7105 98.2671C59.7454 98.3834 59.8383 98.4881 59.9661 98.5346C60.152 98.5928 60.3611 98.6277 60.5586 98.6277V98.8488C60.2101 98.8255 59.7338 98.8139 59.1297 98.8139C58.4792 98.8139 58.0029 98.8255 57.6892 98.8488V98.6161C57.8867 98.6161 58.0842 98.5928 58.2817 98.523C58.3978 98.4765 58.4908 98.3834 58.5372 98.2554C58.5953 98.0576 58.6186 97.8482 58.6069 97.6388V93.171C58.6186 92.9616 58.5953 92.7522 58.5372 92.5544C58.5024 92.438 58.4095 92.3333 58.2817 92.2868C58.0958 92.2286 57.8867 92.1937 57.6892 92.1937V91.9843C58.0029 92.0075 58.4559 92.0192 59.06 92.0192C59.3504 92.0192 59.6757 92.0192 60.0358 92.0075C60.3843 91.9959 60.6283 91.9959 60.7677 91.9959C61.2323 91.9843 61.697 92.0657 62.1385 92.2286C62.4753 92.3566 62.7658 92.5893 62.9749 92.8918C63.1607 93.1826 63.2653 93.5317 63.2537 93.8807C63.2537 94.2414 63.1607 94.6021 62.9865 94.9162C62.7774 95.2769 62.4637 95.5678 62.0804 95.7423C61.6506 95.9634 61.0929 96.0681 60.3959 96.0681H59.6408V97.6504ZM61.7319 95.3467C61.9991 95.0209 62.1268 94.5672 62.1268 93.9971C62.1268 93.3921 61.9991 92.9383 61.7435 92.6474C61.4879 92.3566 61.0697 92.2053 60.4772 92.2053C60.303 92.1937 60.1171 92.2286 59.9545 92.2868C59.8383 92.3449 59.7454 92.4496 59.7105 92.566C59.6641 92.7638 59.6408 92.9732 59.6408 93.171V95.8354H60.2798C60.9768 95.8354 61.4531 95.6725 61.7319 95.3467Z" fill="white"/>
<path d="M64.6128 93.3106C64.6128 92.8685 64.5896 92.4264 64.5315 91.9843C65.1588 92.0075 66.2159 92.0192 67.7029 92.0192C69.2015 92.0192 70.247 92.0075 70.8743 91.9843C70.8162 92.4264 70.793 92.8685 70.793 93.3106C70.793 93.6946 70.8046 94.0087 70.8278 94.2414H70.5722C70.549 93.8342 70.4793 93.427 70.3631 93.043C70.2818 92.7871 70.1192 92.5776 69.8869 92.438C69.6661 92.31 69.3525 92.2519 68.9459 92.2519H68.2256V97.5457C68.214 97.7784 68.2489 98.0111 68.3186 98.2321C68.3767 98.3718 68.4928 98.4881 68.6439 98.5346C68.8762 98.6045 69.1318 98.6394 69.3757 98.6277V98.8488C68.9924 98.8255 68.4348 98.8139 67.7145 98.8139C66.971 98.8139 66.4134 98.8255 66.0533 98.8488V98.6161C66.2973 98.6161 66.5528 98.5812 66.7852 98.523C66.9362 98.4765 67.0523 98.3601 67.1104 98.2205C67.1801 97.9994 67.215 97.7668 67.2034 97.5341V92.2402H66.4831C66.0765 92.2402 65.7629 92.2984 65.5538 92.4264C65.3331 92.566 65.1588 92.7754 65.0775 93.0314C64.9497 93.427 64.88 93.8226 64.8568 94.2298H64.6012C64.6012 93.9971 64.6128 93.6829 64.6128 93.3106Z" fill="white"/>
<path d="M78.3672 92.3217C78.2394 92.3915 78.1465 92.4962 78.1116 92.6358C78.0535 92.8452 78.0303 93.0663 78.0419 93.2874V95.7772C78.0535 96.2193 78.0187 96.6614 77.9374 97.1036C77.8793 97.441 77.7631 97.7668 77.5889 98.0576C77.3914 98.3601 77.1242 98.5928 76.7989 98.7441C76.4388 98.9186 76.0438 99 75.6372 99C74.8705 99 74.2781 98.8372 73.8599 98.4997C73.6507 98.3136 73.4765 98.1042 73.3487 97.8598C73.2209 97.6039 73.1396 97.3246 73.0931 97.0454C73.0351 96.6382 73.0118 96.231 73.0234 95.8121V93.171C73.0351 92.9616 73.0118 92.7522 72.9537 92.5544C72.9189 92.438 72.826 92.3333 72.6982 92.2868C72.5123 92.2286 72.3032 92.1937 72.1057 92.1937V91.9843C72.4194 92.0075 72.9073 92.0192 73.5462 92.0192C74.1503 92.0192 74.6266 92.0075 74.9751 91.9843V92.2053C74.7776 92.2053 74.5801 92.2286 74.3826 92.2984C74.2664 92.3449 74.1735 92.438 74.127 92.566C74.069 92.7638 74.0457 92.9732 74.0573 93.1826V96.0215C74.0457 96.4869 74.0922 96.9523 74.1735 97.4061C74.2316 97.7435 74.4058 98.046 74.6498 98.2787C74.8937 98.4997 75.2539 98.6161 75.7302 98.6161C76.4853 98.6161 77.0196 98.3834 77.3217 97.9064C77.6237 97.4293 77.7747 96.7662 77.7747 95.9168V93.2874C77.7863 93.0663 77.7515 92.8569 77.6818 92.6474C77.6237 92.5078 77.5075 92.3798 77.3681 92.3217C77.1707 92.2402 76.9616 92.2053 76.7524 92.2053V91.9843C77.0196 92.0075 77.403 92.0192 77.9025 92.0192C78.3556 92.0192 78.7041 92.0075 78.948 91.9843V92.2053C78.7622 92.2053 78.5531 92.2402 78.3672 92.3217Z" fill="white"/>
<path d="M86.4292 98.8372C86.2318 98.9535 85.9994 99.0117 85.7671 99C85.1398 99 84.7564 98.7092 84.6054 98.1391L84.2569 96.7313C84.2104 96.4986 84.1175 96.2659 83.9781 96.0681C83.8619 95.9168 83.7109 95.8121 83.5366 95.7539C83.3159 95.6958 83.0952 95.6609 82.8745 95.6725H82.2356V97.6504C82.224 97.8598 82.2472 98.0693 82.3053 98.2671C82.3401 98.3834 82.4331 98.4881 82.5608 98.5346C82.7583 98.5928 82.9558 98.6277 83.1533 98.6277V98.8488C82.8048 98.8255 82.3285 98.8139 81.7244 98.8139C81.0739 98.8139 80.5976 98.8255 80.2839 98.8488V98.6161C80.4814 98.6161 80.6789 98.5928 80.8764 98.523C80.9926 98.4765 81.0855 98.3834 81.132 98.2554C81.1901 98.0576 81.2133 97.8482 81.2017 97.6388V93.1594C81.2133 92.9499 81.1901 92.7405 81.132 92.5427C81.0971 92.4147 81.0042 92.3217 80.8764 92.2751C80.6789 92.2169 80.4814 92.1937 80.2839 92.1937V91.9843C80.5976 92.0075 81.0507 92.0192 81.6547 92.0192C81.9335 92.0192 82.2356 92.0192 82.5608 92.0075C82.8977 91.9959 83.1184 91.9959 83.2346 91.9959C83.7225 91.9843 84.1988 92.0541 84.6635 92.2169C85.012 92.3333 85.314 92.5427 85.5464 92.822C85.7439 93.0779 85.8484 93.3804 85.8368 93.7062C85.8368 93.9854 85.7671 94.2647 85.6277 94.509C85.4534 94.7999 85.2095 95.0326 84.9191 95.1955C84.5125 95.4165 84.0594 95.5561 83.5947 95.6027C83.7225 95.6143 83.8503 95.626 83.9781 95.6376C84.315 95.6725 84.6519 95.8005 84.9307 95.9983C85.163 96.1844 85.3256 96.4637 85.4186 96.8709L85.6625 97.8947C85.6974 98.0925 85.7671 98.2787 85.86 98.4532C85.9181 98.5579 86.0227 98.6161 86.1388 98.6161C86.3247 98.6161 86.5338 98.4881 86.7545 98.2321L86.9055 98.3834C86.7894 98.5579 86.6267 98.7208 86.4292 98.8372ZM84.0478 95.242C84.2801 95.1257 84.466 94.9279 84.5706 94.6835C84.6751 94.4043 84.7216 94.1134 84.71 93.8226C84.71 93.2757 84.5706 92.8685 84.3034 92.6009C84.0362 92.3333 83.5831 92.2053 82.9558 92.2053C82.8048 92.1937 82.6422 92.2286 82.5028 92.2868C82.3982 92.3449 82.3169 92.4496 82.2937 92.566C82.2472 92.7638 82.224 92.9732 82.2356 93.171V95.4398H82.9907C83.4437 95.4514 83.7922 95.3816 84.0478 95.242Z" fill="white"/>
<path d="M93.4109 97.5108C93.4109 97.9529 93.4341 98.4067 93.4922 98.8488C93.0043 98.8255 92.1795 98.8139 91.0178 98.8139C89.6354 98.8139 88.5783 98.8255 87.8696 98.8488V98.6161C88.0671 98.6161 88.2646 98.5928 88.4621 98.523C88.5783 98.4765 88.6712 98.3834 88.7177 98.2554C88.7757 98.0576 88.799 97.8482 88.7874 97.6388V93.171C88.799 92.9616 88.7757 92.7522 88.7177 92.5544C88.6828 92.438 88.5899 92.3333 88.4621 92.2868C88.2762 92.2286 88.0671 92.1937 87.8696 92.1937V91.9843C88.5899 92.0075 89.6354 92.0192 91.0178 92.0192C92.0749 92.0192 92.8184 92.0075 93.2598 91.9843C93.2134 92.3915 93.1901 92.7987 93.1785 93.2059C93.1785 93.4386 93.1901 93.6713 93.2134 93.904H92.9578C92.9346 93.5666 92.8649 93.2292 92.7487 92.915C92.6674 92.694 92.5164 92.5195 92.3073 92.4031C92.0749 92.2868 91.8193 92.2402 91.5522 92.2519H90.7274C90.5299 92.2402 90.3324 92.2635 90.1349 92.31C90.0187 92.3449 89.9258 92.4496 89.8793 92.566C89.8213 92.7638 89.798 92.9732 89.8096 93.1826V95.2769H90.7506C90.9481 95.2885 91.1456 95.2187 91.3082 95.0907C91.436 94.986 91.5173 94.8348 91.5638 94.6835C91.6102 94.4974 91.6567 94.3112 91.6799 94.1251H91.9355C91.9123 94.4159 91.9007 94.6952 91.9007 94.9628V95.3933C91.9007 95.6958 91.9239 96.1146 91.9704 96.6614H91.7032C91.68 96.4637 91.6335 96.2659 91.5754 96.0681C91.5289 95.9052 91.4244 95.7656 91.2966 95.6608C91.134 95.5445 90.9365 95.4863 90.739 95.498H89.798V97.6388C89.7864 97.8482 89.8096 98.0576 89.8677 98.2554C89.9026 98.3718 89.9955 98.4648 90.1233 98.5114C90.3208 98.5696 90.5183 98.5812 90.7158 98.5812H91.5405C91.8426 98.5928 92.1562 98.5347 92.4234 98.4067C92.6558 98.2787 92.83 98.0693 92.923 97.8249C93.0507 97.4642 93.1321 97.0919 93.1553 96.708H93.4109C93.4109 96.9639 93.3992 97.2316 93.4109 97.5108Z" fill="white"/>
</g>
<defs>
<clipPath id="clip0_677_310">
<rect width="122" height="98" fill="white" transform="translate(0 1)"/>
</clipPath>
</defs>
</svg>
