<svg width="122" height="98" viewBox="0 0 122 98" fill="none" xmlns="http://www.w3.org/2000/svg">
<g clip-path="url(#clip0_678_344)">
<path d="M82.9209 50.7394C82.4446 55.6493 82.5144 58.8139 82.5144 62.0484C82.5144 62.4905 82.5027 63.305 82.5027 63.305H48.1401C48.1401 63.305 48.1401 63.1421 48.1401 62.8047C48.1401 62.4673 48.1401 62.3044 48.1401 62.3044C50.0453 62.3044 51.4393 62.1648 52.3106 61.8855C53.1818 61.6063 53.7859 61.0595 54.0996 60.2567C54.4132 59.4422 54.5759 58.2089 54.5759 56.5335V55.8005C57.2477 56.1263 58.5372 56.103 60.9419 55.8703C60.9419 56.231 60.9303 57.2432 60.9303 57.2432C60.9303 58.8023 61.0813 58.8954 61.3717 59.5935C61.6621 60.2916 62.2081 60.7686 62.9981 61.0129C63.788 61.2572 65.0426 61.3852 66.7387 61.3852H69.6429C72.9769 61.3852 75.4397 61.2456 77.6469 59.1513C79.8541 57.0571 81.2946 54.3113 82.0381 50.7394" fill="white"/>
<path d="M65.7862 9.33112C65.7862 9.33112 65.7862 9.494 65.7862 9.83141C65.7862 10.1688 65.7862 10.3317 65.7862 10.3317C63.9275 10.3317 63.5441 10.3899 62.6613 10.7389C61.9526 11.0182 61.2789 11.7628 60.9536 12.5656C60.6283 13.3684 60.5354 15.2765 60.5818 16.5331C60.6283 17.7896 60.9304 19.9304 60.9304 19.9304C58.3398 19.0578 54.9244 18.7553 54.5876 16.8821V16.1142C54.7734 14.1014 54.7037 13.1706 54.4017 12.3213C54.1113 11.5301 53.7279 10.9367 52.8567 10.6342C51.9854 10.3317 51.3348 10.3317 49.4297 10.3317C49.4297 10.3317 49.4297 10.1688 49.4297 9.83141C49.4297 9.494 49.4297 9.33112 49.4297 9.33112H65.7862Z" fill="white"/>
<path d="M57.9912 51.1699C56.8528 51.1699 54.5991 51.0419 54.5991 50.3787C54.5991 50.0064 54.6107 30.6345 54.6107 30.6345C57.2013 31.5769 60.6166 31.9143 60.9535 33.9387V50.7278C59.9893 51.0303 58.9903 51.1699 57.9912 51.1699Z" fill="white"/>
<path d="M40.2174 37.4175H41.019C41.5534 40.0354 42.2388 42.2344 43.0868 44.0261C43.9348 45.8179 44.8642 47.2955 45.8748 48.459C46.8855 49.6225 47.9542 50.5183 49.0695 51.1466C50.1266 51.7516 51.2534 52.217 52.4383 52.5312C53.5071 52.8104 54.5991 52.9849 55.7027 53.0431C56.7366 53.0896 57.724 53.1129 58.6417 53.1129C61.209 53.1129 63.3117 52.729 64.9497 51.9494C66.5993 51.1699 67.9003 50.1926 68.8645 49.0058C69.8055 47.8772 70.4909 46.5625 70.8975 45.1547C71.2692 43.9214 71.4551 42.6299 71.4783 41.3385C71.4783 39.6398 71.1647 38.1971 70.5374 36.9754C69.9449 35.8003 69.1317 34.7532 68.1443 33.8922C67.1917 33.0545 66.1346 32.3564 64.9845 31.8212C63.939 31.3209 62.8586 30.9137 61.755 30.5879L53.4142 28.0399C49.4993 26.8299 46.537 25.2359 44.5273 23.2463C42.5176 21.2568 41.5185 18.5924 41.5185 15.2532C41.4953 13.1706 41.8903 11.1112 42.6802 9.1915C43.4237 7.37647 44.5389 5.72433 45.9445 4.36305C47.3966 2.97851 49.1043 1.88484 50.9862 1.16348C52.9495 0.383949 55.087 0 57.4103 0C59.1064 0 60.512 0.139618 61.6505 0.430488C62.6495 0.674819 63.637 1.00059 64.5895 1.40781L66.8084 2.38514C67.4357 2.67601 68.1094 2.81562 68.8065 2.82726C69.4338 2.82726 69.852 2.74582 70.0727 2.57129C70.2934 2.39677 70.5955 1.97792 70.9788 1.3031H71.9895V14.4504H71.1182C70.8278 12.7168 70.3283 11.0182 69.6313 9.40093C68.9575 7.84186 68.0397 6.38751 66.9129 5.11932C65.7861 3.87439 64.4153 2.86216 62.8819 2.14081C61.3136 1.39618 59.4898 1.01223 57.3987 1.01223C56.1093 1.02386 54.8198 1.18675 53.5536 1.48926C52.1595 1.8034 50.8352 2.35023 49.6387 3.11813C48.4305 3.89766 47.3966 4.94479 46.6299 6.16645C45.8284 7.43464 45.4334 9.02861 45.4218 10.9716C45.4218 12.5191 45.7354 13.8454 46.3627 14.9275C46.9784 15.9979 47.8032 16.9403 48.7907 17.6849C49.8129 18.4528 50.9398 19.0927 52.1247 19.5697C53.3561 20.0817 54.5991 20.5238 55.8653 20.9078L64.6476 23.6652C65.5654 23.9561 66.727 24.34 68.1327 24.8287C69.5964 25.3522 70.9788 26.0852 72.2334 27.0044C73.5577 27.9701 74.6962 29.2615 75.6372 30.8555C76.5781 32.4495 77.0544 34.4856 77.0544 36.9638C77.066 39.1977 76.6362 41.4083 75.7882 43.4676C74.9518 45.5154 73.7088 47.3653 72.1289 48.9127C70.5374 50.4834 68.5974 51.7516 66.3205 52.694C64.0436 53.6365 61.4762 54.1135 58.6301 54.1135C57.6194 54.1135 56.725 54.1019 55.9466 54.0786C55.2148 54.0553 54.4945 53.9972 53.7743 53.8924C53.1005 53.7994 52.4151 53.683 51.7413 53.5667C50.9862 53.427 50.2311 53.2409 49.4993 53.0198C48.5351 52.729 47.4896 52.3915 46.3744 52.0076C45.2591 51.6236 44.2949 51.4259 43.4701 51.4259C42.7499 51.4259 42.2504 51.5655 41.9832 51.8563C41.6811 52.2054 41.4488 52.5893 41.2978 53.0198H40.2058L40.2174 37.4175Z" fill="white"/>
<path d="M0.952581 83.5146C1.3127 83.9916 1.85869 84.2243 2.60217 84.2243C2.85774 84.2243 3.11331 84.1778 3.34565 84.0731C3.57799 83.9684 3.77547 83.8055 3.91487 83.6077C4.06589 83.375 4.14721 83.0958 4.13559 82.8165C4.13559 82.5489 4.05428 82.293 3.89164 82.0835C3.71739 81.8625 3.49667 81.6647 3.25271 81.5134C2.98553 81.3389 2.61379 81.1411 2.1375 80.8968C1.75414 80.699 1.3824 80.4779 1.0339 80.2336C0.743477 80.0358 0.499524 79.7798 0.313655 79.489C0.127785 79.1865 0.0348505 78.8374 0.0348505 78.4767C0.0232337 78.0928 0.139402 77.7205 0.360122 77.4063C0.580842 77.1038 0.871263 76.8828 1.21977 76.7432C1.59151 76.5919 1.98648 76.5221 2.39307 76.5221C2.61379 76.5221 2.83451 76.5454 3.05523 76.5803C3.21786 76.6152 3.36888 76.6733 3.5199 76.7432C3.6593 76.813 3.78709 76.8944 3.91487 76.9875C4.04266 77.0806 4.19368 77.1387 4.3447 77.162C4.42601 77.162 4.49572 77.1038 4.51895 77.0224C4.56542 76.8828 4.60027 76.7432 4.61188 76.6035H4.9023C4.85584 77.0457 4.84422 77.8136 4.84422 78.9072H4.5538C4.53057 78.5349 4.43763 78.1859 4.28661 77.8485C4.13559 77.5343 3.90326 77.2551 3.61284 77.0573C3.28756 76.8479 2.90421 76.7432 2.50924 76.7548C2.24205 76.7548 1.97486 76.8013 1.71929 76.9177C1.49857 77.0108 1.3127 77.162 1.1733 77.3598C1.04552 77.546 0.975814 77.767 0.975814 77.9997C0.964197 78.3371 1.09198 78.6629 1.34755 78.8956C1.61474 79.1399 1.91678 79.3377 2.23043 79.5122C2.57894 79.6984 2.81127 79.8264 2.95068 79.9078C3.3805 80.1289 3.79871 80.3732 4.20529 80.6525C4.50733 80.8502 4.7629 81.1062 4.96039 81.3971C5.14626 81.6879 5.25081 82.0254 5.23919 82.3628C5.25081 82.7816 5.13464 83.1888 4.9023 83.5263C4.66997 83.852 4.3447 84.0964 3.97296 84.2476C3.56637 84.4105 3.12493 84.4919 2.67187 84.4919C2.33498 84.5036 2.00971 84.457 1.68444 84.364C1.42887 84.2825 1.18492 84.1662 0.964197 84.0265C0.836412 83.9335 0.69701 83.8753 0.534374 83.852C0.453057 83.852 0.383356 83.9102 0.360122 83.98C0.302038 84.1196 0.278804 84.2592 0.267187 84.3989H0C0.0348505 83.9916 0.0464673 83.0725 0.0464673 81.6414H0.336888C0.394972 82.4093 0.604075 83.0376 0.952581 83.5146Z" fill="white"/>
<path d="M7.03981 78.1627C7.03981 77.674 7.00496 77.1737 6.9585 76.6851C7.65551 76.7083 8.82881 76.72 10.4784 76.72C12.1396 76.72 13.3013 76.7083 13.9983 76.6851C13.9402 77.1737 13.9054 77.6624 13.9054 78.1627C13.9054 78.5932 13.917 78.9422 13.9402 79.1865H13.6498C13.6266 78.7328 13.5452 78.2907 13.4175 77.8485C13.3361 77.5693 13.1387 77.325 12.8947 77.1737C12.6507 77.0341 12.3022 76.9643 11.8492 76.9643H11.0476V82.8399C11.036 83.0958 11.0709 83.3518 11.1406 83.5961C11.1986 83.759 11.3264 83.8754 11.4891 83.9336C11.7562 84.015 12.0234 84.0499 12.3022 84.0499V84.3059C11.8724 84.2826 11.2567 84.271 10.4668 84.271C9.64198 84.271 9.02629 84.2826 8.6197 84.3059V84.0499C8.89851 84.0499 9.16569 84.015 9.43288 83.9336C9.59552 83.8754 9.7233 83.759 9.78139 83.5961C9.8627 83.3518 9.89756 83.0958 9.87432 82.8399V76.9759H9.08438C8.63132 76.9759 8.28282 77.0457 8.05048 77.1854C7.79491 77.3366 7.60904 77.5809 7.52772 77.8602C7.39994 78.2907 7.31862 78.7444 7.29538 79.1982H7.00496C7.0282 78.9189 7.03981 78.5815 7.03981 78.1627Z" fill="white"/>
<path d="M22.3159 77.0574C22.1765 77.1272 22.072 77.2552 22.0255 77.4064C21.9674 77.6391 21.9325 77.8834 21.9442 78.1278V80.8969C21.9558 81.3855 21.9093 81.8858 21.828 82.3629C21.7583 82.7352 21.6305 83.0958 21.433 83.4216C21.2239 83.7474 20.9219 84.015 20.5618 84.1779C20.1552 84.3757 19.7137 84.4688 19.2723 84.4571C18.4243 84.4571 17.7621 84.271 17.2974 83.9103C17.0651 83.7125 16.8676 83.4682 16.7282 83.2006C16.5888 82.9213 16.4959 82.6072 16.4494 82.293C16.3913 81.8393 16.3681 81.3855 16.3681 80.9201V77.9998C16.3797 77.7671 16.3565 77.5344 16.2868 77.3133C16.2403 77.1737 16.1358 77.069 16.008 77.0225C15.7989 76.9527 15.5781 76.9294 15.3574 76.9294V76.6851C15.7059 76.7083 16.2403 76.72 16.9605 76.72C17.6343 76.72 18.1571 76.7083 18.5521 76.6851V76.941C18.3313 76.941 18.1106 76.9759 17.9015 77.0341C17.7737 77.0806 17.6692 77.197 17.6227 77.325C17.5646 77.546 17.5414 77.7787 17.5414 78.0114V81.1528C17.5298 81.6648 17.5762 82.1767 17.6692 82.6886C17.7389 83.0609 17.9247 83.41 18.2035 83.6659C18.4707 83.9103 18.8773 84.0383 19.4001 84.0383C20.2365 84.0383 20.829 83.7707 21.1658 83.2471C21.5027 82.7235 21.677 81.9905 21.677 81.0481V78.1394C21.6886 77.8951 21.6537 77.6624 21.5724 77.4297C21.5027 77.2668 21.3866 77.1388 21.2239 77.069C21.0032 76.9876 20.7709 76.941 20.5385 76.941V76.6851C20.8406 76.7083 21.2588 76.72 21.8164 76.72C22.3159 76.72 22.6993 76.7083 22.9781 76.6851V76.941C22.7341 76.941 22.5134 76.9759 22.3159 77.0574Z" fill="white"/>
<path d="M31.2957 84.0498V84.3058C30.9588 84.2825 30.5058 84.2709 29.9598 84.2709C29.2396 84.2709 28.7052 84.2825 28.3567 84.3058V84.0498C28.589 84.0498 28.8213 84.0149 29.0421 83.9335C29.1815 83.8753 29.2628 83.7357 29.2512 83.596C29.2396 83.3866 29.1815 83.1888 29.0769 83.0027L28.4496 81.5832H25.3944L24.9762 82.514C24.86 82.77 24.7903 83.0376 24.7671 83.3168C24.7671 83.7589 25.0923 84.0033 25.7429 84.0614V84.3174C25.4989 84.2941 25.1156 84.2825 24.6044 84.2825C24.0933 84.2825 23.7332 84.2941 23.5125 84.3174V84.0614C23.7448 84.0033 23.9423 83.8636 24.0817 83.6775C24.2675 83.4448 24.4186 83.1772 24.5347 82.898L27.2995 76.6384H27.497L30.4245 83.2586C30.6568 83.7706 30.9472 84.0265 31.2957 84.0498ZM26.9278 78.1393L25.5105 81.3273H28.3451L26.9278 78.1393Z" fill="white"/>
<path d="M39.2416 84.2941C39.0209 84.4221 38.7653 84.4803 38.5098 84.4687C37.8128 84.4687 37.3829 84.1545 37.2203 83.5146L36.8369 81.9439C36.7789 81.6763 36.6743 81.432 36.5233 81.2109C36.3955 81.048 36.2329 80.9317 36.0354 80.8619C35.7914 80.7921 35.5475 80.7572 35.2919 80.7688H34.5833V82.9561C34.5717 83.1888 34.5949 83.4215 34.6646 83.6426C34.7111 83.7822 34.8156 83.8869 34.9434 83.9335C35.1525 84.0033 35.3732 84.0265 35.5939 84.0265V84.2825C35.2106 84.2592 34.6762 84.2476 34.0024 84.2476C33.2822 84.2476 32.7478 84.2592 32.3993 84.2825V84.0265C32.62 84.0265 32.8408 83.9916 33.0499 83.9335C33.1893 83.8869 33.2822 83.7706 33.3287 83.6426C33.3867 83.4215 33.41 83.1888 33.41 82.9561V77.9997C33.4216 77.767 33.3984 77.5343 33.3287 77.3133C33.2822 77.1736 33.1776 77.0689 33.0499 77.0224C32.8408 76.9642 32.6084 76.9293 32.3877 76.9293V76.6733C32.7362 76.6966 33.2473 76.7082 33.9095 76.7082C34.2115 76.7082 34.5484 76.7082 34.9202 76.6966C35.2919 76.685 35.5359 76.685 35.6753 76.685C36.2096 76.6733 36.7556 76.7548 37.2552 76.9293C37.6385 77.0573 37.9754 77.29 38.231 77.6041C38.4517 77.8834 38.5562 78.2208 38.5562 78.5815C38.5562 78.8956 38.4749 79.1981 38.3239 79.4773C38.138 79.8031 37.8592 80.0591 37.534 80.2336C37.0809 80.4779 36.5814 80.6292 36.0702 80.6757C36.2213 80.6874 36.3607 80.699 36.5001 80.7223C36.8834 80.7688 37.2435 80.9084 37.5572 81.1295C37.8128 81.3273 37.9986 81.653 38.1032 82.0952L38.382 83.2354C38.4285 83.4564 38.4982 83.6659 38.6027 83.852C38.6608 83.9684 38.777 84.0382 38.9047 84.0382C39.1138 84.0382 39.3462 83.8986 39.5901 83.6077L39.7644 83.7706C39.6482 83.98 39.4507 84.1662 39.2416 84.2941ZM36.593 80.3034C36.8602 80.1754 37.0577 79.9544 37.1738 79.6751C37.29 79.3726 37.3365 79.0468 37.3365 78.7211C37.3365 78.1161 37.1854 77.6623 36.8834 77.3714C36.5814 77.0806 36.0819 76.9293 35.3848 76.9293C35.2106 76.9177 35.0363 76.9526 34.8853 77.0224C34.7691 77.0922 34.6878 77.2085 34.653 77.3365C34.6065 77.5576 34.5833 77.7786 34.5833 78.0113V80.5361H35.4313C35.9192 80.5361 36.3142 80.4547 36.593 80.3034Z" fill="white"/>
<path d="M40.7519 78.1627C40.7519 77.674 40.717 77.1737 40.6589 76.6851C41.3559 76.7083 42.5292 76.72 44.1788 76.72C45.84 76.72 47.0017 76.7083 47.6987 76.6851C47.6407 77.1737 47.6058 77.6624 47.6058 78.1627C47.6058 78.5932 47.6174 78.9422 47.6407 79.1865H47.3502C47.327 78.7328 47.2457 78.2907 47.1179 77.8485C47.0366 77.5693 46.8391 77.325 46.5951 77.1737C46.3512 77.0341 46.0027 76.9643 45.5496 76.9643H44.7597V82.8399C44.7481 83.0958 44.7829 83.3518 44.8526 83.5961C44.9107 83.759 45.0501 83.8754 45.2011 83.9336C45.4683 84.015 45.7355 84.0499 46.0143 84.0499V84.3059C45.5845 84.2826 44.9688 84.271 44.1788 84.271C43.3424 84.271 42.7267 84.2826 42.3318 84.3059V84.0499C42.6106 84.0499 42.8778 84.015 43.1449 83.9336C43.3076 83.887 43.4354 83.759 43.4934 83.5961C43.5748 83.3518 43.6096 83.0958 43.5864 82.8399V76.9759H42.7848C42.3318 76.9759 41.9833 77.0457 41.7509 77.1854C41.4953 77.3366 41.3095 77.5809 41.2282 77.8602C41.1004 78.2907 41.0191 78.7444 40.9842 79.1865H40.6938C40.7403 78.9189 40.7519 78.5815 40.7519 78.1627Z" fill="white"/>
<path d="M55.2729 77.0341C55.1335 77.0806 55.0406 77.197 54.9941 77.325C54.9361 77.546 54.9128 77.7787 54.9128 78.0114V82.9679C54.9012 83.2006 54.9244 83.4333 54.9941 83.6543C55.0406 83.7823 55.1452 83.8986 55.2729 83.9336C55.4821 83.9917 55.7028 84.015 55.9235 84.0034H56.7134C57.2943 84.0034 57.7357 83.8288 58.061 83.4914C58.3746 83.154 58.5721 82.5839 58.6418 81.7811H58.9323C58.909 82.0371 58.8974 82.3861 58.8974 82.805C58.8974 83.2936 58.9323 83.7939 58.9787 84.2826C58.4327 84.2593 57.5266 84.2477 56.2371 84.2477C54.7037 84.2477 53.5304 84.2593 52.7405 84.2826V84.0266C52.9612 84.0266 53.1819 83.9917 53.391 83.9336C53.5304 83.887 53.6234 83.7707 53.6698 83.6427C53.7279 83.4216 53.7511 83.1889 53.7511 82.9562V77.9998C53.7628 77.7671 53.7395 77.5344 53.6698 77.3133C53.6234 77.1737 53.5188 77.069 53.391 77.0225C53.1819 76.9527 52.9612 76.9294 52.7405 76.9294V76.6851C53.089 76.7083 53.6234 76.72 54.3436 76.72C55.0174 76.72 55.5518 76.7083 55.9351 76.6851V76.941C55.7028 76.941 55.4937 76.9759 55.2729 77.0341Z" fill="white"/>
<path d="M66.2972 76.9759C66.8664 77.2784 67.3427 77.7438 67.6447 78.3139C67.9584 78.8956 68.121 79.6054 68.121 80.4198C68.1326 81.1528 67.9584 81.8858 67.6215 82.5373C67.3078 83.1307 66.8315 83.631 66.2507 83.9684C65.6466 84.3175 64.9612 84.492 64.2526 84.4804C63.5556 84.492 62.8586 84.3407 62.2313 84.015C61.662 83.7125 61.1974 83.2471 60.8953 82.677C60.5817 82.0836 60.419 81.3855 60.419 80.5711C60.4074 79.8381 60.5701 79.1051 60.9069 78.4535C61.2206 77.8601 61.6853 77.3599 62.2661 77.0224C62.8702 76.6734 63.5556 76.4989 64.2526 76.5105C64.9728 76.4989 65.6699 76.6501 66.2972 76.9759ZM62.8818 77.2086C62.4752 77.5693 62.1616 78.0347 61.9873 78.5466C61.7666 79.1749 61.662 79.8497 61.6737 80.5129C61.662 81.1877 61.7782 81.8509 62.0222 82.4792C62.2197 82.9911 62.5449 83.4449 62.9747 83.7823C63.3581 84.0848 63.8228 84.2477 64.3107 84.236C64.7986 84.2477 65.2749 84.0731 65.6582 83.759C66.0764 83.3983 66.3785 82.9329 66.5527 82.421C66.7735 81.7927 66.878 81.1295 66.8664 80.4663C66.878 79.7915 66.7618 79.1283 66.5179 78.5001C66.3204 77.9881 65.9951 77.5344 65.5653 77.197C65.1819 76.8945 64.7173 76.7316 64.2294 76.7432C63.7415 76.7316 63.2652 76.8945 62.8818 77.2086Z" fill="white"/>
<path d="M76.0786 83.538C75.9857 83.5496 75.8927 83.5962 75.823 83.6543C75.5442 83.8987 75.2306 84.0965 74.8937 84.2593C74.5452 84.4106 74.1734 84.4804 73.8017 84.4688C73.1163 84.4804 72.4542 84.3175 71.8501 84.0034C71.2925 83.7009 70.8394 83.2355 70.549 82.677C70.2353 82.0836 70.0843 81.3855 70.0843 80.5711C70.0727 79.8381 70.2353 79.1051 70.5606 78.4536C70.851 77.8602 71.3157 77.3599 71.8849 77.0225C72.4658 76.6734 73.1396 76.4989 73.8133 76.5106C74.0689 76.5106 74.3245 76.5455 74.5684 76.6153C74.7775 76.6851 74.9866 76.7782 75.1725 76.8945C75.37 77.0225 75.5559 77.1737 75.7417 77.325C75.8114 77.3832 75.8927 77.4297 75.9857 77.4413C76.1599 77.4413 76.2645 77.1854 76.2993 76.6851H76.5897C76.5549 77.1621 76.5317 78.0464 76.5317 79.3145H76.2412C76.1832 78.9888 76.1018 78.663 75.9973 78.3489C75.9044 78.1162 75.7766 77.9067 75.6256 77.7089C75.4048 77.4064 75.1144 77.1737 74.7891 76.9992C74.4755 76.8363 74.127 76.7549 73.7669 76.7549C73.3022 76.7433 72.8491 76.9061 72.489 77.2086C72.094 77.5577 71.8036 78.0114 71.641 78.5117C71.4319 79.1633 71.3273 79.8381 71.3389 80.5129C71.3273 81.1994 71.4319 81.8742 71.6758 82.5258C71.8501 83.0261 72.1637 83.4565 72.5819 83.794C72.9537 84.0732 73.3951 84.2244 73.8598 84.2244C74.2315 84.2244 74.5917 84.143 74.9169 83.9801C75.2538 83.8172 75.5442 83.5729 75.7533 83.2704C75.916 83.061 76.0321 82.8283 76.1135 82.5839C76.218 82.2465 76.2877 81.8858 76.3342 81.5368H76.6246C76.6246 82.8515 76.6362 83.7707 76.6711 84.2942H76.3806C76.3458 83.7939 76.2412 83.538 76.0786 83.538Z" fill="white"/>
<path d="M86.1039 77.0341C85.9762 77.0806 85.8716 77.1969 85.8251 77.3249C85.7671 77.546 85.7438 77.7787 85.7438 78.0114V82.9678C85.7322 83.2005 85.7554 83.4332 85.8251 83.6543C85.8716 83.7939 85.9762 83.8986 86.1039 83.9451C86.313 84.0149 86.5338 84.0382 86.7661 84.0382V84.2942C86.4176 84.2709 85.8832 84.2593 85.163 84.2593C84.5008 84.2593 83.9664 84.2709 83.5715 84.2942V84.0382C83.7922 84.0382 84.0129 84.0033 84.2336 83.9451C84.3614 83.8986 84.466 83.7823 84.5124 83.6543C84.5705 83.4332 84.5938 83.2005 84.5938 82.9678V80.478H80.7834V82.9678C80.7718 83.2005 80.795 83.4332 80.8647 83.6543C80.9112 83.7939 81.0158 83.8986 81.1436 83.9451C81.3527 84.0149 81.5734 84.0382 81.8057 84.0382V84.2942C81.4224 84.2709 80.8996 84.2593 80.2142 84.2593C79.494 84.2593 78.9596 84.2709 78.6111 84.2942V84.0382C78.8318 84.0382 79.0525 84.0033 79.2732 83.9451C79.401 83.8986 79.5056 83.7823 79.552 83.6543C79.6101 83.4332 79.6334 83.2005 79.6334 82.9678V78.0114C79.645 77.7787 79.6217 77.546 79.552 77.3249C79.5056 77.1853 79.401 77.0806 79.2732 77.0341C79.0641 76.9643 78.8434 76.941 78.6111 76.941V76.6967C78.9596 76.7199 79.494 76.7316 80.2142 76.7316C80.888 76.7316 81.4224 76.7199 81.8057 76.6967V76.9526C81.585 76.9526 81.3643 76.9875 81.1436 77.0457C81.0158 77.0922 80.9112 77.2086 80.8647 77.3366C80.8067 77.5576 80.7834 77.7903 80.7834 78.023V80.2336H84.5938V78.023C84.6054 77.7903 84.5821 77.5576 84.5124 77.3366C84.466 77.197 84.3614 77.0922 84.2336 77.0457C84.0245 76.9759 83.8038 76.9526 83.5715 76.9526V76.6967C83.9548 76.7199 84.4892 76.7316 85.163 76.7316C85.8832 76.7316 86.4176 76.7199 86.7661 76.6967V76.9526C86.5338 76.941 86.313 76.9643 86.1039 77.0341Z" fill="white"/>
<path d="M95.9434 77.0341C95.804 77.0806 95.7111 77.1969 95.6646 77.3249C95.6066 77.546 95.5833 77.7787 95.5833 78.0114V82.9678C95.5717 83.2005 95.5949 83.4332 95.6646 83.6543C95.7111 83.7939 95.8157 83.8986 95.9434 83.9451C96.1525 84.0149 96.3733 84.0382 96.6056 84.0382V84.2942C96.2571 84.2709 95.7227 84.2593 95.0025 84.2593C94.3403 84.2593 93.8059 84.2709 93.411 84.2942V84.0382C93.6317 84.0382 93.8524 84.0033 94.0731 83.9451C94.2125 83.8986 94.3055 83.7823 94.3519 83.6543C94.41 83.4332 94.4333 83.2005 94.4333 82.9678V80.478H90.6113V82.9678C90.5997 83.2005 90.6229 83.4332 90.6926 83.6543C90.7391 83.7939 90.8436 83.8986 90.9714 83.9451C91.1805 84.0149 91.4013 84.0382 91.6336 84.0382V84.2942C91.2502 84.2709 90.7159 84.2593 90.0421 84.2593C89.3218 84.2593 88.7875 84.2709 88.439 84.2942V84.0382C88.6597 84.0382 88.8804 84.0033 89.1011 83.9451C89.2289 83.8986 89.3335 83.7823 89.3799 83.6543C89.438 83.4332 89.4612 83.2005 89.4612 82.9678V78.0114C89.4729 77.7787 89.4496 77.546 89.3799 77.3249C89.3335 77.1853 89.2289 77.0806 89.1011 77.0341C88.892 76.9643 88.6713 76.941 88.439 76.941V76.6967C88.7875 76.7199 89.3218 76.7316 90.0421 76.7316C90.7159 76.7316 91.2502 76.7199 91.6336 76.6967V76.9526C91.4129 76.9526 91.1922 76.9875 90.9714 77.0457C90.832 77.0922 90.7391 77.2086 90.6926 77.3366C90.6345 77.5576 90.6113 77.7903 90.6113 78.023V80.2336H94.4216V78.023C94.4333 77.7903 94.41 77.5576 94.3403 77.3366C94.2938 77.197 94.1893 77.0922 94.0615 77.0457C93.8524 76.9759 93.6317 76.9526 93.3994 76.9526V76.6967C93.7943 76.7199 94.3171 76.7316 94.9909 76.7316C95.7111 76.7316 96.2455 76.7199 96.594 76.6967V76.9526C96.3733 76.941 96.1525 76.9643 95.9434 77.0341Z" fill="white"/>
<path d="M104.424 82.8166C104.424 83.3052 104.459 83.8055 104.505 84.2942C103.959 84.2709 103.053 84.2593 101.764 84.2593C100.23 84.2593 99.0568 84.2709 98.2668 84.2942V84.0382C98.4876 84.0382 98.7083 84.0033 98.929 83.9451C99.0568 83.8986 99.1613 83.7823 99.2078 83.6543C99.2659 83.4332 99.2891 83.2005 99.2891 82.9678V78.0114C99.3007 77.7787 99.2775 77.546 99.2078 77.3249C99.1613 77.1853 99.0568 77.0806 98.929 77.0341C98.7199 76.9643 98.4992 76.941 98.2668 76.941V76.6967C99.0568 76.7199 100.23 76.7316 101.764 76.7316C102.937 76.7316 103.762 76.7199 104.25 76.6967C104.191 77.1504 104.168 77.5925 104.168 78.0463C104.168 78.3023 104.18 78.5699 104.203 78.8258H103.913C103.889 78.4535 103.808 78.0812 103.68 77.7321C103.587 77.4878 103.425 77.29 103.192 77.162C102.937 77.0341 102.646 76.9759 102.356 76.9875H101.438C101.218 76.9759 100.997 76.9992 100.776 77.0573C100.648 77.1039 100.544 77.2086 100.497 77.3366C100.439 77.5576 100.416 77.7903 100.416 78.023V80.35H101.45C101.671 80.3616 101.891 80.2918 102.066 80.1406C102.205 80.0242 102.298 79.8613 102.356 79.6868C102.414 79.4774 102.461 79.2796 102.495 79.0702H102.786C102.763 79.3959 102.739 79.7101 102.739 80.0009V80.4663C102.739 80.8037 102.763 81.2691 102.821 81.8741H102.53C102.507 81.6531 102.461 81.432 102.391 81.2226C102.333 81.0481 102.228 80.8852 102.077 80.7805C101.891 80.6525 101.671 80.5943 101.45 80.6059H100.416V82.9795C100.404 83.2121 100.428 83.4448 100.497 83.6659C100.544 83.7939 100.648 83.9102 100.776 83.9451C100.985 84.0033 101.206 84.0266 101.438 84.0149H102.356C102.693 84.0266 103.03 83.9568 103.343 83.8172C103.599 83.6775 103.796 83.4448 103.901 83.1656C104.052 82.77 104.133 82.3512 104.168 81.9207H104.459C104.435 82.2116 104.424 82.5141 104.424 82.8166Z" fill="white"/>
<path d="M113.566 84.0499V84.3058C113.229 84.2826 112.776 84.2709 112.23 84.2709C111.51 84.2709 110.976 84.2826 110.627 84.3058V84.0499C110.859 84.0499 111.092 84.015 111.312 83.9335C111.452 83.8754 111.533 83.7357 111.522 83.5961C111.51 83.3867 111.452 83.1889 111.347 83.0028L110.72 81.5833H107.665L107.247 82.5141C107.13 82.7701 107.061 83.0377 107.037 83.3169C107.037 83.759 107.363 84.0033 108.013 84.0615V84.3175C107.769 84.2942 107.386 84.2826 106.875 84.2826C106.364 84.2826 106.004 84.2942 105.794 84.3175V84.0615C106.027 84.0033 106.224 83.8637 106.364 83.6776C106.55 83.4449 106.701 83.1773 106.817 82.898L109.582 76.6501H109.779L112.706 83.2704C112.927 83.7707 113.218 84.0266 113.566 84.0499ZM109.198 78.1394L107.769 81.3273H110.604L109.198 78.1394Z" fill="white"/>
<path d="M115.89 76.7316H116.192C117.342 76.7083 117.969 76.6967 118.074 76.6967C119.375 76.6967 120.35 77.0108 121.001 77.6391C121.652 78.2674 121.977 79.1865 121.977 80.3966C121.988 81.1179 121.826 81.816 121.501 82.4559C121.187 83.0377 120.711 83.5147 120.13 83.8172C119.526 84.143 118.805 84.3059 117.957 84.3059C117.841 84.3059 117.574 84.3059 117.144 84.2826C116.714 84.2593 116.401 84.2593 116.203 84.2593C115.518 84.2593 115.007 84.271 114.658 84.2942V84.0383C114.879 84.0383 115.1 84.0034 115.32 83.9452C115.46 83.8986 115.553 83.7823 115.599 83.6543C115.657 83.4333 115.68 83.2006 115.68 82.9679V78.0114C115.692 77.7787 115.669 77.546 115.599 77.325C115.553 77.1854 115.448 77.0806 115.32 77.0341C115.111 76.9759 114.879 76.941 114.658 76.941V76.6851C115.123 76.72 115.529 76.7316 115.89 76.7316ZM116.912 83.6776C116.958 83.8172 117.051 83.9336 117.179 83.9917C117.365 84.0615 117.574 84.0848 117.772 84.0848C118.527 84.0848 119.119 83.9452 119.561 83.6776C120.002 83.3983 120.316 82.9795 120.478 82.4792C120.652 81.9556 120.745 81.2808 120.745 80.4547C120.745 79.6403 120.652 78.9771 120.467 78.4652C120.304 77.9765 119.967 77.5693 119.526 77.3133C119.096 77.0574 118.503 76.9294 117.772 76.9294C117.574 76.9178 117.377 76.9527 117.191 77.0225C117.063 77.0806 116.958 77.197 116.923 77.3366C116.865 77.5577 116.842 77.7904 116.854 78.0114V83.0144C116.831 83.2238 116.854 83.4449 116.912 83.6776Z" fill="white"/>
<path d="M29.3673 97.1274C29.6926 97.5579 30.1921 97.7673 30.8543 97.7673C31.0866 97.7673 31.3189 97.7208 31.528 97.6277C31.7371 97.5347 31.9114 97.395 32.0392 97.1972C32.1786 96.9878 32.2483 96.7319 32.2367 96.4759C32.2367 96.2316 32.167 95.9989 32.016 95.8127C31.8533 95.6033 31.6558 95.4288 31.4351 95.3008C31.2028 95.1495 30.8659 94.9634 30.4361 94.7423C30.0876 94.5678 29.7623 94.37 29.437 94.1489C29.1814 93.9628 28.9607 93.7417 28.7865 93.4741C28.6238 93.2065 28.5309 92.8807 28.5425 92.5666C28.5309 92.2175 28.6355 91.8801 28.8329 91.6009C29.0304 91.3333 29.2976 91.1239 29.6113 90.9959C30.134 90.7865 30.7033 90.7399 31.2609 90.8563C31.4003 90.8912 31.5397 90.9377 31.6791 90.9959C31.8069 91.0657 31.923 91.1355 32.0392 91.217C32.1554 91.2984 32.2831 91.3566 32.4225 91.3798C32.4922 91.3798 32.5619 91.3333 32.5852 91.2635C32.6316 91.1471 32.6665 91.0192 32.6781 90.8795H32.9337C32.8988 91.2751 32.8756 91.9616 32.8756 92.9505H32.62C32.5968 92.6248 32.5155 92.299 32.3645 91.9965C32.2367 91.7056 32.0276 91.4613 31.7604 91.2868C31.47 91.1006 31.1215 91.0075 30.773 91.0192C30.529 91.0192 30.285 91.0657 30.0643 91.1704C29.8668 91.2519 29.7042 91.3915 29.5764 91.566C29.4603 91.7289 29.4022 91.9383 29.4022 92.1361C29.3906 92.4386 29.5067 92.7295 29.7391 92.9389C29.983 93.16 30.2502 93.3461 30.5406 93.4974C30.8543 93.6603 31.0634 93.7882 31.1912 93.8581C31.5745 94.0558 31.9579 94.2769 32.318 94.5212C32.5852 94.7074 32.8175 94.9285 33.0034 95.1961C33.1776 95.452 33.2706 95.7545 33.259 96.0687C33.2706 96.441 33.166 96.8133 32.9569 97.1158C32.7478 97.4067 32.4574 97.6277 32.1205 97.7673C31.7488 97.9186 31.3538 97.9884 30.9472 97.9884C30.6452 98 30.3547 97.9535 30.0643 97.8721C29.832 97.8023 29.6229 97.6975 29.4138 97.5696C29.2976 97.4881 29.1698 97.4299 29.0304 97.4067C28.9607 97.4067 28.891 97.4532 28.8678 97.523C28.8213 97.6394 28.7865 97.7674 28.7749 97.8953H28.5193C28.5541 97.523 28.5658 96.6969 28.5658 95.4171H28.8213C28.8562 96.1385 29.0537 96.6969 29.3673 97.1274Z" fill="white"/>
<path d="M40.4033 97.1622C40.322 97.1739 40.2407 97.2088 40.1826 97.2786C39.927 97.4996 39.6482 97.6742 39.3462 97.8254C39.0325 97.9534 38.6957 98.0232 38.3588 98.0116C37.7431 98.0232 37.139 97.8836 36.6046 97.5927C36.1051 97.3135 35.6985 96.8946 35.4313 96.3827C35.1409 95.7893 35.0015 95.1378 35.0131 94.4862C35.0015 93.823 35.1525 93.1715 35.4429 92.5781C35.7101 92.0429 36.1283 91.6008 36.6279 91.2867C37.1506 90.9725 37.7547 90.8213 38.3588 90.8329C38.5911 90.8329 38.8234 90.8678 39.0442 90.926C39.23 90.9841 39.4159 91.0656 39.5785 91.1819C39.7528 91.2983 39.927 91.4263 40.0897 91.5659C40.1478 91.6241 40.2291 91.6706 40.3104 91.6822C40.4614 91.6822 40.566 91.4495 40.6008 90.9958H40.868C40.8332 91.4263 40.8215 92.2174 40.8215 93.3693H40.5544C40.5079 93.0784 40.4382 92.7875 40.3336 92.4967C40.2523 92.2872 40.1361 92.0895 39.9967 91.9149C39.7993 91.6473 39.5437 91.4263 39.2416 91.275C38.9512 91.1354 38.6376 91.054 38.3239 91.054C37.9057 91.0423 37.4875 91.1936 37.1622 91.4612C36.8021 91.7753 36.5349 92.1825 36.3955 92.6363C36.2097 93.218 36.1167 93.8347 36.1283 94.4397C36.1167 95.0563 36.2097 95.673 36.4304 96.2547C36.593 96.7085 36.8718 97.0924 37.2436 97.3949C37.5688 97.6509 37.9754 97.7905 38.3936 97.7789C38.7305 97.7789 39.0558 97.7091 39.3462 97.5578C39.6482 97.4066 39.9154 97.1971 40.1129 96.9179C40.2523 96.7317 40.3685 96.5223 40.4382 96.3013C40.5311 95.9988 40.5892 95.6846 40.6357 95.3588H40.9029C40.9029 96.5456 40.9145 97.3717 40.9493 97.8487H40.6938C40.6473 97.3833 40.5544 97.1622 40.4033 97.1622Z" fill="white"/>
<path d="M48.756 91.3217C48.6282 91.3915 48.5352 91.4962 48.5004 91.6358C48.4423 91.8452 48.4191 92.0663 48.4307 92.2874V94.7772C48.4307 95.2193 48.3958 95.6614 48.3261 96.1036C48.2681 96.441 48.1519 96.7668 47.9776 97.0576C47.7801 97.3601 47.513 97.5928 47.1877 97.7441C46.8276 97.9186 46.4326 98 46.026 98C45.2593 98 44.6668 97.8372 44.2486 97.4997C44.0395 97.3136 43.8653 97.1042 43.7375 96.8598C43.6097 96.6039 43.5284 96.3246 43.4935 96.0454C43.4355 95.6382 43.4122 95.231 43.4238 94.8121V92.171C43.4354 91.9616 43.4122 91.7522 43.3541 91.5544C43.3193 91.438 43.2263 91.3333 43.0986 91.2868C42.9127 91.2286 42.7036 91.1937 42.5061 91.1937V90.9843C42.8314 91.0075 43.3077 91.0192 43.9466 91.0192C44.5507 91.0192 45.027 91.0075 45.3755 90.9843V91.2053C45.178 91.2053 44.9805 91.2286 44.783 91.2984C44.6668 91.3449 44.5739 91.438 44.5274 91.566C44.4693 91.7638 44.4461 91.9732 44.4577 92.1826V95.0215C44.4461 95.4869 44.4926 95.9523 44.5739 96.4061C44.632 96.7435 44.8062 97.046 45.0502 97.2787C45.2941 97.4997 45.6543 97.6161 46.1306 97.6161C46.8857 97.6161 47.42 97.3834 47.7221 96.9064C48.0241 96.4293 48.1751 95.7662 48.1751 94.9168V92.2874C48.1867 92.0663 48.1519 91.8569 48.0822 91.6474C48.0241 91.5078 47.9079 91.3798 47.7685 91.3217C47.571 91.2402 47.3619 91.2053 47.1528 91.2053V90.9843C47.42 91.0075 47.8034 91.0192 48.3029 91.0192C48.756 91.0192 49.1045 91.0075 49.3484 90.9843V91.2053C49.1393 91.2053 48.9418 91.2402 48.756 91.3217Z" fill="white"/>
<path d="M52.9379 91.2984C52.8218 91.3449 52.7288 91.438 52.6824 91.566C52.6243 91.7638 52.601 91.9732 52.6127 92.1826V96.6504C52.601 96.8598 52.6243 97.0693 52.6824 97.2671C52.7172 97.3834 52.8101 97.4881 52.9379 97.523C53.1354 97.5812 53.3329 97.5928 53.5304 97.5928H54.239C54.7618 97.5928 55.1684 97.4416 55.4472 97.1274C55.7376 96.8249 55.9118 96.313 55.9699 95.5916H56.2255C56.2023 95.8243 56.1906 96.1385 56.1906 96.5224C56.1906 96.9645 56.2139 97.4183 56.272 97.8604C55.7841 97.8372 54.9593 97.8255 53.7976 97.8255C52.4152 97.8255 51.358 97.8372 50.6494 97.8604V97.6161C50.8469 97.6161 51.0444 97.5928 51.2419 97.523C51.358 97.4765 51.451 97.3834 51.4974 97.2554C51.5555 97.0576 51.5788 96.8482 51.5671 96.6388V92.171C51.5788 91.9616 51.5555 91.7522 51.4974 91.5544C51.4626 91.438 51.3697 91.3333 51.2419 91.2868C51.056 91.2286 50.8469 91.1937 50.6494 91.1937V90.9843C50.9631 91.0075 51.4394 91.0192 52.0899 91.0192C52.694 91.0192 53.1703 91.0075 53.5188 90.9843V91.2053C53.3329 91.2053 53.1238 91.2402 52.9379 91.2984Z" fill="white"/>
<path d="M59.6408 96.6504C59.6292 96.8598 59.6525 97.0693 59.7105 97.2671C59.7454 97.3834 59.8383 97.4881 59.9661 97.5346C60.152 97.5928 60.3611 97.6277 60.5586 97.6277V97.8488C60.2101 97.8255 59.7338 97.8139 59.1297 97.8139C58.4792 97.8139 58.0029 97.8255 57.6892 97.8488V97.6161C57.8867 97.6161 58.0842 97.5928 58.2817 97.523C58.3978 97.4765 58.4908 97.3834 58.5372 97.2554C58.5953 97.0576 58.6186 96.8482 58.6069 96.6388V92.171C58.6186 91.9616 58.5953 91.7522 58.5372 91.5544C58.5024 91.438 58.4095 91.3333 58.2817 91.2868C58.0958 91.2286 57.8867 91.1937 57.6892 91.1937V90.9843C58.0029 91.0075 58.4559 91.0192 59.06 91.0192C59.3504 91.0192 59.6757 91.0192 60.0358 91.0075C60.3843 90.9959 60.6283 90.9959 60.7677 90.9959C61.2323 90.9843 61.697 91.0657 62.1385 91.2286C62.4753 91.3566 62.7658 91.5893 62.9749 91.8918C63.1607 92.1826 63.2653 92.5317 63.2537 92.8807C63.2537 93.2414 63.1607 93.6021 62.9865 93.9162C62.7774 94.2769 62.4637 94.5678 62.0804 94.7423C61.6506 94.9634 61.0929 95.0681 60.3959 95.0681H59.6408V96.6504ZM61.7319 94.3467C61.9991 94.0209 62.1268 93.5672 62.1268 92.9971C62.1268 92.3921 61.9991 91.9383 61.7435 91.6474C61.4879 91.3566 61.0697 91.2053 60.4772 91.2053C60.303 91.1937 60.1171 91.2286 59.9545 91.2868C59.8383 91.3449 59.7454 91.4496 59.7105 91.566C59.6641 91.7638 59.6408 91.9732 59.6408 92.171V94.8354H60.2798C60.9768 94.8354 61.4531 94.6725 61.7319 94.3467Z" fill="white"/>
<path d="M64.6128 92.3106C64.6128 91.8685 64.5896 91.4264 64.5315 90.9843C65.1588 91.0075 66.2159 91.0192 67.7029 91.0192C69.2015 91.0192 70.247 91.0075 70.8743 90.9843C70.8162 91.4264 70.793 91.8685 70.793 92.3106C70.793 92.6946 70.8046 93.0087 70.8278 93.2414H70.5722C70.549 92.8342 70.4793 92.427 70.3631 92.043C70.2818 91.7871 70.1192 91.5776 69.8869 91.438C69.6661 91.31 69.3525 91.2519 68.9459 91.2519H68.2256V96.5457C68.214 96.7784 68.2489 97.0111 68.3186 97.2321C68.3767 97.3718 68.4928 97.4881 68.6439 97.5346C68.8762 97.6045 69.1318 97.6394 69.3757 97.6277V97.8488C68.9924 97.8255 68.4348 97.8139 67.7145 97.8139C66.971 97.8139 66.4134 97.8255 66.0533 97.8488V97.6161C66.2973 97.6161 66.5528 97.5812 66.7852 97.523C66.9362 97.4765 67.0523 97.3601 67.1104 97.2205C67.1801 96.9994 67.215 96.7668 67.2034 96.5341V91.2402H66.4831C66.0765 91.2402 65.7629 91.2984 65.5538 91.4264C65.3331 91.566 65.1588 91.7754 65.0775 92.0314C64.9497 92.427 64.88 92.8226 64.8568 93.2298H64.6012C64.6012 92.9971 64.6128 92.6829 64.6128 92.3106Z" fill="white"/>
<path d="M78.3672 91.3217C78.2394 91.3915 78.1465 91.4962 78.1116 91.6358C78.0535 91.8452 78.0303 92.0663 78.0419 92.2874V94.7772C78.0535 95.2193 78.0187 95.6614 77.9374 96.1036C77.8793 96.441 77.7631 96.7668 77.5889 97.0576C77.3914 97.3601 77.1242 97.5928 76.7989 97.7441C76.4388 97.9186 76.0438 98 75.6372 98C74.8705 98 74.2781 97.8372 73.8599 97.4997C73.6507 97.3136 73.4765 97.1042 73.3487 96.8598C73.2209 96.6039 73.1396 96.3246 73.0931 96.0454C73.0351 95.6382 73.0118 95.231 73.0234 94.8121V92.171C73.0351 91.9616 73.0118 91.7522 72.9537 91.5544C72.9189 91.438 72.826 91.3333 72.6982 91.2868C72.5123 91.2286 72.3032 91.1937 72.1057 91.1937V90.9843C72.4194 91.0075 72.9073 91.0192 73.5462 91.0192C74.1503 91.0192 74.6266 91.0075 74.9751 90.9843V91.2053C74.7776 91.2053 74.5801 91.2286 74.3826 91.2984C74.2664 91.3449 74.1735 91.438 74.127 91.566C74.069 91.7638 74.0457 91.9732 74.0573 92.1826V95.0215C74.0457 95.4869 74.0922 95.9523 74.1735 96.4061C74.2316 96.7435 74.4058 97.046 74.6498 97.2787C74.8937 97.4997 75.2539 97.6161 75.7302 97.6161C76.4853 97.6161 77.0196 97.3834 77.3217 96.9064C77.6237 96.4293 77.7747 95.7662 77.7747 94.9168V92.2874C77.7863 92.0663 77.7515 91.8569 77.6818 91.6474C77.6237 91.5078 77.5075 91.3798 77.3681 91.3217C77.1707 91.2402 76.9616 91.2053 76.7524 91.2053V90.9843C77.0196 91.0075 77.403 91.0192 77.9025 91.0192C78.3556 91.0192 78.7041 91.0075 78.948 90.9843V91.2053C78.7622 91.2053 78.5531 91.2402 78.3672 91.3217Z" fill="white"/>
<path d="M86.4292 97.8372C86.2318 97.9535 85.9994 98.0117 85.7671 98C85.1398 98 84.7564 97.7092 84.6054 97.1391L84.2569 95.7313C84.2104 95.4986 84.1175 95.2659 83.9781 95.0681C83.8619 94.9168 83.7109 94.8121 83.5366 94.7539C83.3159 94.6958 83.0952 94.6609 82.8745 94.6725H82.2356V96.6504C82.224 96.8598 82.2472 97.0693 82.3053 97.2671C82.3401 97.3834 82.4331 97.4881 82.5608 97.5346C82.7583 97.5928 82.9558 97.6277 83.1533 97.6277V97.8488C82.8048 97.8255 82.3285 97.8139 81.7244 97.8139C81.0739 97.8139 80.5976 97.8255 80.2839 97.8488V97.6161C80.4814 97.6161 80.6789 97.5928 80.8764 97.523C80.9926 97.4765 81.0855 97.3834 81.132 97.2554C81.1901 97.0576 81.2133 96.8482 81.2017 96.6388V92.1594C81.2133 91.9499 81.1901 91.7405 81.132 91.5427C81.0971 91.4147 81.0042 91.3217 80.8764 91.2751C80.6789 91.2169 80.4814 91.1937 80.2839 91.1937V90.9843C80.5976 91.0075 81.0507 91.0192 81.6547 91.0192C81.9335 91.0192 82.2356 91.0192 82.5608 91.0075C82.8977 90.9959 83.1184 90.9959 83.2346 90.9959C83.7225 90.9843 84.1988 91.0541 84.6635 91.2169C85.012 91.3333 85.314 91.5427 85.5464 91.822C85.7439 92.0779 85.8484 92.3804 85.8368 92.7062C85.8368 92.9854 85.7671 93.2647 85.6277 93.509C85.4534 93.7999 85.2095 94.0326 84.9191 94.1955C84.5125 94.4165 84.0594 94.5561 83.5947 94.6027C83.7225 94.6143 83.8503 94.626 83.9781 94.6376C84.315 94.6725 84.6519 94.8005 84.9307 94.9983C85.163 95.1844 85.3256 95.4637 85.4186 95.8709L85.6625 96.8947C85.6974 97.0925 85.7671 97.2787 85.86 97.4532C85.9181 97.5579 86.0227 97.6161 86.1388 97.6161C86.3247 97.6161 86.5338 97.4881 86.7545 97.2321L86.9055 97.3834C86.7894 97.5579 86.6267 97.7208 86.4292 97.8372ZM84.0478 94.242C84.2801 94.1257 84.466 93.9279 84.5706 93.6835C84.6751 93.4043 84.7216 93.1134 84.71 92.8226C84.71 92.2757 84.5706 91.8685 84.3034 91.6009C84.0362 91.3333 83.5831 91.2053 82.9558 91.2053C82.8048 91.1937 82.6422 91.2286 82.5028 91.2868C82.3982 91.3449 82.3169 91.4496 82.2937 91.566C82.2472 91.7638 82.224 91.9732 82.2356 92.171V94.4398H82.9907C83.4437 94.4514 83.7922 94.3816 84.0478 94.242Z" fill="white"/>
<path d="M93.4109 96.5108C93.4109 96.9529 93.4341 97.4067 93.4922 97.8488C93.0043 97.8255 92.1795 97.8139 91.0178 97.8139C89.6354 97.8139 88.5783 97.8255 87.8696 97.8488V97.6161C88.0671 97.6161 88.2646 97.5928 88.4621 97.523C88.5783 97.4765 88.6712 97.3834 88.7177 97.2554C88.7757 97.0576 88.799 96.8482 88.7874 96.6388V92.171C88.799 91.9616 88.7757 91.7522 88.7177 91.5544C88.6828 91.438 88.5899 91.3333 88.4621 91.2868C88.2762 91.2286 88.0671 91.1937 87.8696 91.1937V90.9843C88.5899 91.0075 89.6354 91.0192 91.0178 91.0192C92.0749 91.0192 92.8184 91.0075 93.2598 90.9843C93.2134 91.3915 93.1901 91.7987 93.1785 92.2059C93.1785 92.4386 93.1901 92.6713 93.2134 92.904H92.9578C92.9346 92.5666 92.8649 92.2292 92.7487 91.915C92.6674 91.694 92.5164 91.5195 92.3073 91.4031C92.0749 91.2868 91.8193 91.2402 91.5522 91.2519H90.7274C90.5299 91.2402 90.3324 91.2635 90.1349 91.31C90.0187 91.3449 89.9258 91.4496 89.8793 91.566C89.8213 91.7638 89.798 91.9732 89.8096 92.1826V94.2769H90.7506C90.9481 94.2885 91.1456 94.2187 91.3082 94.0907C91.436 93.986 91.5173 93.8348 91.5638 93.6835C91.6102 93.4974 91.6567 93.3112 91.6799 93.1251H91.9355C91.9123 93.4159 91.9007 93.6952 91.9007 93.9628V94.3933C91.9007 94.6958 91.9239 95.1146 91.9704 95.6614H91.7032C91.68 95.4637 91.6335 95.2659 91.5754 95.0681C91.5289 94.9052 91.4244 94.7656 91.2966 94.6608C91.134 94.5445 90.9365 94.4863 90.739 94.498H89.798V96.6388C89.7864 96.8482 89.8096 97.0576 89.8677 97.2554C89.9026 97.3718 89.9955 97.4648 90.1233 97.5114C90.3208 97.5696 90.5183 97.5812 90.7158 97.5812H91.5405C91.8426 97.5928 92.1562 97.5347 92.4234 97.4067C92.6558 97.2787 92.83 97.0693 92.923 96.8249C93.0507 96.4642 93.1321 96.0919 93.1553 95.708H93.4109C93.4109 95.9639 93.3992 96.2316 93.4109 96.5108Z" fill="white"/>
</g>
<defs>
<clipPath id="clip0_678_344">
<rect width="122" height="98" fill="white"/>
</clipPath>
</defs>
</svg>
