<svg width="264" height="101" viewBox="0 0 264 101" fill="none" xmlns="http://www.w3.org/2000/svg">
<g clip-path="url(#clip0_677_292)">
<path d="M77.4502 27C77.4406 38.962 77.431 50.9217 77.4238 62.8838C77.4238 65.8749 77.4238 68.8636 77.4238 71.8547V73.1849H71.2028V52.7362H48.6572V73.1565H42.4027C42.3835 72.7313 42.3499 72.3461 42.3499 71.961C42.3475 57.3245 42.3475 42.6856 42.3499 28.049C42.3499 27.6993 42.4075 27.3497 42.4387 26.9976C44.5179 26.9976 46.5948 26.9976 48.674 26.9976C48.65 27.1914 48.6069 27.3851 48.6069 27.5812C48.6021 33.9083 48.6021 40.2379 48.6069 46.565C48.6069 46.8249 48.674 47.0872 48.7124 47.3612H71.1717C71.1717 46.7989 71.1717 46.3311 71.1717 45.8633C71.186 39.5763 71.198 33.287 71.2124 27H77.4478H77.4502Z" fill="white"/>
<path d="M89.199 74C88.2374 73.7567 87.2565 73.5677 86.3188 73.2605C81.2346 71.5901 78.491 66.9145 79.5942 61.8584C80.1866 59.1508 81.9133 57.3458 84.3427 56.1243C86.9807 54.7965 89.861 54.3618 92.746 53.9176C94.9092 53.5845 97.0916 53.2749 99.202 52.7221C101.406 52.148 102.315 50.9572 102.416 49.1191C102.528 47.0707 101.66 45.6011 99.6505 44.7411C97.1467 43.6684 94.5327 43.4794 91.9306 44.3134C89.6355 45.0482 88.163 46.6076 87.6978 49.0009C87.645 49.2679 87.5539 49.5302 87.4699 49.8349H81.6279C81.7958 48.8922 81.8437 47.9968 82.1171 47.1722C83.7335 42.317 87.3093 39.659 92.3215 39.1251C94.8133 38.8605 97.4489 39.0542 99.9143 39.5551C104.668 40.5214 107.502 43.8126 108.121 48.5497C108.284 49.7948 108.351 51.0564 108.37 52.3133C108.469 58.4893 108.531 64.6652 108.627 70.8412C108.639 71.5807 108.776 72.3202 108.867 73.1566H102.55V67.7272C102.447 67.7012 102.341 67.6752 102.238 67.6516C101.238 69.9505 99.6648 71.7413 97.3602 72.736C96.0603 73.2983 94.6406 73.5866 93.2736 73.9977H89.1966L89.199 74ZM102.89 53.6223C102.725 53.5915 102.557 53.5632 102.392 53.5325C101.66 55.4958 100.063 56.5023 98.2091 57.1568C97.0124 57.5797 95.7677 57.8774 94.5327 58.1821C92.5254 58.6783 90.4773 59.0398 88.5036 59.6375C86.916 60.1195 85.7097 61.1425 85.3475 62.8767C84.7863 65.5583 86.1197 67.7556 88.9137 68.7384C94.3816 70.6616 100.382 67.843 101.85 62.3191C102.593 59.5218 102.569 56.5283 102.893 53.6223H102.89Z" fill="white"/>
<path d="M120.848 74C120.081 73.811 119.304 73.648 118.544 73.4283C114.042 72.1264 111.006 68.5211 110.862 63.4036C110.639 55.5809 110.805 47.7487 110.805 39.8315H116.628V41.2255C116.628 47.5621 116.606 53.8987 116.644 60.2353C116.652 61.5654 116.755 62.9192 117.038 64.2163C117.688 67.2145 119.757 68.8565 122.872 69.0361C128.966 69.3881 132.844 65.856 133.046 59.4202C133.235 53.3647 133.127 47.2998 133.149 41.2396C133.149 40.7766 133.149 40.3159 133.149 39.8032H138.991V73.1825H133.221V67.257C133.134 67.2429 133.046 67.2263 132.959 67.2122C132.837 67.472 132.712 67.7319 132.592 67.9942C131.158 71.1105 128.753 73.0455 125.35 73.7732C125.122 73.8228 124.906 73.9244 124.686 74H120.848Z" fill="white"/>
<path d="M151.78 74C150.509 73.6858 149.212 73.4495 147.972 73.0408C143.209 71.472 140.288 67.7721 140.154 63.1886H145.883C145.926 63.2405 146.001 63.2901 146.015 63.3539C146.612 65.8323 147.814 67.8548 150.476 68.5683C153.622 69.4118 156.737 69.4118 159.582 67.576C161.822 66.13 162.546 61.9316 158.869 60.5495C156.944 59.8265 154.872 59.4958 152.903 58.8696C150.56 58.1254 148.099 57.5418 145.967 56.3912C139.475 52.8945 139.329 45.008 145.653 41.1995C150.471 38.2981 155.594 38.1564 160.649 40.5639C164.436 42.369 166.309 45.5869 166.724 49.7877H161.03C161.011 49.7664 160.934 49.7168 160.92 49.653C159.62 44.5875 154.236 42.3028 149.55 44.845C148.066 45.6507 147.018 46.7918 147.001 48.5591C146.984 50.3051 147.994 51.5455 149.512 52.122C151.881 53.0221 154.373 53.5962 156.781 54.4019C158.922 55.1178 161.172 55.699 163.11 56.7953C168.115 59.6281 168.827 65.7615 164.803 69.8772C162.606 72.1217 159.814 73.2014 156.769 73.759C156.462 73.8157 156.162 73.9173 155.857 73.9976H151.78V74Z" fill="white"/>
<path d="M6.23535 27V73.2936H0V27H6.23535Z" fill="white"/>
<path d="M176 73.2936H168.877V65.7355H176V73.2936Z" fill="white"/>
<path d="M16.2502 73.1896H10.4082V39.8149H16.2335V45.7664C16.3054 45.7759 16.375 45.7877 16.4469 45.7971C16.6196 45.4191 16.7779 45.0364 16.9649 44.6678C18.7084 41.1971 21.5671 39.2833 25.469 39.0613C27.0446 38.9715 28.685 39.0731 30.2198 39.4156C35.304 40.5544 38.4793 44.519 38.5896 50.1066C38.7359 57.6174 38.6567 65.133 38.6711 72.6485C38.6711 72.7998 38.6208 72.951 38.58 73.1778H32.8531C32.8291 72.7289 32.7835 72.2776 32.7835 71.8263C32.7787 65.4141 32.8243 58.9996 32.7499 52.5897C32.7308 50.9997 32.4981 49.3671 32.0689 47.8337C31.5197 45.8798 30.0759 44.6182 28.0327 44.2047C22.9365 43.1722 17.8187 44.897 16.5812 51.7132C16.3366 53.0575 16.279 54.4491 16.2694 55.8218C16.2359 61.133 16.255 66.4443 16.255 71.7555C16.255 72.1855 16.255 72.6155 16.255 73.1943L16.2502 73.1896Z" fill="white"/>
</g>
<defs>
<clipPath id="clip0_677_292">
<rect width="176" height="47" fill="white" transform="translate(0 27)"/>
</clipPath>
</defs>
</svg>
