<svg width="176" height="47" viewBox="0 0 176 47" fill="none" xmlns="http://www.w3.org/2000/svg">
<g clip-path="url(#clip0_677_328)">
<path d="M77.4502 -1.77308e-05C77.4406 11.962 77.431 23.9217 77.4238 35.8838C77.4238 38.8749 77.4238 41.8636 77.4238 44.8547V46.1849H71.2028V25.7362H48.6572V46.1565H42.4027C42.3835 45.7313 42.3499 45.3461 42.3499 44.961C42.3475 30.3245 42.3475 15.6856 42.3499 1.04899C42.3499 0.699324 42.4075 0.349653 42.4387 -0.00238037C44.5179 -0.00238037 46.5948 -0.00238037 48.674 -0.00238037C48.65 0.191356 48.6069 0.385093 48.6069 0.581192C48.6021 6.90834 48.6021 13.2379 48.6069 19.565C48.6069 19.8249 48.674 20.0872 48.7124 20.3612H71.1717C71.1717 19.7989 71.1717 19.3311 71.1717 18.8633C71.186 12.5763 71.198 6.28697 71.2124 -1.77308e-05H77.4478H77.4502Z" fill="white"/>
<path d="M89.199 47C88.2374 46.7567 87.2565 46.5677 86.3188 46.2605C81.2346 44.5901 78.491 39.9145 79.5942 34.8584C80.1866 32.1508 81.9133 30.3458 84.3427 29.1243C86.9807 27.7965 89.861 27.3618 92.746 26.9176C94.9092 26.5845 97.0916 26.2749 99.202 25.7221C101.406 25.148 102.315 23.9572 102.416 22.1191C102.528 20.0707 101.66 18.6011 99.6505 17.7411C97.1467 16.6684 94.5327 16.4794 91.9306 17.3134C89.6355 18.0482 88.163 19.6076 87.6978 22.0009C87.645 22.2679 87.5539 22.5302 87.4699 22.8349H81.6279C81.7958 21.8922 81.8437 20.9968 82.1171 20.1722C83.7335 15.317 87.3093 12.659 92.3215 12.1251C94.8133 11.8605 97.4489 12.0542 99.9143 12.5551C104.668 13.5214 107.502 16.8126 108.121 21.5497C108.284 22.7948 108.351 24.0564 108.37 25.3133C108.469 31.4893 108.531 37.6652 108.627 43.8412C108.639 44.5807 108.776 45.3202 108.867 46.1566H102.55V40.7272C102.447 40.7012 102.341 40.6752 102.238 40.6516C101.238 42.9505 99.6648 44.7413 97.3602 45.736C96.0603 46.2983 94.6406 46.5866 93.2736 46.9977H89.1966L89.199 47ZM102.89 26.6223C102.725 26.5915 102.557 26.5632 102.392 26.5325C101.66 28.4958 100.063 29.5023 98.2091 30.1568C97.0124 30.5797 95.7677 30.8774 94.5327 31.1821C92.5254 31.6783 90.4773 32.0398 88.5036 32.6375C86.916 33.1195 85.7097 34.1425 85.3475 35.8767C84.7863 38.5583 86.1197 40.7556 88.9137 41.7384C94.3816 43.6616 100.382 40.843 101.85 35.3191C102.593 32.5218 102.569 29.5283 102.893 26.6223H102.89Z" fill="white"/>
<path d="M120.848 47C120.081 46.811 119.304 46.648 118.544 46.4283C114.042 45.1264 111.006 41.5211 110.862 36.4036C110.639 28.5809 110.805 20.7487 110.805 12.8315H116.628V14.2255C116.628 20.5621 116.606 26.8987 116.644 33.2353C116.652 34.5654 116.755 35.9192 117.038 37.2163C117.688 40.2145 119.757 41.8565 122.872 42.0361C128.966 42.3881 132.844 38.856 133.046 32.4202C133.235 26.3647 133.127 20.2998 133.149 14.2396C133.149 13.7766 133.149 13.3159 133.149 12.8032H138.991V46.1825H133.221V40.257C133.134 40.2429 133.046 40.2263 132.959 40.2122C132.837 40.472 132.712 40.7319 132.592 40.9942C131.158 44.1105 128.753 46.0455 125.35 46.7732C125.122 46.8228 124.906 46.9244 124.686 47H120.848Z" fill="white"/>
<path d="M151.78 47C150.509 46.6858 149.212 46.4495 147.972 46.0408C143.209 44.472 140.288 40.7721 140.154 36.1886H145.883C145.926 36.2405 146.001 36.2901 146.015 36.3539C146.612 38.8323 147.814 40.8548 150.476 41.5683C153.622 42.4118 156.737 42.4118 159.582 40.576C161.822 39.13 162.546 34.9316 158.869 33.5495C156.944 32.8265 154.872 32.4958 152.903 31.8696C150.56 31.1254 148.099 30.5418 145.967 29.3912C139.475 25.8945 139.329 18.008 145.653 14.1995C150.471 11.2981 155.594 11.1564 160.649 13.5639C164.436 15.369 166.309 18.5869 166.724 22.7877H161.03C161.011 22.7664 160.934 22.7168 160.92 22.653C159.62 17.5875 154.236 15.3028 149.55 17.845C148.066 18.6507 147.018 19.7918 147.001 21.5591C146.984 23.3051 147.994 24.5455 149.512 25.122C151.881 26.0221 154.373 26.5962 156.781 27.4019C158.922 28.1178 161.172 28.699 163.11 29.7953C168.115 32.6281 168.827 38.7615 164.803 42.8772C162.606 45.1217 159.814 46.2014 156.769 46.759C156.462 46.8157 156.162 46.9173 155.857 46.9976H151.78V47Z" fill="white"/>
<path d="M6.23535 0V46.2936H0V0H6.23535Z" fill="white"/>
<path d="M176 46.2936H168.877V38.7355H176V46.2936Z" fill="white"/>
<path d="M16.2502 46.1896H10.4082V12.8149H16.2335V18.7664C16.3054 18.7759 16.375 18.7877 16.4469 18.7971C16.6196 18.4191 16.7779 18.0364 16.9649 17.6678C18.7084 14.1971 21.5671 12.2833 25.469 12.0613C27.0446 11.9715 28.685 12.0731 30.2198 12.4156C35.304 13.5544 38.4793 17.519 38.5896 23.1066C38.7359 30.6174 38.6567 38.133 38.6711 45.6485C38.6711 45.7998 38.6208 45.951 38.58 46.1778H32.8531C32.8291 45.7289 32.7835 45.2776 32.7835 44.8263C32.7787 38.4141 32.8243 31.9996 32.7499 25.5897C32.7308 23.9997 32.4981 22.3671 32.0689 20.8337C31.5197 18.8798 30.0759 17.6182 28.0327 17.2047C22.9365 16.1722 17.8187 17.897 16.5812 24.7132C16.3366 26.0575 16.279 27.4491 16.2694 28.8218C16.2359 34.133 16.255 39.4443 16.255 44.7555C16.255 45.1855 16.255 45.6155 16.255 46.1943L16.2502 46.1896Z" fill="white"/>
</g>
<defs>
<clipPath id="clip0_677_328">
<rect width="176" height="47" fill="white"/>
</clipPath>
</defs>
</svg>
