<svg width="176" height="58" viewBox="0 0 176 58" fill="none" xmlns="http://www.w3.org/2000/svg">
<path d="M71.3801 44.1062C71.38 44.0632 71.3959 44.0216 71.4246 43.9899C71.4534 43.9581 71.4929 43.9385 71.5353 43.9349H72.5509C72.5958 43.9349 72.6388 43.953 72.6706 43.9851C72.7023 44.0172 72.7201 44.0608 72.7201 44.1062V47.5046C72.7164 47.642 72.7398 47.7787 72.7892 47.9068C72.8385 48.0348 72.9128 48.1515 73.0074 48.2501C73.1021 48.3486 73.2154 48.4269 73.3404 48.4803C73.4655 48.5337 73.5999 48.5612 73.7357 48.5612C73.8733 48.5631 74.0099 48.5371 74.1374 48.4847C74.2649 48.4323 74.3807 48.3545 74.478 48.256C74.5753 48.1575 74.6521 48.0402 74.7039 47.9112C74.7557 47.7821 74.7814 47.6439 74.7795 47.5046V44.1062C74.7775 44.0845 74.7801 44.0625 74.787 44.0417C74.7939 44.021 74.805 44.002 74.8197 43.9858C74.8343 43.9697 74.852 43.9568 74.8718 43.9481C74.8917 43.9393 74.9131 43.9348 74.9347 43.9349H75.9503C75.9927 43.9385 76.0322 43.9581 76.0609 43.9899C76.0897 44.0216 76.1056 44.0632 76.1054 44.1062V47.576C76.0594 48.1784 75.7905 48.741 75.3525 49.1514C74.9145 49.5619 74.3396 49.7898 73.7428 49.7898C73.1459 49.7898 72.571 49.5619 72.133 49.1514C71.695 48.741 71.4261 48.1784 71.3801 47.576V44.1062ZM81.1833 44.0063C81.1832 43.9863 81.1873 43.9665 81.1952 43.9481C81.2032 43.9298 81.2149 43.9134 81.2295 43.8999C81.2441 43.8865 81.2614 43.8763 81.2802 43.87C81.299 43.8637 81.3188 43.8615 81.3385 43.8635H81.5501L84.8648 47.1619V44.1062C84.8647 44.0632 84.8806 44.0216 84.9093 43.9899C84.9381 43.9581 84.9776 43.9385 85.02 43.9349H86.0215C86.0639 43.9385 86.1034 43.9581 86.1321 43.9899C86.1609 44.0216 86.1768 44.0632 86.1766 44.1062V49.8177C86.1766 49.8594 86.1603 49.8993 86.1312 49.9288C86.1021 49.9582 86.0626 49.9748 86.0215 49.9748H85.8945H85.7817L82.4951 46.6336V49.7606C82.4953 49.8037 82.4794 49.8452 82.4506 49.877C82.4219 49.9087 82.3824 49.9284 82.34 49.9319H81.3385C81.2972 49.9255 81.2594 49.9051 81.2311 49.8739C81.2029 49.8427 81.1861 49.8028 81.1833 49.7606V44.0063ZM91.3392 44.1062C91.339 44.0632 91.3549 44.0216 91.3837 43.9899C91.4124 43.9581 91.4519 43.9385 91.4943 43.9349H93.5255C94.263 43.9869 94.9535 44.3201 95.4578 44.8674C95.9621 45.4146 96.2425 46.1351 96.2425 46.8834C96.2425 47.6318 95.9621 48.3523 95.4578 48.8995C94.9535 49.4468 94.263 49.78 93.5255 49.832H91.4943C91.4519 49.8284 91.4124 49.8088 91.3837 49.777C91.3549 49.7453 91.339 49.7037 91.3392 49.6607V44.1062ZM93.4409 48.5897C93.886 48.5897 94.313 48.4107 94.6278 48.0921C94.9426 47.7734 95.1194 47.3412 95.1194 46.8906C95.1194 46.4399 94.9426 46.0078 94.6278 45.6891C94.313 45.3704 93.886 45.1914 93.4409 45.1914H92.6369V48.5897H93.4409ZM101.213 44.1062C101.213 44.0632 101.229 44.0216 101.257 43.9899C101.286 43.9581 101.326 43.9385 101.368 43.9349H104.81C104.831 43.9348 104.853 43.9393 104.873 43.9481C104.892 43.9568 104.91 43.9697 104.925 43.9858C104.939 44.002 104.95 44.021 104.957 44.0417C104.964 44.0625 104.967 44.0845 104.965 44.1062V45.0201C104.967 45.0413 104.965 45.0627 104.958 45.0828C104.951 45.1028 104.939 45.1211 104.924 45.1361C104.91 45.1512 104.891 45.1627 104.872 45.1698C104.852 45.1769 104.831 45.1794 104.81 45.1771H102.482V46.2195H104.372C104.415 46.2193 104.456 46.2354 104.487 46.2645C104.519 46.2936 104.538 46.3336 104.542 46.3766V47.2904C104.542 47.3358 104.524 47.3794 104.492 47.4116C104.46 47.4437 104.417 47.4617 104.372 47.4617H102.482V48.5897H104.782C104.823 48.5897 104.862 48.6063 104.891 48.6358C104.92 48.6652 104.937 48.7052 104.937 48.7468V49.6607C104.939 49.6824 104.936 49.7044 104.929 49.7252C104.922 49.7459 104.911 49.7649 104.897 49.7811C104.882 49.7972 104.864 49.8101 104.844 49.8188C104.825 49.8276 104.803 49.8321 104.782 49.832H101.34C101.297 49.8284 101.258 49.8088 101.229 49.777C101.2 49.7453 101.185 49.7037 101.185 49.6607L101.213 44.1062ZM109.817 44.1062C109.817 44.0632 109.833 44.0216 109.862 43.9899C109.89 43.9581 109.93 43.9385 109.972 43.9349H112.497C112.926 43.922 113.344 44.0662 113.676 44.341C114.008 44.6158 114.23 45.0027 114.302 45.4304C114.374 45.8581 114.291 46.2978 114.068 46.6685C113.846 47.0391 113.498 47.3158 113.09 47.4475L114.218 49.5893C114.234 49.6138 114.243 49.6423 114.243 49.6715C114.244 49.7008 114.237 49.7297 114.222 49.755C114.207 49.7802 114.186 49.8008 114.16 49.8144C114.135 49.828 114.106 49.8341 114.077 49.832H112.977C112.949 49.8336 112.922 49.8261 112.899 49.8106C112.876 49.7952 112.859 49.7726 112.85 49.7463L111.735 47.5188H111.087V49.6607C111.083 49.705 111.064 49.7467 111.033 49.7781C111.002 49.8096 110.961 49.8287 110.917 49.832H109.93C109.888 49.8284 109.848 49.8088 109.819 49.777C109.791 49.7453 109.775 49.7037 109.775 49.6607L109.817 44.1062ZM112.356 46.4479C112.527 46.4406 112.688 46.3666 112.807 46.2416C112.925 46.1165 112.991 45.95 112.991 45.7768C112.987 45.6089 112.919 45.4491 112.8 45.3317C112.681 45.2143 112.522 45.1485 112.356 45.1486H111.087V46.4479H112.356ZM118.605 44.1491C118.595 44.1244 118.592 44.0977 118.595 44.0714C118.599 44.0451 118.609 44.0201 118.624 43.9987C118.64 43.9773 118.66 43.9603 118.684 43.9491C118.708 43.9379 118.734 43.9331 118.76 43.9349H119.733C119.766 43.9413 119.797 43.9566 119.821 43.9792C119.846 44.0019 119.865 44.031 119.874 44.0634L120.594 46.9191L121.891 43.9635C121.905 43.9372 121.925 43.9153 121.95 43.9001C121.975 43.885 122.003 43.8772 122.032 43.8778H122.173C122.203 43.8753 122.232 43.8823 122.258 43.8977C122.283 43.913 122.303 43.936 122.314 43.9635L123.612 46.9191L124.332 44.0634C124.34 44.0302 124.357 44.0002 124.383 43.9773C124.408 43.9544 124.439 43.9396 124.473 43.9349H125.446C125.472 43.9331 125.498 43.9379 125.522 43.9491C125.546 43.9603 125.566 43.9773 125.582 43.9987C125.597 44.0201 125.607 44.0451 125.61 44.0714C125.614 44.0977 125.611 44.1244 125.601 44.1491L124.021 49.8606C124.013 49.8938 123.995 49.9238 123.97 49.9467C123.945 49.9696 123.914 49.9844 123.88 49.9891H123.781C123.751 49.9867 123.722 49.9762 123.697 49.9586C123.673 49.941 123.653 49.917 123.64 49.8891L122.131 46.4479L120.622 49.8891C120.609 49.917 120.59 49.941 120.565 49.9586C120.54 49.9762 120.511 49.9867 120.481 49.9891H120.34C120.305 49.9865 120.273 49.9724 120.248 49.9492C120.222 49.9259 120.205 49.8948 120.199 49.8606L118.605 44.1491ZM130.284 44.1491C130.282 44.1273 130.285 44.1053 130.291 44.0846C130.298 44.0638 130.31 44.0448 130.324 44.0287C130.339 44.0125 130.357 43.9997 130.376 43.9909C130.396 43.9821 130.418 43.9776 130.439 43.9777H132.922C133.349 43.9686 133.765 44.1154 134.094 44.3914C134.423 44.6674 134.642 45.0541 134.712 45.4807C134.783 45.9072 134.699 46.3451 134.476 46.7142C134.253 47.0832 133.907 47.3587 133.5 47.4903L134.643 49.6321C134.658 49.6566 134.667 49.6851 134.668 49.7144C134.669 49.7437 134.661 49.7726 134.646 49.7978C134.632 49.8231 134.61 49.8437 134.585 49.8573C134.559 49.8709 134.53 49.877 134.501 49.8748H133.387C133.36 49.8744 133.334 49.8661 133.311 49.8509C133.289 49.8357 133.271 49.8143 133.26 49.7892L132.16 47.5617H131.582V49.7035C131.582 49.7466 131.566 49.7881 131.537 49.8199C131.508 49.8516 131.469 49.8712 131.427 49.8748H130.439C130.418 49.8749 130.396 49.8704 130.376 49.8617C130.357 49.8529 130.339 49.84 130.324 49.8239C130.31 49.8078 130.298 49.7887 130.291 49.768C130.285 49.7473 130.282 49.7253 130.284 49.7035V44.1491ZM132.809 46.4908C132.98 46.4834 133.141 46.4095 133.259 46.2844C133.378 46.1593 133.444 45.9928 133.444 45.8197C133.44 45.6518 133.371 45.492 133.253 45.3745C133.134 45.2571 132.975 45.1914 132.809 45.1914H131.582V46.4908H132.809ZM139.579 44.1491C139.579 44.106 139.595 44.0645 139.624 44.0327C139.653 44.001 139.692 43.9813 139.735 43.9777H140.708C140.75 43.9813 140.79 44.001 140.818 44.0327C140.847 44.0645 140.863 44.106 140.863 44.1491V49.7035C140.863 49.7466 140.847 49.7881 140.818 49.8199C140.79 49.8516 140.75 49.8712 140.708 49.8748H139.706C139.664 49.8712 139.624 49.8516 139.596 49.8199C139.567 49.7881 139.551 49.7466 139.551 49.7035L139.579 44.1491ZM146.801 45.22H145.616C145.575 45.22 145.536 45.2034 145.507 45.174C145.478 45.1445 145.461 45.1046 145.461 45.0629V44.1491C145.461 44.106 145.477 44.0645 145.506 44.0327C145.535 44.001 145.574 43.9813 145.616 43.9777H149.312C149.354 43.9813 149.394 44.001 149.423 44.0327C149.451 44.0645 149.467 44.106 149.467 44.1491V45.0629C149.467 45.1046 149.451 45.1445 149.422 45.174C149.393 45.2034 149.353 45.22 149.312 45.22H148.113V49.7035C148.113 49.7466 148.097 49.7881 148.069 49.8199C148.04 49.8516 148 49.8712 147.958 49.8748H146.956C146.915 49.8684 146.877 49.8479 146.849 49.8168C146.821 49.7856 146.804 49.7457 146.801 49.7035V45.22ZM154.037 44.1491C154.037 44.106 154.053 44.0645 154.082 44.0327C154.111 44.001 154.15 43.9813 154.193 43.9777H155.18C155.224 43.981 155.265 44.0001 155.296 44.0316C155.327 44.063 155.346 44.1047 155.349 44.1491V49.7035C155.346 49.7478 155.327 49.7895 155.296 49.821C155.265 49.8524 155.224 49.8715 155.18 49.8748H154.193C154.15 49.8712 154.111 49.8516 154.082 49.8199C154.053 49.7881 154.037 49.7466 154.037 49.7035V44.1491ZM160.498 44.0491C160.501 44.01 160.519 43.9736 160.548 43.9472C160.576 43.9208 160.614 43.9062 160.653 43.9063H160.864L164.151 47.1619V44.1062C164.151 44.0632 164.167 44.0216 164.195 43.9899C164.224 43.9581 164.264 43.9385 164.306 43.9349H165.308C165.35 43.9385 165.389 43.9581 165.418 43.9899C165.447 44.0216 165.463 44.0632 165.463 44.1062V49.8177C165.463 49.8594 165.446 49.8993 165.417 49.9288C165.388 49.9582 165.349 49.9748 165.308 49.9748H165.166H165.068L161.866 46.5336V49.6607C161.868 49.6824 161.865 49.7044 161.858 49.7252C161.851 49.7459 161.84 49.7649 161.826 49.7811C161.811 49.7972 161.793 49.8101 161.773 49.8188C161.754 49.8276 161.732 49.8321 161.711 49.832H160.723C160.681 49.8284 160.641 49.8088 160.613 49.777C160.584 49.7453 160.568 49.7037 160.568 49.6607L160.498 44.0491ZM173.192 43.9063C173.938 43.925 174.655 44.2022 175.224 44.6917C175.241 44.705 175.255 44.7222 175.265 44.742C175.275 44.7619 175.28 44.7837 175.28 44.8059C175.28 44.8281 175.275 44.8499 175.265 44.8698C175.255 44.8896 175.241 44.9068 175.224 44.9201L174.575 45.6341C174.544 45.6622 174.504 45.6777 174.462 45.6777C174.42 45.6777 174.38 45.6622 174.349 45.6341C174.045 45.3658 173.652 45.2231 173.249 45.2343C172.807 45.2343 172.384 45.4118 172.072 45.7278C171.76 46.0437 171.584 46.4723 171.584 46.9191C171.584 47.366 171.76 47.7946 172.072 48.1105C172.384 48.4265 172.807 48.604 173.249 48.604C173.499 48.6101 173.748 48.5664 173.982 48.4755V47.99H173.46C173.419 47.99 173.38 47.9735 173.351 47.944C173.322 47.9146 173.305 47.8746 173.305 47.833V47.0048C173.303 46.9836 173.305 46.9622 173.313 46.9421C173.32 46.9221 173.331 46.9038 173.346 46.8888C173.361 46.8737 173.379 46.8622 173.398 46.8551C173.418 46.848 173.439 46.8455 173.46 46.8477H175.139C175.159 46.8476 175.178 46.8518 175.196 46.8598C175.214 46.8679 175.231 46.8797 175.244 46.8945C175.257 46.9093 175.267 46.9268 175.274 46.9458C175.28 46.9648 175.282 46.9849 175.28 47.0048V49.2608C175.297 49.3068 175.297 49.3577 175.28 49.4036C174.65 49.7591 173.942 49.9459 173.221 49.9462C172.465 49.8936 171.757 49.5525 171.24 48.992C170.723 48.4314 170.436 47.6931 170.436 46.9263C170.436 46.1594 170.723 45.4211 171.24 44.8606C171.757 44.3 172.465 43.959 173.221 43.9063H173.192Z" fill="white"/>
<path d="M81.0148 9.02523C83.5037 9.01684 85.9392 9.75501 88.0139 11.1466C90.0887 12.5381 91.7097 14.5207 92.6724 16.844C93.6351 19.1673 93.8963 21.7273 93.423 24.2007C92.9497 26.6742 91.7632 28.9503 90.0131 30.7417C88.2631 32.5331 86.0281 33.7596 83.5901 34.2663C81.1521 34.773 78.6205 34.5373 76.3147 33.5888C74.009 32.6403 72.0325 31.0216 70.6347 28.937C69.237 26.8524 68.4806 24.3954 68.4611 21.876C68.4443 20.1957 68.7566 18.5287 69.3798 16.9712C70.003 15.4138 70.9248 13.9967 72.092 12.8019C73.2592 11.6071 74.6487 10.6581 76.1802 10.0099C77.7117 9.3617 79.3549 9.02703 81.0148 9.02523V9.02523ZM81.0148 29.9149C82.6114 29.9234 84.1744 29.4513 85.5053 28.5587C86.8363 27.6661 87.8752 26.3932 88.49 24.9017C89.1048 23.4102 89.2679 21.7673 88.9585 20.1818C88.6491 18.5963 87.8811 17.1396 86.7522 15.9968C85.6232 14.854 84.1843 14.0766 82.618 13.7634C81.0517 13.4502 79.4288 13.6152 77.9554 14.2376C76.482 14.86 75.2245 15.9116 74.3427 17.259C73.461 18.6063 72.9946 20.1885 73.003 21.8046C73.0141 23.9521 73.8618 26.0085 75.3619 27.527C76.862 29.0456 78.8934 29.9037 81.0148 29.9149V29.9149ZM105.191 10.039C105.195 9.86217 105.266 9.69358 105.39 9.56851C105.513 9.44344 105.68 9.37156 105.854 9.36791H114.078C115.131 9.32259 116.182 9.49344 117.169 9.87018C118.155 10.2469 119.056 10.8218 119.817 11.5601C120.578 12.2985 121.183 13.1851 121.597 14.1665C122.011 15.148 122.224 16.2041 122.224 17.2712C122.224 18.3383 122.011 19.3943 121.597 20.3758C121.183 21.3573 120.578 22.2439 119.817 22.9822C119.056 23.7206 118.155 24.2954 117.169 24.6721C116.182 25.0489 115.131 25.2197 114.078 25.1744H109.705V33.4989C109.698 33.6746 109.626 33.8412 109.503 33.9656C109.38 34.09 109.216 34.1629 109.042 34.17H105.854C105.678 34.17 105.51 34.0993 105.386 33.9734C105.261 33.8475 105.191 33.6769 105.191 33.4989V10.039ZM113.81 20.848C114.284 20.848 114.754 20.7529 115.193 20.5681C115.631 20.3833 116.029 20.1126 116.363 19.7714C116.697 19.4303 116.962 19.0255 117.141 18.5805C117.32 18.1354 117.41 17.6589 117.407 17.1783C117.394 16.7139 117.291 16.2566 117.103 15.8327C116.915 15.4088 116.646 15.0266 116.312 14.7082C115.977 14.3897 115.584 14.1413 115.155 13.9771C114.726 13.8129 114.268 13.7362 113.81 13.7515H109.747V20.8908L113.81 20.848ZM128.352 33.2561L139.298 9.41075C139.347 9.29329 139.429 9.19353 139.535 9.12469C139.641 9.05584 139.765 9.02115 139.89 9.02523H140.243C140.37 9.0145 140.497 9.04646 140.604 9.11617C140.711 9.18588 140.792 9.28943 140.836 9.41075L151.612 33.2561C151.667 33.3544 151.694 33.4662 151.691 33.5791C151.687 33.6921 151.653 33.8019 151.592 33.8964C151.531 33.9909 151.445 34.0664 151.344 34.1147C151.243 34.163 151.131 34.1821 151.02 34.17H147.973C147.75 34.1807 147.529 34.1166 147.345 33.9875C147.162 33.8584 147.025 33.6716 146.957 33.456L145.25 29.6436H134.728L133.007 33.456C132.933 33.6678 132.795 33.8507 132.613 33.9788C132.431 34.1069 132.213 34.1738 131.991 34.17H128.945C128.834 34.1821 128.722 34.163 128.621 34.1147C128.52 34.0664 128.434 33.9909 128.373 33.8964C128.311 33.8019 128.277 33.6921 128.273 33.5791C128.27 33.4662 128.297 33.3544 128.352 33.2561V33.2561ZM143.53 25.7455L140.032 17.9494H139.933L136.477 25.7455H143.53ZM161.867 10.039C161.87 9.86217 161.941 9.69358 162.065 9.56851C162.188 9.44344 162.355 9.37156 162.53 9.36791H165.746C165.919 9.37495 166.084 9.44792 166.207 9.57228C166.329 9.69664 166.402 9.86328 166.408 10.039V29.9149H175.337C175.512 29.9186 175.678 29.9904 175.802 30.1155C175.926 30.2406 175.997 30.4092 176 30.586V33.4418C176 33.6197 175.93 33.7904 175.806 33.9163C175.682 34.0421 175.513 34.1128 175.337 34.1128H162.53C162.354 34.1128 162.185 34.0421 162.061 33.9163C161.936 33.7904 161.867 33.6197 161.867 33.4418V10.039Z" fill="url(#paint0_linear_687_263)"/>
<path d="M9.58874 45.0791C8.42294 42.445 7.917 39.5604 8.11575 36.681C8.31451 33.8017 9.21182 31.0164 10.7282 28.572C12.2445 26.1276 14.3331 24.0995 16.8088 22.6676C19.2846 21.2356 22.071 20.4439 24.9212 20.3627H24.7943C23.6656 20.8851 22.6513 21.6303 21.8108 22.5546C20.9703 23.479 20.3206 24.5639 19.8997 25.7458C19.3569 27.2122 19.1872 28.7933 19.406 30.3435C19.8168 30.0795 20.2705 29.891 20.7461 29.7866C20.6358 28.5718 20.7948 27.3474 21.2115 26.2027C21.9197 24.3107 23.3054 22.7578 25.0931 21.853C26.8808 20.9482 28.9394 20.7577 30.8596 21.3194C30.2725 22.2058 29.9628 23.2507 29.9709 24.3179C29.9672 25.5526 30.3797 26.7516 31.1401 27.717C31.9005 28.6824 32.9634 29.3564 34.1533 29.6276C35.3432 29.8989 36.5889 29.7513 37.6847 29.2091C38.7805 28.6669 39.6609 27.7626 40.1804 26.6455C40.6999 25.5284 40.8276 24.2653 40.5422 23.0649C40.2568 21.8645 39.5756 20.7985 38.6109 20.0429C37.6462 19.2874 36.4558 18.8875 35.2363 18.9093C34.0168 18.9311 32.8411 19.3733 31.9034 20.1628C27.284 18.5152 22.2108 18.7661 17.772 20.8615C13.3333 22.957 9.88271 26.7301 8.16059 31.3713C6.43847 36.0126 6.58202 41.1523 8.56043 45.6877C10.5388 50.223 14.1945 53.7928 18.7431 55.631L19.2368 54.3031C17.1055 53.4886 15.1553 52.2538 13.4991 50.6704C11.8429 49.087 10.5137 47.1865 9.58874 45.0791V45.0791ZM35.3169 20.3056C36.094 20.3056 36.8537 20.5386 37.5003 20.9751C38.1468 21.4115 38.6512 22.032 38.9499 22.7583C39.2486 23.4846 39.3281 24.2841 39.1786 25.0561C39.029 25.8281 38.657 26.538 38.1094 27.0962C37.5619 27.6545 36.8633 28.0361 36.1018 28.193C35.3402 28.35 34.5499 28.2751 33.8303 27.978C33.1107 27.6808 32.4942 27.1747 32.0584 26.5233C31.6226 25.872 31.387 25.1046 31.3815 24.3179C31.3777 23.7924 31.4768 23.2713 31.6729 22.7846C31.869 22.298 32.1583 21.8555 32.5241 21.4825C32.8899 21.1095 33.325 20.8135 33.8043 20.6116C34.2836 20.4096 34.7977 20.3056 35.3169 20.3056Z" fill="url(#paint1_linear_687_263)"/>
<path d="M38.6072 2.4552L38.1417 3.78312C41.8899 5.2199 45.0293 7.92901 47.0241 11.448C49.0189 14.967 49.7453 19.0778 49.0793 23.0786C48.4134 27.0794 46.3964 30.7223 43.3727 33.3853C40.349 36.0484 36.5059 37.5665 32.4996 37.6807C33.6319 37.1763 34.6532 36.4478 35.5035 35.5381C36.3537 34.6283 37.0157 33.5557 37.4505 32.3833C37.8654 31.2856 38.0666 30.1171 38.043 28.9421C37.6055 29.2098 37.1296 29.4073 36.6324 29.5275C36.5894 30.334 36.4229 31.1288 36.1387 31.8835C35.4308 33.7718 34.0466 35.3212 32.2615 36.2234C30.4764 37.1255 28.4212 37.3145 26.5048 36.7526L25.9265 36.5669C25.5587 36.4355 25.2044 36.2681 24.8686 36.0672C25.2993 35.4652 25.5576 34.7547 25.6152 34.0137C25.6727 33.2727 25.5273 32.53 25.1949 31.8673C24.8624 31.2046 24.3559 30.6475 23.7309 30.2574C23.106 29.8673 22.3868 29.6592 21.6526 29.6561C21.2989 29.6562 20.9472 29.7091 20.6088 29.8131C20.2168 29.9216 19.8417 30.085 19.4945 30.2986C18.7039 30.909 18.1678 31.7969 17.9918 32.7875C17.8158 33.7781 18.0126 34.7995 18.5436 35.6504C19.0745 36.5014 19.901 37.1202 20.8602 37.385C21.8195 37.6498 22.8419 37.5413 23.7261 37.081C24.24 37.4077 24.7831 37.6849 25.3482 37.9091L26.0252 38.1376C30.5016 39.6766 35.3891 39.4316 39.6933 37.4522C43.0645 35.9098 45.9085 33.3907 47.8663 30.2131C49.824 27.0354 50.8076 23.3418 50.6929 19.5986C50.5782 15.8554 49.3703 12.2306 47.2218 9.1819C45.0732 6.13321 42.0804 3.79741 38.6213 2.46948L38.6072 2.4552ZM21.5679 36.2671C21.0602 36.2671 20.5639 36.1147 20.1417 35.8291C19.7195 35.5436 19.3905 35.1377 19.1962 34.6628C19.0019 34.188 18.951 33.6655 19.0501 33.1614C19.1492 32.6573 19.3937 32.1942 19.7527 31.8308C20.1117 31.4674 20.5691 31.2198 21.0671 31.1196C21.5651 31.0193 22.0813 31.0708 22.5504 31.2675C23.0194 31.4642 23.4204 31.7972 23.7025 32.2246C23.9845 32.6519 24.1351 33.1544 24.1351 33.6684C24.1351 34.3576 23.8646 35.0186 23.3832 35.5059C22.9018 35.9933 22.2488 36.2671 21.5679 36.2671Z" fill="white"/>
<path d="M28.6892 58C21.6146 58.0103 14.7864 55.3703 9.51976 50.5885C4.25318 45.8067 0.920731 39.2213 0.164294 32.1008C-0.592143 24.9802 1.28093 17.8282 5.42275 12.0222C9.56456 6.21618 15.6822 2.16691 22.5972 0.654295C29.5123 -0.858318 36.7357 0.27272 42.8761 3.82956C49.0165 7.3864 53.6397 13.1175 55.8551 19.9189C58.0704 26.7203 57.7214 34.111 54.8751 40.6674C52.0288 47.2238 46.8866 52.4822 40.4389 55.4298C36.7459 57.1177 32.7412 57.9936 28.6892 58V58ZM28.6892 2.18467C22.0639 2.1732 15.6738 4.67006 10.7743 9.18472C5.87476 13.6994 2.82006 19.9055 2.21028 26.5838C1.6005 33.2621 3.47971 39.9299 7.47873 45.2771C11.4777 50.6244 17.3075 54.2646 23.8227 55.4826C30.3378 56.7007 37.0675 55.4085 42.6895 51.8599C48.3115 48.3113 52.4194 42.7629 54.2063 36.3047C55.9932 29.8464 55.3298 22.9452 52.3465 16.9568C49.3633 10.9685 44.2757 6.3258 38.0834 3.94095C35.074 2.78127 31.8811 2.18613 28.661 2.18467H28.6892Z" fill="url(#paint2_linear_687_263)"/>
<defs>
<linearGradient id="paint0_linear_687_263" x1="68.4611" y1="21.7761" x2="175.873" y2="21.7761" gradientUnits="userSpaceOnUse">
<stop stop-color="#F19605"/>
<stop offset="1" stop-color="#D65414"/>
</linearGradient>
<linearGradient id="paint1_linear_687_263" x1="6.96553" y1="37.2712" x2="40.6512" y2="37.2712" gradientUnits="userSpaceOnUse">
<stop stop-color="#D65414"/>
<stop offset="1" stop-color="#F19605"/>
</linearGradient>
<linearGradient id="paint2_linear_687_263" x1="0.000341673" y1="29.0024" x2="57.2283" y2="29.0024" gradientUnits="userSpaceOnUse">
<stop stop-color="#D65414"/>
<stop offset="1" stop-color="#F19605"/>
</linearGradient>
</defs>
</svg>
