<svg width="264" height="101" viewBox="0 0 264 101" fill="none" xmlns="http://www.w3.org/2000/svg">
<path d="M71.3801 66.1062C71.38 66.0632 71.3959 66.0216 71.4246 65.9899C71.4534 65.9581 71.4929 65.9385 71.5353 65.9349H72.5509C72.5958 65.9349 72.6388 65.953 72.6706 65.9851C72.7023 66.0172 72.7201 66.0608 72.7201 66.1062V69.5046C72.7164 69.642 72.7398 69.7787 72.7892 69.9068C72.8385 70.0348 72.9128 70.1515 73.0074 70.2501C73.1021 70.3486 73.2154 70.4269 73.3404 70.4803C73.4655 70.5337 73.5999 70.5612 73.7357 70.5612C73.8733 70.5631 74.0099 70.5371 74.1374 70.4847C74.2649 70.4323 74.3807 70.3545 74.478 70.256C74.5753 70.1575 74.6521 70.0402 74.7039 69.9112C74.7557 69.7821 74.7814 69.6439 74.7795 69.5046V66.1062C74.7775 66.0845 74.7801 66.0625 74.787 66.0417C74.7939 66.021 74.805 66.002 74.8197 65.9858C74.8343 65.9697 74.852 65.9568 74.8718 65.9481C74.8917 65.9393 74.9131 65.9348 74.9347 65.9349H75.9503C75.9927 65.9385 76.0322 65.9581 76.0609 65.9899C76.0897 66.0216 76.1056 66.0632 76.1054 66.1062V69.576C76.0594 70.1784 75.7905 70.741 75.3525 71.1514C74.9145 71.5619 74.3396 71.7898 73.7428 71.7898C73.1459 71.7898 72.571 71.5619 72.133 71.1514C71.695 70.741 71.4261 70.1784 71.3801 69.576V66.1062ZM81.1833 66.0063C81.1832 65.9863 81.1873 65.9665 81.1952 65.9481C81.2032 65.9298 81.2149 65.9134 81.2295 65.8999C81.2441 65.8865 81.2614 65.8763 81.2802 65.87C81.299 65.8637 81.3188 65.8615 81.3385 65.8635H81.5501L84.8648 69.1619V66.1062C84.8647 66.0632 84.8806 66.0216 84.9093 65.9899C84.9381 65.9581 84.9776 65.9385 85.02 65.9349H86.0215C86.0639 65.9385 86.1034 65.9581 86.1321 65.9899C86.1609 66.0216 86.1768 66.0632 86.1766 66.1062V71.8177C86.1766 71.8594 86.1603 71.8993 86.1312 71.9288C86.1021 71.9582 86.0626 71.9748 86.0215 71.9748H85.8945H85.7817L82.4951 68.6336V71.7606C82.4953 71.8037 82.4794 71.8452 82.4506 71.877C82.4219 71.9087 82.3824 71.9284 82.34 71.9319H81.3385C81.2972 71.9255 81.2594 71.9051 81.2311 71.8739C81.2029 71.8427 81.1861 71.8028 81.1833 71.7606V66.0063ZM91.3392 66.1062C91.339 66.0632 91.3549 66.0216 91.3837 65.9899C91.4124 65.9581 91.4519 65.9385 91.4943 65.9349H93.5255C94.263 65.9869 94.9535 66.3201 95.4578 66.8674C95.9621 67.4146 96.2425 68.1351 96.2425 68.8834C96.2425 69.6318 95.9621 70.3523 95.4578 70.8995C94.9535 71.4468 94.263 71.78 93.5255 71.832H91.4943C91.4519 71.8284 91.4124 71.8088 91.3837 71.777C91.3549 71.7453 91.339 71.7037 91.3392 71.6607V66.1062ZM93.4409 70.5897C93.886 70.5897 94.313 70.4107 94.6278 70.0921C94.9426 69.7734 95.1194 69.3412 95.1194 68.8906C95.1194 68.4399 94.9426 68.0078 94.6278 67.6891C94.313 67.3704 93.886 67.1914 93.4409 67.1914H92.6369V70.5897H93.4409ZM101.213 66.1062C101.213 66.0632 101.229 66.0216 101.257 65.9899C101.286 65.9581 101.326 65.9385 101.368 65.9349H104.81C104.831 65.9348 104.853 65.9393 104.873 65.9481C104.892 65.9568 104.91 65.9697 104.925 65.9858C104.939 66.002 104.95 66.021 104.957 66.0417C104.964 66.0625 104.967 66.0845 104.965 66.1062V67.0201C104.967 67.0413 104.965 67.0627 104.958 67.0827C104.951 67.1028 104.939 67.1211 104.924 67.1361C104.91 67.1512 104.891 67.1627 104.872 67.1698C104.852 67.1769 104.831 67.1794 104.81 67.1771H102.482V68.2195H104.372C104.415 68.2193 104.456 68.2354 104.487 68.2645C104.519 68.2936 104.538 68.3336 104.542 68.3766V69.2904C104.542 69.3358 104.524 69.3794 104.492 69.4116C104.46 69.4437 104.417 69.4617 104.372 69.4617H102.482V70.5897H104.782C104.823 70.5897 104.862 70.6063 104.891 70.6358C104.92 70.6652 104.937 70.7052 104.937 70.7468V71.6607C104.939 71.6824 104.936 71.7044 104.929 71.7252C104.922 71.7459 104.911 71.7649 104.897 71.7811C104.882 71.7972 104.864 71.8101 104.844 71.8188C104.825 71.8276 104.803 71.8321 104.782 71.832H101.34C101.297 71.8284 101.258 71.8088 101.229 71.777C101.2 71.7453 101.185 71.7037 101.185 71.6607L101.213 66.1062ZM109.817 66.1062C109.817 66.0632 109.833 66.0216 109.862 65.9899C109.89 65.9581 109.93 65.9385 109.972 65.9349H112.497C112.926 65.922 113.344 66.0662 113.676 66.341C114.008 66.6158 114.23 67.0027 114.302 67.4304C114.374 67.8581 114.291 68.2978 114.068 68.6685C113.846 69.0391 113.498 69.3158 113.09 69.4475L114.218 71.5893C114.234 71.6138 114.243 71.6423 114.243 71.6715C114.244 71.7008 114.237 71.7297 114.222 71.755C114.207 71.7802 114.186 71.8008 114.16 71.8144C114.135 71.828 114.106 71.8341 114.077 71.832H112.977C112.949 71.8336 112.922 71.8261 112.899 71.8106C112.876 71.7952 112.859 71.7726 112.85 71.7463L111.735 69.5188H111.087V71.6607C111.083 71.705 111.064 71.7467 111.033 71.7781C111.002 71.8096 110.961 71.8287 110.917 71.832H109.93C109.888 71.8284 109.848 71.8088 109.819 71.777C109.791 71.7453 109.775 71.7037 109.775 71.6607L109.817 66.1062ZM112.356 68.4479C112.527 68.4406 112.688 68.3666 112.807 68.2416C112.925 68.1165 112.991 67.95 112.991 67.7768C112.987 67.6089 112.919 67.4491 112.8 67.3317C112.681 67.2143 112.522 67.1485 112.356 67.1486H111.087V68.4479H112.356ZM118.605 66.1491C118.595 66.1244 118.592 66.0977 118.595 66.0714C118.599 66.0451 118.609 66.0201 118.624 65.9987C118.64 65.9773 118.66 65.9603 118.684 65.9491C118.708 65.9379 118.734 65.9331 118.76 65.9349H119.733C119.766 65.9413 119.797 65.9566 119.821 65.9792C119.846 66.0019 119.865 66.031 119.874 66.0634L120.594 68.9191L121.891 65.9635C121.905 65.9372 121.925 65.9153 121.95 65.9001C121.975 65.885 122.003 65.8772 122.032 65.8778H122.173C122.203 65.8753 122.232 65.8823 122.258 65.8977C122.283 65.913 122.303 65.936 122.314 65.9635L123.612 68.9191L124.332 66.0634C124.34 66.0302 124.357 66.0002 124.383 65.9773C124.408 65.9544 124.439 65.9396 124.473 65.9349H125.446C125.472 65.9331 125.498 65.9379 125.522 65.9491C125.546 65.9603 125.566 65.9773 125.582 65.9987C125.597 66.0201 125.607 66.0451 125.61 66.0714C125.614 66.0977 125.611 66.1244 125.601 66.1491L124.021 71.8606C124.013 71.8938 123.995 71.9238 123.97 71.9467C123.945 71.9696 123.914 71.9844 123.88 71.9891H123.781C123.751 71.9867 123.722 71.9762 123.697 71.9586C123.673 71.941 123.653 71.917 123.64 71.8891L122.131 68.4479L120.622 71.8891C120.609 71.917 120.59 71.941 120.565 71.9586C120.54 71.9762 120.511 71.9867 120.481 71.9891H120.34C120.305 71.9865 120.273 71.9724 120.248 71.9492C120.222 71.9259 120.205 71.8948 120.199 71.8606L118.605 66.1491ZM130.284 66.1491C130.282 66.1273 130.285 66.1053 130.291 66.0846C130.298 66.0638 130.31 66.0448 130.324 66.0287C130.339 66.0125 130.357 65.9997 130.376 65.9909C130.396 65.9821 130.418 65.9776 130.439 65.9777H132.922C133.349 65.9686 133.765 66.1154 134.094 66.3914C134.423 66.6674 134.642 67.0541 134.712 67.4807C134.783 67.9072 134.699 68.3451 134.476 68.7142C134.253 69.0832 133.907 69.3587 133.5 69.4903L134.643 71.6321C134.658 71.6566 134.667 71.6851 134.668 71.7144C134.669 71.7437 134.661 71.7726 134.646 71.7978C134.632 71.8231 134.61 71.8437 134.585 71.8573C134.559 71.8709 134.53 71.877 134.501 71.8748H133.387C133.36 71.8744 133.334 71.8661 133.311 71.8509C133.289 71.8357 133.271 71.8143 133.26 71.7892L132.16 69.5617H131.582V71.7035C131.582 71.7466 131.566 71.7881 131.537 71.8199C131.508 71.8516 131.469 71.8712 131.427 71.8748H130.439C130.418 71.8749 130.396 71.8704 130.376 71.8617C130.357 71.8529 130.339 71.84 130.324 71.8239C130.31 71.8078 130.298 71.7887 130.291 71.768C130.285 71.7473 130.282 71.7253 130.284 71.7035V66.1491ZM132.809 68.4908C132.98 68.4834 133.141 68.4095 133.259 68.2844C133.378 68.1593 133.444 67.9928 133.444 67.8197C133.44 67.6518 133.371 67.492 133.253 67.3745C133.134 67.2571 132.975 67.1914 132.809 67.1914H131.582V68.4908H132.809ZM139.579 66.1491C139.579 66.106 139.595 66.0645 139.624 66.0327C139.653 66.001 139.692 65.9813 139.735 65.9777H140.708C140.75 65.9813 140.79 66.001 140.818 66.0327C140.847 66.0645 140.863 66.106 140.863 66.1491V71.7035C140.863 71.7466 140.847 71.7881 140.818 71.8199C140.79 71.8516 140.75 71.8712 140.708 71.8748H139.706C139.664 71.8712 139.624 71.8516 139.596 71.8199C139.567 71.7881 139.551 71.7466 139.551 71.7035L139.579 66.1491ZM146.801 67.22H145.616C145.575 67.22 145.536 67.2034 145.507 67.174C145.478 67.1445 145.461 67.1046 145.461 67.0629V66.1491C145.461 66.106 145.477 66.0645 145.506 66.0327C145.535 66.001 145.574 65.9813 145.616 65.9777H149.312C149.354 65.9813 149.394 66.001 149.423 66.0327C149.451 66.0645 149.467 66.106 149.467 66.1491V67.0629C149.467 67.1046 149.451 67.1445 149.422 67.174C149.393 67.2034 149.353 67.22 149.312 67.22H148.113V71.7035C148.113 71.7466 148.097 71.7881 148.069 71.8199C148.04 71.8516 148 71.8712 147.958 71.8748H146.956C146.915 71.8684 146.877 71.8479 146.849 71.8168C146.821 71.7856 146.804 71.7457 146.801 71.7035V67.22ZM154.037 66.1491C154.037 66.106 154.053 66.0645 154.082 66.0327C154.111 66.001 154.15 65.9813 154.193 65.9777H155.18C155.224 65.981 155.265 66.0001 155.296 66.0316C155.327 66.063 155.346 66.1047 155.349 66.1491V71.7035C155.346 71.7478 155.327 71.7895 155.296 71.821C155.265 71.8524 155.224 71.8715 155.18 71.8748H154.193C154.15 71.8712 154.111 71.8516 154.082 71.8199C154.053 71.7881 154.037 71.7466 154.037 71.7035V66.1491ZM160.498 66.0491C160.501 66.01 160.519 65.9736 160.548 65.9472C160.576 65.9208 160.614 65.9062 160.653 65.9063H160.864L164.151 69.1619V66.1062C164.151 66.0632 164.167 66.0216 164.195 65.9899C164.224 65.9581 164.264 65.9385 164.306 65.9349H165.308C165.35 65.9385 165.389 65.9581 165.418 65.9899C165.447 66.0216 165.463 66.0632 165.463 66.1062V71.8177C165.463 71.8594 165.446 71.8993 165.417 71.9288C165.388 71.9582 165.349 71.9748 165.308 71.9748H165.166H165.068L161.866 68.5336V71.6607C161.868 71.6824 161.865 71.7044 161.858 71.7252C161.851 71.7459 161.84 71.7649 161.826 71.7811C161.811 71.7972 161.793 71.8101 161.773 71.8188C161.754 71.8276 161.732 71.8321 161.711 71.832H160.723C160.681 71.8284 160.641 71.8088 160.613 71.777C160.584 71.7453 160.568 71.7037 160.568 71.6607L160.498 66.0491ZM173.192 65.9063C173.938 65.925 174.655 66.2022 175.224 66.6917C175.241 66.705 175.255 66.7222 175.265 66.742C175.275 66.7619 175.28 66.7837 175.28 66.8059C175.28 66.8281 175.275 66.8499 175.265 66.8698C175.255 66.8896 175.241 66.9068 175.224 66.9201L174.575 67.6341C174.544 67.6622 174.504 67.6777 174.462 67.6777C174.42 67.6777 174.38 67.6622 174.349 67.6341C174.045 67.3658 173.652 67.2231 173.249 67.2343C172.807 67.2343 172.384 67.4118 172.072 67.7278C171.76 68.0437 171.584 68.4723 171.584 68.9191C171.584 69.366 171.76 69.7946 172.072 70.1105C172.384 70.4265 172.807 70.604 173.249 70.604C173.499 70.6101 173.748 70.5664 173.982 70.4755V69.99H173.46C173.419 69.99 173.38 69.9735 173.351 69.944C173.322 69.9146 173.305 69.8746 173.305 69.833V69.0048C173.303 68.9836 173.305 68.9622 173.313 68.9421C173.32 68.9221 173.331 68.9038 173.346 68.8888C173.361 68.8737 173.379 68.8622 173.398 68.8551C173.418 68.848 173.439 68.8455 173.46 68.8477H175.139C175.159 68.8476 175.178 68.8518 175.196 68.8598C175.214 68.8679 175.231 68.8797 175.244 68.8945C175.257 68.9093 175.267 68.9268 175.274 68.9458C175.28 68.9648 175.282 68.9849 175.28 69.0048V71.2608C175.297 71.3068 175.297 71.3577 175.28 71.4036C174.65 71.7591 173.942 71.9459 173.221 71.9462C172.465 71.8936 171.757 71.5525 171.24 70.992C170.723 70.4314 170.436 69.6931 170.436 68.9263C170.436 68.1594 170.723 67.4211 171.24 66.8606C171.757 66.3 172.465 65.959 173.221 65.9063H173.192Z" fill="white"/>
<path d="M81.0148 31.0252C83.5037 31.0168 85.9392 31.755 88.0139 33.1466C90.0887 34.5381 91.7097 36.5207 92.6724 38.844C93.6351 41.1673 93.8963 43.7273 93.423 46.2007C92.9497 48.6742 91.7632 50.9503 90.0131 52.7417C88.2631 54.5331 86.0281 55.7596 83.5901 56.2663C81.1521 56.773 78.6205 56.5373 76.3147 55.5888C74.009 54.6403 72.0325 53.0216 70.6347 50.937C69.237 48.8524 68.4806 46.3954 68.4611 43.876C68.4443 42.1957 68.7566 40.5287 69.3798 38.9712C70.003 37.4138 70.9248 35.9967 72.092 34.8019C73.2592 33.6071 74.6487 32.6581 76.1802 32.0099C77.7117 31.3617 79.3549 31.027 81.0148 31.0252ZM81.0148 51.9149C82.6114 51.9234 84.1744 51.4513 85.5053 50.5587C86.8363 49.6661 87.8752 48.3932 88.49 46.9017C89.1048 45.4102 89.2679 43.7673 88.9585 42.1818C88.6491 40.5963 87.8811 39.1396 86.7522 37.9968C85.6232 36.854 84.1843 36.0766 82.618 35.7634C81.0517 35.4502 79.4288 35.6152 77.9554 36.2376C76.482 36.86 75.2245 37.9116 74.3427 39.259C73.461 40.6063 72.9946 42.1885 73.003 43.8046C73.0141 45.9521 73.8618 48.0085 75.3619 49.527C76.862 51.0456 78.8934 51.9037 81.0148 51.9149ZM105.191 32.039C105.195 31.8622 105.266 31.6936 105.39 31.5685C105.513 31.4434 105.68 31.3716 105.854 31.3679H114.078C115.131 31.3226 116.182 31.4934 117.169 31.8702C118.155 32.2469 119.056 32.8218 119.817 33.5601C120.578 34.2985 121.183 35.1851 121.597 36.1665C122.011 37.148 122.224 38.2041 122.224 39.2712C122.224 40.3383 122.011 41.3943 121.597 42.3758C121.183 43.3573 120.578 44.2439 119.817 44.9822C119.056 45.7206 118.155 46.2954 117.169 46.6721C116.182 47.0489 115.131 47.2197 114.078 47.1744H109.705V55.4989C109.698 55.6746 109.626 55.8412 109.503 55.9656C109.38 56.09 109.216 56.1629 109.042 56.17H105.854C105.678 56.17 105.51 56.0993 105.386 55.9734C105.261 55.8475 105.191 55.6769 105.191 55.4989V32.039ZM113.81 42.848C114.284 42.848 114.754 42.7529 115.193 42.5681C115.631 42.3833 116.029 42.1126 116.363 41.7714C116.697 41.4303 116.962 41.0255 117.141 40.5805C117.32 40.1354 117.41 39.6589 117.407 39.1783C117.394 38.7139 117.291 38.2566 117.103 37.8327C116.915 37.4088 116.646 37.0266 116.312 36.7082C115.977 36.3897 115.584 36.1413 115.155 35.9771C114.726 35.8129 114.268 35.7362 113.81 35.7515H109.747V42.8908L113.81 42.848ZM128.352 55.2561L139.298 31.4107C139.347 31.2933 139.429 31.1935 139.535 31.1247C139.641 31.0558 139.765 31.0212 139.89 31.0252H140.243C140.37 31.0145 140.497 31.0465 140.604 31.1162C140.711 31.1859 140.792 31.2894 140.836 31.4107L151.612 55.2561C151.667 55.3544 151.694 55.4662 151.691 55.5791C151.687 55.6921 151.653 55.8019 151.592 55.8964C151.531 55.9909 151.445 56.0664 151.344 56.1147C151.243 56.163 151.131 56.1821 151.02 56.17H147.973C147.75 56.1807 147.529 56.1166 147.345 55.9875C147.162 55.8584 147.025 55.6716 146.957 55.456L145.25 51.6436H134.728L133.007 55.456C132.933 55.6678 132.795 55.8507 132.613 55.9788C132.431 56.1069 132.213 56.1738 131.991 56.17H128.945C128.834 56.1821 128.722 56.163 128.621 56.1147C128.52 56.0664 128.434 55.9909 128.373 55.8964C128.311 55.8019 128.277 55.6921 128.273 55.5791C128.27 55.4662 128.297 55.3544 128.352 55.2561ZM143.53 47.7455L140.032 39.9494H139.933L136.477 47.7455H143.53ZM161.867 32.039C161.87 31.8622 161.941 31.6936 162.065 31.5685C162.188 31.4434 162.355 31.3716 162.53 31.3679H165.746C165.919 31.375 166.084 31.4479 166.207 31.5723C166.329 31.6966 166.402 31.8633 166.408 32.039V51.9149H175.337C175.512 51.9186 175.678 51.9904 175.802 52.1155C175.926 52.2406 175.997 52.4092 176 52.586V55.4417C176 55.6197 175.93 55.7904 175.806 55.9163C175.682 56.0421 175.513 56.1129 175.337 56.1129H162.53C162.354 56.1129 162.185 56.0421 162.061 55.9163C161.936 55.7904 161.867 55.6197 161.867 55.4417V32.039Z" fill="url(#paint0_linear_677_319)"/>
<path d="M9.58874 67.0791C8.42294 64.445 7.917 61.5604 8.11575 58.681C8.31451 55.8017 9.21182 53.0164 10.7282 50.572C12.2445 48.1276 14.3331 46.0995 16.8088 44.6676C19.2846 43.2356 22.071 42.4439 24.9212 42.3627H24.7943C23.6656 42.8851 22.6513 43.6303 21.8108 44.5546C20.9703 45.479 20.3206 46.5639 19.8997 47.7458C19.3569 49.2122 19.1872 50.7933 19.406 52.3435C19.8168 52.0795 20.2705 51.891 20.7461 51.7866C20.6358 50.5718 20.7948 49.3474 21.2115 48.2027C21.9197 46.3107 23.3054 44.7578 25.0931 43.853C26.8808 42.9482 28.9394 42.7577 30.8596 43.3194C30.2725 44.2058 29.9628 45.2507 29.9709 46.3179C29.9672 47.5526 30.3797 48.7516 31.1401 49.717C31.9005 50.6824 32.9634 51.3564 34.1533 51.6276C35.3432 51.8989 36.5889 51.7513 37.6847 51.2091C38.7805 50.6669 39.6609 49.7626 40.1804 48.6455C40.6999 47.5284 40.8276 46.2653 40.5422 45.0649C40.2568 43.8645 39.5756 42.7985 38.6109 42.0429C37.6462 41.2874 36.4558 40.8875 35.2363 40.9093C34.0168 40.9311 32.8411 41.3733 31.9034 42.1628C27.284 40.5152 22.2108 40.7661 17.772 42.8615C13.3333 44.957 9.88271 48.7301 8.16059 53.3713C6.43847 58.0126 6.58202 63.1523 8.56043 67.6877C10.5388 72.223 14.1945 75.7928 18.7431 77.631L19.2368 76.3031C17.1055 75.4886 15.1553 74.2538 13.4991 72.6704C11.8429 71.087 10.5137 69.1865 9.58874 67.0791ZM35.3169 42.3056C36.094 42.3056 36.8537 42.5386 37.5003 42.9751C38.1468 43.4115 38.6512 44.032 38.9499 44.7583C39.2486 45.4846 39.3281 46.2841 39.1786 47.0561C39.029 47.8281 38.657 48.538 38.1094 49.0962C37.5619 49.6545 36.8633 50.0361 36.1018 50.193C35.3402 50.35 34.5499 50.2751 33.8303 49.978C33.1107 49.6808 32.4942 49.1747 32.0584 48.5233C31.6226 47.872 31.387 47.1046 31.3815 46.3179C31.3777 45.7924 31.4768 45.2713 31.6729 44.7846C31.869 44.298 32.1583 43.8555 32.5241 43.4825C32.8899 43.1095 33.325 42.8135 33.8043 42.6116C34.2836 42.4096 34.7977 42.3056 35.3169 42.3056Z" fill="url(#paint1_linear_677_319)"/>
<path d="M38.6072 24.4552L38.1417 25.7831C41.8899 27.2199 45.0293 29.929 47.0241 33.448C49.0189 36.967 49.7453 41.0778 49.0793 45.0786C48.4134 49.0794 46.3965 52.7223 43.3727 55.3853C40.349 58.0484 36.5059 59.5665 32.4996 59.6807C33.6319 59.1763 34.6532 58.4478 35.5035 57.5381C36.3537 56.6283 37.0157 55.5557 37.4505 54.3833C37.8654 53.2856 38.0666 52.1171 38.043 50.9421C37.6055 51.2098 37.1296 51.4073 36.6324 51.5275C36.5894 52.334 36.4229 53.1288 36.1387 53.8835C35.4308 55.7718 34.0466 57.3212 32.2615 58.2234C30.4764 59.1255 28.4212 59.3145 26.5048 58.7526L25.9265 58.5669C25.5587 58.4355 25.2044 58.2681 24.8686 58.0672C25.2993 57.4652 25.5576 56.7547 25.6152 56.0137C25.6727 55.2727 25.5273 54.53 25.1949 53.8673C24.8624 53.2046 24.3559 52.6475 23.7309 52.2574C23.106 51.8673 22.3868 51.6592 21.6526 51.6561C21.2989 51.6562 20.9472 51.7091 20.6088 51.8131C20.2168 51.9216 19.8417 52.085 19.4945 52.2986C18.7039 52.909 18.1678 53.7969 17.9918 54.7875C17.8158 55.7781 18.0126 56.7995 18.5436 57.6504C19.0745 58.5014 19.901 59.1202 20.8602 59.385C21.8195 59.6498 22.8419 59.5413 23.7261 59.081C24.24 59.4077 24.7831 59.6849 25.3482 59.9091L26.0252 60.1376C30.5016 61.6766 35.3891 61.4316 39.6933 59.4522C43.0645 57.9098 45.9085 55.3907 47.8663 52.2131C49.824 49.0354 50.8076 45.3418 50.6929 41.5986C50.5782 37.8554 49.3703 34.2306 47.2218 31.1819C45.0732 28.1332 42.0804 25.7974 38.6213 24.4695L38.6072 24.4552ZM21.5679 58.2671C21.0602 58.2671 20.5639 58.1147 20.1417 57.8291C19.7195 57.5436 19.3905 57.1377 19.1962 56.6628C19.0019 56.188 18.951 55.6655 19.0501 55.1614C19.1492 54.6573 19.3937 54.1942 19.7527 53.8308C20.1117 53.4674 20.5691 53.2198 21.0671 53.1196C21.5651 53.0193 22.0813 53.0708 22.5504 53.2675C23.0194 53.4641 23.4204 53.7972 23.7025 54.2246C23.9845 54.6519 24.1351 55.1544 24.1351 55.6684C24.1351 56.3576 23.8646 57.0186 23.3832 57.5059C22.9018 57.9933 22.2488 58.2671 21.5679 58.2671Z" fill="white"/>
<path d="M28.6892 80C21.6146 80.0103 14.7864 77.3703 9.51976 72.5885C4.25318 67.8067 0.920731 61.2213 0.164294 54.1008C-0.592143 46.9802 1.28093 39.8282 5.42275 34.0222C9.56456 28.2162 15.6822 24.1669 22.5972 22.6543C29.5123 21.1417 36.7357 22.2727 42.8761 25.8296C49.0165 29.3864 53.6397 35.1175 55.8551 41.9189C58.0704 48.7203 57.7214 56.111 54.8751 62.6674C52.0288 69.2238 46.8866 74.4822 40.4389 77.4298C36.7459 79.1177 32.7412 79.9936 28.6892 80ZM28.6892 24.1847C22.0639 24.1732 15.6738 26.6701 10.7743 31.1847C5.87476 35.6994 2.82006 41.9055 2.21028 48.5838C1.6005 55.2621 3.47971 61.9299 7.47873 67.2771C11.4777 72.6244 17.3075 76.2646 23.8227 77.4826C30.3378 78.7007 37.0675 77.4085 42.6895 73.8599C48.3115 70.3113 52.4194 64.7629 54.2063 58.3047C55.9932 51.8464 55.3298 44.9452 52.3465 38.9568C49.3633 32.9685 44.2757 28.3258 38.0834 25.9409C35.074 24.7813 31.8811 24.1861 28.661 24.1847H28.6892Z" fill="url(#paint2_linear_677_319)"/>
<defs>
<linearGradient id="paint0_linear_677_319" x1="68.4611" y1="43.7761" x2="175.873" y2="43.7761" gradientUnits="userSpaceOnUse">
<stop stop-color="#F19605"/>
<stop offset="1" stop-color="#D65414"/>
</linearGradient>
<linearGradient id="paint1_linear_677_319" x1="6.96553" y1="59.2712" x2="40.6512" y2="59.2712" gradientUnits="userSpaceOnUse">
<stop stop-color="#D65414"/>
<stop offset="1" stop-color="#F19605"/>
</linearGradient>
<linearGradient id="paint2_linear_677_319" x1="0.000341673" y1="51.0024" x2="57.2283" y2="51.0024" gradientUnits="userSpaceOnUse">
<stop stop-color="#D65414"/>
<stop offset="1" stop-color="#F19605"/>
</linearGradient>
</defs>
</svg>
