<svg width="239" height="59" viewBox="0 0 239 59" fill="none" xmlns="http://www.w3.org/2000/svg">
<g clip-path="url(#clip0_678_336)">
<path d="M60.2782 28.7615C60.1537 20.7395 66.4862 13.9545 75.5883 14.0807C77.918 14.0807 79.9124 14.3696 81.5934 14.9901C83.3086 15.5679 84.5739 16.1091 85.3491 16.6034V21.3987C84.61 20.7762 83.4271 20.117 81.7541 19.4151C80.0811 18.6684 78.0345 18.2961 75.5883 18.2961C68.8541 18.2961 64.8935 22.8859 64.8935 28.7615C64.8935 34.5923 69.0148 39.2228 74.8572 39.2228C77.5625 39.2142 80.1942 38.3303 82.3687 36.7001V30.617H74.076V26.3995H86.8153V42.8198H82.3667V41.3692C80.7298 42.4068 78.1229 43.4342 74.8572 43.4342C66.2753 43.4403 60.1537 36.7814 60.2762 28.7615H60.2782ZM90.3219 32.1489C90.3219 25.9031 94.8931 20.8189 101.344 20.8189C104.405 20.8189 106.976 22.0192 108.444 23.5044V21.4435H112.812V42.8198H108.363L108.408 40.6307C107.02 42.0813 104.776 43.4423 101.344 43.4423C94.8931 43.4423 90.3219 38.3968 90.3219 32.151V32.1489ZM108.693 32.1123C108.693 27.4798 105.588 24.7922 101.673 24.7922C97.7129 24.7922 94.7324 28.0637 94.7324 32.1123C94.7324 36.167 97.7129 39.4731 101.673 39.4731C105.59 39.4731 108.693 36.7794 108.693 32.1103V32.1123ZM150.454 29.6689V42.8178H146.041V30.1226C146.041 26.6884 144.814 24.7414 141.922 24.7414C139.271 24.7414 136.612 26.7698 136.612 30.7797V42.8117H132.199V30.1144C132.199 26.6802 130.972 24.7353 128.08 24.7353C125.632 24.7353 123.141 26.4727 122.812 29.9436V42.8035H118.399V21.4272H122.812V23.9947C123.061 23.4169 124.485 20.768 128.729 20.768C131.709 20.768 134.039 21.9684 135.384 24.2836C136.363 22.4261 138.568 20.768 142.571 20.768C147.31 20.7762 150.454 23.7953 150.454 29.6689ZM153.717 32.1489C153.717 25.9031 158.29 20.8189 164.741 20.8189C167.802 20.8189 170.373 22.0192 171.841 23.5044V14.7358L176.253 13.9891V42.8117H171.759L171.803 40.6205C170.415 42.0711 168.172 43.4322 164.739 43.4322C158.288 43.4403 153.715 38.3928 153.715 32.1489H153.717ZM172.09 32.1123C172.09 27.4798 168.985 24.7922 165.069 24.7922C161.112 24.7922 158.007 28.0637 158.007 32.1123C158.007 36.167 161.11 39.4731 165.069 39.4731C168.985 39.4731 172.09 36.7794 172.09 32.1123ZM179.929 32.1489C179.929 25.9031 185.07 20.8189 191.483 20.8189C197.89 20.8189 203.04 25.9031 203.04 32.1489C203.04 38.3948 197.898 43.4403 191.483 43.4403C185.07 43.4403 179.929 38.3948 179.929 32.1489ZM198.788 32.1489C198.788 28.0942 195.647 24.8309 191.483 24.8309C187.32 24.8309 184.179 28.1003 184.179 32.1489C184.179 36.1589 187.32 39.4303 191.483 39.4303C195.647 39.4303 198.788 36.167 198.788 32.1469V32.1489ZM239 29.6689V42.8178H234.59V30.1226C234.59 26.6884 233.362 24.7414 230.468 24.7414C227.817 24.7414 225.158 26.7698 225.158 30.7797V42.8117H220.746V30.1144C220.746 26.6802 219.519 24.7353 216.626 24.7353C214.18 24.7353 211.688 26.4727 211.36 29.9436V42.8035H206.956V21.4272H211.366V23.9947C211.615 23.4169 213.039 20.768 217.283 20.768C220.264 20.768 222.595 21.9684 223.939 24.2836C224.917 22.4261 227.124 20.768 231.127 20.768C235.859 20.7762 239 23.7953 239 29.6689Z" fill="white"/>
<path d="M22.1689 35.7825H22.1628V49.7309H22.1689V35.7825Z" fill="#00D168"/>
<path d="M21.0442 28.6475L7.26651 35.2494C7.06491 35.3502 6.89521 35.5061 6.77665 35.6996C6.65809 35.893 6.5954 36.1163 6.5957 36.344V49.1612C6.5957 49.6332 6.85881 50.0564 7.26852 50.2558L21.0522 56.8617C21.4017 57.0326 21.7832 57.114 22.1628 57.114V28.3892C21.7812 28.3973 21.4017 28.4848 21.0442 28.6475Z" fill="#00FF86"/>
<path d="M22.1689 35.7825H22.1628V49.7309H22.1689V35.7825Z" fill="#00D168"/>
<path d="M21.5502 0.826007L15.0831 4.06694V12.7745L7.51745 16.5363V7.75139L0.737084 11.1632C0.516641 11.2741 0.330971 11.4449 0.200811 11.6565C0.0706502 11.8681 0.00112495 12.1122 0 12.3615L0 29.144C0 30.1266 1.03031 30.7797 1.89995 30.3423L20.9858 20.8555C21.3594 20.6724 21.761 20.5829 22.1627 20.5829V0.67749C21.9493 0.678103 21.7389 0.728946 21.5482 0.826007H21.5502Z" fill="#00FF86"/>
<path d="M37.0632 35.2474L23.2795 28.6476C22.9325 28.4743 22.5496 28.3878 22.1628 28.3953V57.1222C22.5424 57.1222 22.9361 57.0408 23.2875 56.8699L37.0652 50.2619C37.2671 50.161 37.437 50.0048 37.5556 49.8109C37.6742 49.617 37.7367 49.3934 37.736 49.1653V36.3501C37.7374 36.1209 37.675 35.8958 37.556 35.7008C37.437 35.5058 37.2662 35.3487 37.0632 35.2474ZM43.5945 11.1612L36.8141 7.74935V16.5404L29.2384 12.7806V4.07304L22.7754 0.832111C22.585 0.736245 22.3755 0.685461 22.1628 0.683594V20.589C22.5645 20.589 22.9662 20.6846 23.3378 20.8616L42.4256 30.3484C42.6268 30.4482 42.8497 30.4945 43.0734 30.4829C43.2972 30.4713 43.5143 30.4022 43.7043 30.2821C43.8944 30.1621 44.0512 29.9949 44.1598 29.7965C44.2685 29.5981 44.3256 29.375 44.3256 29.148V12.3697C44.3284 12.1192 44.2612 11.8731 44.1319 11.6596C44.0025 11.4461 43.8162 11.274 43.5945 11.1632V11.1612Z" fill="#01D370"/>
</g>
<defs>
<clipPath id="clip0_678_336">
<rect width="239" height="59" fill="white"/>
</clipPath>
</defs>
</svg>
