<svg width="264" height="101" viewBox="0 0 264 101" fill="none" xmlns="http://www.w3.org/2000/svg">
<g clip-path="url(#clip0_677_301)">
<path d="M60.2782 49.7615C60.1537 41.7395 66.4862 34.9545 75.5883 35.0807C77.918 35.0807 79.9124 35.3696 81.5934 35.9901C83.3086 36.5679 84.5739 37.1091 85.3491 37.6034V42.3987C84.61 41.7762 83.4271 41.117 81.7541 40.4151C80.0811 39.6684 78.0345 39.2961 75.5883 39.2961C68.8541 39.2961 64.8935 43.8859 64.8935 49.7615C64.8935 55.5923 69.0148 60.2228 74.8572 60.2228C77.5625 60.2142 80.1942 59.3303 82.3687 57.7001V51.617H74.076V47.3995H86.8153V63.8198H82.3667V62.3692C80.7298 63.4068 78.1229 64.4342 74.8572 64.4342C66.2753 64.4403 60.1537 57.7814 60.2762 49.7615H60.2782ZM90.3219 53.1489C90.3219 46.9031 94.8931 41.8189 101.344 41.8189C104.405 41.8189 106.976 43.0192 108.444 44.5044V42.4435H112.812V63.8198H108.363L108.408 61.6307C107.02 63.0813 104.776 64.4423 101.344 64.4423C94.8931 64.4423 90.3219 59.3968 90.3219 53.151V53.1489ZM108.693 53.1123C108.693 48.4798 105.588 45.7922 101.673 45.7922C97.7129 45.7922 94.7324 49.0637 94.7324 53.1123C94.7324 57.167 97.7129 60.4731 101.673 60.4731C105.59 60.4731 108.693 57.7794 108.693 53.1103V53.1123ZM150.454 50.6689V63.8178H146.041V51.1226C146.041 47.6884 144.814 45.7414 141.922 45.7414C139.271 45.7414 136.612 47.7698 136.612 51.7797V63.8117H132.199V51.1144C132.199 47.6802 130.972 45.7353 128.08 45.7353C125.632 45.7353 123.141 47.4727 122.812 50.9436V63.8035H118.399V42.4272H122.812V44.9947C123.061 44.4169 124.485 41.768 128.729 41.768C131.709 41.768 134.039 42.9684 135.384 45.2836C136.363 43.4261 138.568 41.768 142.571 41.768C147.31 41.7762 150.454 44.7953 150.454 50.6689ZM153.717 53.1489C153.717 46.9031 158.29 41.8189 164.741 41.8189C167.802 41.8189 170.373 43.0192 171.841 44.5044V35.7358L176.253 34.9891V63.8117H171.759L171.803 61.6205C170.415 63.0711 168.172 64.4322 164.739 64.4322C158.288 64.4403 153.715 59.3928 153.715 53.1489H153.717ZM172.09 53.1123C172.09 48.4798 168.985 45.7922 165.069 45.7922C161.112 45.7922 158.007 49.0637 158.007 53.1123C158.007 57.167 161.11 60.4731 165.069 60.4731C168.985 60.4731 172.09 57.7794 172.09 53.1123ZM179.929 53.1489C179.929 46.9031 185.07 41.8189 191.483 41.8189C197.89 41.8189 203.04 46.9031 203.04 53.1489C203.04 59.3948 197.898 64.4403 191.483 64.4403C185.07 64.4403 179.929 59.3948 179.929 53.1489ZM198.788 53.1489C198.788 49.0942 195.647 45.8309 191.483 45.8309C187.32 45.8309 184.179 49.1003 184.179 53.1489C184.179 57.1589 187.32 60.4303 191.483 60.4303C195.647 60.4303 198.788 57.167 198.788 53.1469V53.1489ZM239 50.6689V63.8178H234.59V51.1226C234.59 47.6884 233.362 45.7414 230.468 45.7414C227.817 45.7414 225.158 47.7698 225.158 51.7797V63.8117H220.746V51.1144C220.746 47.6802 219.519 45.7353 216.626 45.7353C214.18 45.7353 211.688 47.4727 211.36 50.9436V63.8035H206.956V42.4272H211.366V44.9947C211.615 44.4169 213.039 41.768 217.283 41.768C220.264 41.768 222.595 42.9684 223.939 45.2836C224.917 43.4261 227.124 41.768 231.127 41.768C235.859 41.7762 239 44.7953 239 50.6689Z" fill="white"/>
<path d="M22.1689 56.7825H22.1628V70.7309H22.1689V56.7825Z" fill="#00D168"/>
<path d="M21.0442 49.6475L7.26651 56.2494C7.06491 56.3502 6.89521 56.5061 6.77665 56.6996C6.65809 56.893 6.5954 57.1163 6.5957 57.344V70.1612C6.5957 70.6332 6.85881 71.0564 7.26852 71.2558L21.0522 77.8617C21.4017 78.0326 21.7832 78.114 22.1628 78.114V49.3892C21.7812 49.3973 21.4017 49.4848 21.0442 49.6475Z" fill="#00FF86"/>
<path d="M22.1689 56.7825H22.1628V70.7309H22.1689V56.7825Z" fill="#00D168"/>
<path d="M21.5502 21.826L15.0831 25.0669V33.7745L7.51745 37.5363V28.7514L0.737084 32.1632C0.516641 32.2741 0.330971 32.4449 0.200811 32.6565C0.0706502 32.8681 0.00112495 33.1122 0 33.3615L0 50.144C0 51.1266 1.03031 51.7797 1.89995 51.3423L20.9858 41.8555C21.3594 41.6724 21.761 41.5829 22.1627 41.5829V21.6775C21.9493 21.6781 21.7389 21.7289 21.5482 21.826H21.5502Z" fill="#00FF86"/>
<path d="M37.0632 56.2474L23.2795 49.6476C22.9325 49.4743 22.5496 49.3878 22.1628 49.3953V78.1222C22.5424 78.1222 22.9361 78.0408 23.2875 77.8699L37.0652 71.2619C37.2671 71.161 37.437 71.0048 37.5556 70.8109C37.6742 70.617 37.7367 70.3934 37.736 70.1653V57.3501C37.7374 57.1209 37.675 56.8958 37.556 56.7008C37.437 56.5058 37.2662 56.3487 37.0632 56.2474ZM43.5945 32.1612L36.8141 28.7494V37.5404L29.2384 33.7806V25.073L22.7754 21.8321C22.585 21.7362 22.3755 21.6855 22.1628 21.6836V41.589C22.5645 41.589 22.9662 41.6846 23.3378 41.8616L42.4256 51.3484C42.6268 51.4482 42.8497 51.4945 43.0734 51.4829C43.2972 51.4713 43.5143 51.4022 43.7043 51.2821C43.8944 51.1621 44.0512 50.9949 44.1598 50.7965C44.2685 50.5981 44.3256 50.375 44.3256 50.148V33.3697C44.3284 33.1192 44.2612 32.8731 44.1319 32.6596C44.0025 32.4461 43.8162 32.274 43.5945 32.1632V32.1612Z" fill="#01D370"/>
</g>
<defs>
<clipPath id="clip0_677_301">
<rect width="239" height="59" fill="white" transform="translate(0 21)"/>
</clipPath>
</defs>
</svg>
